%TF.GenerationSoftware,KiCad,Pcbnew,9.0.0*%
%TF.CreationDate,2025-04-02T18:41:46+03:00*%
%TF.ProjectId,bbq20_keyboard,62627132-305f-46b6-9579-626f6172642e,2*%
%TF.SameCoordinates,Original*%
%TF.FileFunction,Drillmap*%
%TF.FilePolarity,Positive*%
%FSLAX45Y45*%
G04 Gerber Fmt 4.5, Leading zero omitted, Abs format (unit mm)*
G04 Created by KiCad (PCBNEW 9.0.0) date 2025-04-02 18:41:46*
%MOMM*%
%LPD*%
G01*
G04 APERTURE LIST*
%ADD10C,0.100000*%
%ADD11C,0.200000*%
%ADD12C,0.270000*%
G04 APERTURE END LIST*
D10*
X11960000Y-9930000D02*
X11670000Y-9930000D01*
X18170000Y-6990000D02*
G75*
G02*
X18480000Y-7300000I0J-310000D01*
G01*
X12740000Y-7740000D02*
X11700000Y-7740000D01*
X11660000Y-7780000D02*
G75*
G02*
X11700000Y-7740000I40000J0D01*
G01*
X11700000Y-8140000D02*
X12740000Y-8140000D01*
X18170000Y-6990000D02*
X11390000Y-6990000D01*
X11960000Y-8460000D02*
X11670000Y-8460000D01*
X11960000Y-8460000D02*
G75*
G02*
X12000000Y-8500000I0J-40000D01*
G01*
X11630000Y-8500000D02*
X11630000Y-9890000D01*
X12000000Y-9890000D02*
G75*
G02*
X11960000Y-9930000I-40000J0D01*
G01*
X11660000Y-7780000D02*
X11660000Y-8100000D01*
X11700000Y-8140000D02*
G75*
G02*
X11660000Y-8100000I0J40000D01*
G01*
X11670000Y-9930000D02*
G75*
G02*
X11630000Y-9890000I0J40000D01*
G01*
X11080000Y-7300000D02*
G75*
G02*
X11390000Y-6990000I310000J0D01*
G01*
X18480000Y-10900000D02*
G75*
G02*
X17080000Y-12300000I-1400000J0D01*
G01*
X12780000Y-7780000D02*
X12780000Y-8100000D01*
X18480000Y-7300000D02*
X18480000Y-10900000D01*
X12000000Y-8500000D02*
X12000000Y-9890000D01*
X12480000Y-12300000D02*
G75*
G02*
X11080000Y-10900000I0J1400000D01*
G01*
X12740000Y-7740000D02*
G75*
G02*
X12780000Y-7780000I0J-40000D01*
G01*
X11630000Y-8500000D02*
G75*
G02*
X11670000Y-8460000I40000J0D01*
G01*
X17080000Y-12300000D02*
X12480000Y-12300000D01*
X13200000Y-11800000D02*
G75*
G02*
X13000000Y-11800000I-100000J0D01*
G01*
X13000000Y-11800000D02*
G75*
G02*
X13200000Y-11800000I100000J0D01*
G01*
X12780000Y-8100000D02*
G75*
G02*
X12740000Y-8140000I-40000J0D01*
G01*
X11080000Y-10900000D02*
X11080000Y-7300000D01*
D11*
D10*
X14458500Y-7637500D02*
X14523500Y-7702500D01*
X14523500Y-7637500D02*
X14458500Y-7702500D01*
X15036500Y-7637500D02*
X15101500Y-7702500D01*
X15101500Y-7637500D02*
X15036500Y-7702500D01*
D12*
X12355000Y-11920000D02*
G75*
G02*
X12085000Y-11920000I-135000J0D01*
G01*
X12085000Y-11920000D02*
G75*
G02*
X12355000Y-11920000I135000J0D01*
G01*
X18305000Y-7300000D02*
G75*
G02*
X18035000Y-7300000I-135000J0D01*
G01*
X18035000Y-7300000D02*
G75*
G02*
X18305000Y-7300000I135000J0D01*
G01*
D11*
X11335777Y-12616484D02*
X11335777Y-12416484D01*
X11335777Y-12416484D02*
X11383396Y-12416484D01*
X11383396Y-12416484D02*
X11411967Y-12426008D01*
X11411967Y-12426008D02*
X11431015Y-12445055D01*
X11431015Y-12445055D02*
X11440539Y-12464103D01*
X11440539Y-12464103D02*
X11450062Y-12502198D01*
X11450062Y-12502198D02*
X11450062Y-12530769D01*
X11450062Y-12530769D02*
X11440539Y-12568865D01*
X11440539Y-12568865D02*
X11431015Y-12587912D01*
X11431015Y-12587912D02*
X11411967Y-12606960D01*
X11411967Y-12606960D02*
X11383396Y-12616484D01*
X11383396Y-12616484D02*
X11335777Y-12616484D01*
X11535777Y-12616484D02*
X11535777Y-12483150D01*
X11535777Y-12521246D02*
X11545301Y-12502198D01*
X11545301Y-12502198D02*
X11554824Y-12492674D01*
X11554824Y-12492674D02*
X11573872Y-12483150D01*
X11573872Y-12483150D02*
X11592920Y-12483150D01*
X11659586Y-12616484D02*
X11659586Y-12483150D01*
X11659586Y-12416484D02*
X11650062Y-12426008D01*
X11650062Y-12426008D02*
X11659586Y-12435531D01*
X11659586Y-12435531D02*
X11669110Y-12426008D01*
X11669110Y-12426008D02*
X11659586Y-12416484D01*
X11659586Y-12416484D02*
X11659586Y-12435531D01*
X11783396Y-12616484D02*
X11764348Y-12606960D01*
X11764348Y-12606960D02*
X11754824Y-12587912D01*
X11754824Y-12587912D02*
X11754824Y-12416484D01*
X11888158Y-12616484D02*
X11869110Y-12606960D01*
X11869110Y-12606960D02*
X11859586Y-12587912D01*
X11859586Y-12587912D02*
X11859586Y-12416484D01*
X12116729Y-12616484D02*
X12116729Y-12416484D01*
X12116729Y-12416484D02*
X12183396Y-12559341D01*
X12183396Y-12559341D02*
X12250062Y-12416484D01*
X12250062Y-12416484D02*
X12250062Y-12616484D01*
X12431015Y-12616484D02*
X12431015Y-12511722D01*
X12431015Y-12511722D02*
X12421491Y-12492674D01*
X12421491Y-12492674D02*
X12402443Y-12483150D01*
X12402443Y-12483150D02*
X12364348Y-12483150D01*
X12364348Y-12483150D02*
X12345301Y-12492674D01*
X12431015Y-12606960D02*
X12411967Y-12616484D01*
X12411967Y-12616484D02*
X12364348Y-12616484D01*
X12364348Y-12616484D02*
X12345301Y-12606960D01*
X12345301Y-12606960D02*
X12335777Y-12587912D01*
X12335777Y-12587912D02*
X12335777Y-12568865D01*
X12335777Y-12568865D02*
X12345301Y-12549817D01*
X12345301Y-12549817D02*
X12364348Y-12540293D01*
X12364348Y-12540293D02*
X12411967Y-12540293D01*
X12411967Y-12540293D02*
X12431015Y-12530769D01*
X12526253Y-12483150D02*
X12526253Y-12683150D01*
X12526253Y-12492674D02*
X12545301Y-12483150D01*
X12545301Y-12483150D02*
X12583396Y-12483150D01*
X12583396Y-12483150D02*
X12602443Y-12492674D01*
X12602443Y-12492674D02*
X12611967Y-12502198D01*
X12611967Y-12502198D02*
X12621491Y-12521246D01*
X12621491Y-12521246D02*
X12621491Y-12578388D01*
X12621491Y-12578388D02*
X12611967Y-12597436D01*
X12611967Y-12597436D02*
X12602443Y-12606960D01*
X12602443Y-12606960D02*
X12583396Y-12616484D01*
X12583396Y-12616484D02*
X12545301Y-12616484D01*
X12545301Y-12616484D02*
X12526253Y-12606960D01*
X12707205Y-12597436D02*
X12716729Y-12606960D01*
X12716729Y-12606960D02*
X12707205Y-12616484D01*
X12707205Y-12616484D02*
X12697682Y-12606960D01*
X12697682Y-12606960D02*
X12707205Y-12597436D01*
X12707205Y-12597436D02*
X12707205Y-12616484D01*
X12707205Y-12492674D02*
X12716729Y-12502198D01*
X12716729Y-12502198D02*
X12707205Y-12511722D01*
X12707205Y-12511722D02*
X12697682Y-12502198D01*
X12697682Y-12502198D02*
X12707205Y-12492674D01*
X12707205Y-12492674D02*
X12707205Y-12511722D01*
D10*
X11010000Y-12912500D02*
X11075000Y-12977500D01*
X11075000Y-12912500D02*
X11010000Y-12977500D01*
D11*
X11373872Y-12836484D02*
X11392920Y-12836484D01*
X11392920Y-12836484D02*
X11411967Y-12846008D01*
X11411967Y-12846008D02*
X11421491Y-12855531D01*
X11421491Y-12855531D02*
X11431015Y-12874579D01*
X11431015Y-12874579D02*
X11440539Y-12912674D01*
X11440539Y-12912674D02*
X11440539Y-12960293D01*
X11440539Y-12960293D02*
X11431015Y-12998388D01*
X11431015Y-12998388D02*
X11421491Y-13017436D01*
X11421491Y-13017436D02*
X11411967Y-13026960D01*
X11411967Y-13026960D02*
X11392920Y-13036484D01*
X11392920Y-13036484D02*
X11373872Y-13036484D01*
X11373872Y-13036484D02*
X11354824Y-13026960D01*
X11354824Y-13026960D02*
X11345301Y-13017436D01*
X11345301Y-13017436D02*
X11335777Y-12998388D01*
X11335777Y-12998388D02*
X11326253Y-12960293D01*
X11326253Y-12960293D02*
X11326253Y-12912674D01*
X11326253Y-12912674D02*
X11335777Y-12874579D01*
X11335777Y-12874579D02*
X11345301Y-12855531D01*
X11345301Y-12855531D02*
X11354824Y-12846008D01*
X11354824Y-12846008D02*
X11373872Y-12836484D01*
X11526253Y-13017436D02*
X11535777Y-13026960D01*
X11535777Y-13026960D02*
X11526253Y-13036484D01*
X11526253Y-13036484D02*
X11516729Y-13026960D01*
X11516729Y-13026960D02*
X11526253Y-13017436D01*
X11526253Y-13017436D02*
X11526253Y-13036484D01*
X11707205Y-12836484D02*
X11669110Y-12836484D01*
X11669110Y-12836484D02*
X11650062Y-12846008D01*
X11650062Y-12846008D02*
X11640539Y-12855531D01*
X11640539Y-12855531D02*
X11621491Y-12884103D01*
X11621491Y-12884103D02*
X11611967Y-12922198D01*
X11611967Y-12922198D02*
X11611967Y-12998388D01*
X11611967Y-12998388D02*
X11621491Y-13017436D01*
X11621491Y-13017436D02*
X11631015Y-13026960D01*
X11631015Y-13026960D02*
X11650062Y-13036484D01*
X11650062Y-13036484D02*
X11688158Y-13036484D01*
X11688158Y-13036484D02*
X11707205Y-13026960D01*
X11707205Y-13026960D02*
X11716729Y-13017436D01*
X11716729Y-13017436D02*
X11726253Y-12998388D01*
X11726253Y-12998388D02*
X11726253Y-12950769D01*
X11726253Y-12950769D02*
X11716729Y-12931722D01*
X11716729Y-12931722D02*
X11707205Y-12922198D01*
X11707205Y-12922198D02*
X11688158Y-12912674D01*
X11688158Y-12912674D02*
X11650062Y-12912674D01*
X11650062Y-12912674D02*
X11631015Y-12922198D01*
X11631015Y-12922198D02*
X11621491Y-12931722D01*
X11621491Y-12931722D02*
X11611967Y-12950769D01*
X11907205Y-12836484D02*
X11811967Y-12836484D01*
X11811967Y-12836484D02*
X11802443Y-12931722D01*
X11802443Y-12931722D02*
X11811967Y-12922198D01*
X11811967Y-12922198D02*
X11831015Y-12912674D01*
X11831015Y-12912674D02*
X11878634Y-12912674D01*
X11878634Y-12912674D02*
X11897682Y-12922198D01*
X11897682Y-12922198D02*
X11907205Y-12931722D01*
X11907205Y-12931722D02*
X11916729Y-12950769D01*
X11916729Y-12950769D02*
X11916729Y-12998388D01*
X11916729Y-12998388D02*
X11907205Y-13017436D01*
X11907205Y-13017436D02*
X11897682Y-13026960D01*
X11897682Y-13026960D02*
X11878634Y-13036484D01*
X11878634Y-13036484D02*
X11831015Y-13036484D01*
X11831015Y-13036484D02*
X11811967Y-13026960D01*
X11811967Y-13026960D02*
X11802443Y-13017436D01*
X12040539Y-12836484D02*
X12059586Y-12836484D01*
X12059586Y-12836484D02*
X12078634Y-12846008D01*
X12078634Y-12846008D02*
X12088158Y-12855531D01*
X12088158Y-12855531D02*
X12097682Y-12874579D01*
X12097682Y-12874579D02*
X12107205Y-12912674D01*
X12107205Y-12912674D02*
X12107205Y-12960293D01*
X12107205Y-12960293D02*
X12097682Y-12998388D01*
X12097682Y-12998388D02*
X12088158Y-13017436D01*
X12088158Y-13017436D02*
X12078634Y-13026960D01*
X12078634Y-13026960D02*
X12059586Y-13036484D01*
X12059586Y-13036484D02*
X12040539Y-13036484D01*
X12040539Y-13036484D02*
X12021491Y-13026960D01*
X12021491Y-13026960D02*
X12011967Y-13017436D01*
X12011967Y-13017436D02*
X12002443Y-12998388D01*
X12002443Y-12998388D02*
X11992920Y-12960293D01*
X11992920Y-12960293D02*
X11992920Y-12912674D01*
X11992920Y-12912674D02*
X12002443Y-12874579D01*
X12002443Y-12874579D02*
X12011967Y-12855531D01*
X12011967Y-12855531D02*
X12021491Y-12846008D01*
X12021491Y-12846008D02*
X12040539Y-12836484D01*
X12192920Y-13036484D02*
X12192920Y-12903150D01*
X12192920Y-12922198D02*
X12202443Y-12912674D01*
X12202443Y-12912674D02*
X12221491Y-12903150D01*
X12221491Y-12903150D02*
X12250063Y-12903150D01*
X12250063Y-12903150D02*
X12269110Y-12912674D01*
X12269110Y-12912674D02*
X12278634Y-12931722D01*
X12278634Y-12931722D02*
X12278634Y-13036484D01*
X12278634Y-12931722D02*
X12288158Y-12912674D01*
X12288158Y-12912674D02*
X12307205Y-12903150D01*
X12307205Y-12903150D02*
X12335777Y-12903150D01*
X12335777Y-12903150D02*
X12354824Y-12912674D01*
X12354824Y-12912674D02*
X12364348Y-12931722D01*
X12364348Y-12931722D02*
X12364348Y-13036484D01*
X12459586Y-13036484D02*
X12459586Y-12903150D01*
X12459586Y-12922198D02*
X12469110Y-12912674D01*
X12469110Y-12912674D02*
X12488158Y-12903150D01*
X12488158Y-12903150D02*
X12516729Y-12903150D01*
X12516729Y-12903150D02*
X12535777Y-12912674D01*
X12535777Y-12912674D02*
X12545301Y-12931722D01*
X12545301Y-12931722D02*
X12545301Y-13036484D01*
X12545301Y-12931722D02*
X12554824Y-12912674D01*
X12554824Y-12912674D02*
X12573872Y-12903150D01*
X12573872Y-12903150D02*
X12602443Y-12903150D01*
X12602443Y-12903150D02*
X12621491Y-12912674D01*
X12621491Y-12912674D02*
X12631015Y-12931722D01*
X12631015Y-12931722D02*
X12631015Y-13036484D01*
X13021491Y-12826960D02*
X12850063Y-13084103D01*
X13278634Y-12836484D02*
X13297682Y-12836484D01*
X13297682Y-12836484D02*
X13316729Y-12846008D01*
X13316729Y-12846008D02*
X13326253Y-12855531D01*
X13326253Y-12855531D02*
X13335777Y-12874579D01*
X13335777Y-12874579D02*
X13345301Y-12912674D01*
X13345301Y-12912674D02*
X13345301Y-12960293D01*
X13345301Y-12960293D02*
X13335777Y-12998388D01*
X13335777Y-12998388D02*
X13326253Y-13017436D01*
X13326253Y-13017436D02*
X13316729Y-13026960D01*
X13316729Y-13026960D02*
X13297682Y-13036484D01*
X13297682Y-13036484D02*
X13278634Y-13036484D01*
X13278634Y-13036484D02*
X13259586Y-13026960D01*
X13259586Y-13026960D02*
X13250063Y-13017436D01*
X13250063Y-13017436D02*
X13240539Y-12998388D01*
X13240539Y-12998388D02*
X13231015Y-12960293D01*
X13231015Y-12960293D02*
X13231015Y-12912674D01*
X13231015Y-12912674D02*
X13240539Y-12874579D01*
X13240539Y-12874579D02*
X13250063Y-12855531D01*
X13250063Y-12855531D02*
X13259586Y-12846008D01*
X13259586Y-12846008D02*
X13278634Y-12836484D01*
X13431015Y-13017436D02*
X13440539Y-13026960D01*
X13440539Y-13026960D02*
X13431015Y-13036484D01*
X13431015Y-13036484D02*
X13421491Y-13026960D01*
X13421491Y-13026960D02*
X13431015Y-13017436D01*
X13431015Y-13017436D02*
X13431015Y-13036484D01*
X13564348Y-12836484D02*
X13583396Y-12836484D01*
X13583396Y-12836484D02*
X13602444Y-12846008D01*
X13602444Y-12846008D02*
X13611967Y-12855531D01*
X13611967Y-12855531D02*
X13621491Y-12874579D01*
X13621491Y-12874579D02*
X13631015Y-12912674D01*
X13631015Y-12912674D02*
X13631015Y-12960293D01*
X13631015Y-12960293D02*
X13621491Y-12998388D01*
X13621491Y-12998388D02*
X13611967Y-13017436D01*
X13611967Y-13017436D02*
X13602444Y-13026960D01*
X13602444Y-13026960D02*
X13583396Y-13036484D01*
X13583396Y-13036484D02*
X13564348Y-13036484D01*
X13564348Y-13036484D02*
X13545301Y-13026960D01*
X13545301Y-13026960D02*
X13535777Y-13017436D01*
X13535777Y-13017436D02*
X13526253Y-12998388D01*
X13526253Y-12998388D02*
X13516729Y-12960293D01*
X13516729Y-12960293D02*
X13516729Y-12912674D01*
X13516729Y-12912674D02*
X13526253Y-12874579D01*
X13526253Y-12874579D02*
X13535777Y-12855531D01*
X13535777Y-12855531D02*
X13545301Y-12846008D01*
X13545301Y-12846008D02*
X13564348Y-12836484D01*
X13707206Y-12855531D02*
X13716729Y-12846008D01*
X13716729Y-12846008D02*
X13735777Y-12836484D01*
X13735777Y-12836484D02*
X13783396Y-12836484D01*
X13783396Y-12836484D02*
X13802444Y-12846008D01*
X13802444Y-12846008D02*
X13811967Y-12855531D01*
X13811967Y-12855531D02*
X13821491Y-12874579D01*
X13821491Y-12874579D02*
X13821491Y-12893627D01*
X13821491Y-12893627D02*
X13811967Y-12922198D01*
X13811967Y-12922198D02*
X13697682Y-13036484D01*
X13697682Y-13036484D02*
X13821491Y-13036484D01*
X14002444Y-12836484D02*
X13907206Y-12836484D01*
X13907206Y-12836484D02*
X13897682Y-12931722D01*
X13897682Y-12931722D02*
X13907206Y-12922198D01*
X13907206Y-12922198D02*
X13926253Y-12912674D01*
X13926253Y-12912674D02*
X13973872Y-12912674D01*
X13973872Y-12912674D02*
X13992920Y-12922198D01*
X13992920Y-12922198D02*
X14002444Y-12931722D01*
X14002444Y-12931722D02*
X14011967Y-12950769D01*
X14011967Y-12950769D02*
X14011967Y-12998388D01*
X14011967Y-12998388D02*
X14002444Y-13017436D01*
X14002444Y-13017436D02*
X13992920Y-13026960D01*
X13992920Y-13026960D02*
X13973872Y-13036484D01*
X13973872Y-13036484D02*
X13926253Y-13036484D01*
X13926253Y-13036484D02*
X13907206Y-13026960D01*
X13907206Y-13026960D02*
X13897682Y-13017436D01*
X14183396Y-12836484D02*
X14145301Y-12836484D01*
X14145301Y-12836484D02*
X14126253Y-12846008D01*
X14126253Y-12846008D02*
X14116729Y-12855531D01*
X14116729Y-12855531D02*
X14097682Y-12884103D01*
X14097682Y-12884103D02*
X14088158Y-12922198D01*
X14088158Y-12922198D02*
X14088158Y-12998388D01*
X14088158Y-12998388D02*
X14097682Y-13017436D01*
X14097682Y-13017436D02*
X14107206Y-13026960D01*
X14107206Y-13026960D02*
X14126253Y-13036484D01*
X14126253Y-13036484D02*
X14164348Y-13036484D01*
X14164348Y-13036484D02*
X14183396Y-13026960D01*
X14183396Y-13026960D02*
X14192920Y-13017436D01*
X14192920Y-13017436D02*
X14202444Y-12998388D01*
X14202444Y-12998388D02*
X14202444Y-12950769D01*
X14202444Y-12950769D02*
X14192920Y-12931722D01*
X14192920Y-12931722D02*
X14183396Y-12922198D01*
X14183396Y-12922198D02*
X14164348Y-12912674D01*
X14164348Y-12912674D02*
X14126253Y-12912674D01*
X14126253Y-12912674D02*
X14107206Y-12922198D01*
X14107206Y-12922198D02*
X14097682Y-12931722D01*
X14097682Y-12931722D02*
X14088158Y-12950769D01*
X14278634Y-12836484D02*
X14278634Y-12874579D01*
X14354825Y-12836484D02*
X14354825Y-12874579D01*
X14650063Y-13112674D02*
X14640539Y-13103150D01*
X14640539Y-13103150D02*
X14621491Y-13074579D01*
X14621491Y-13074579D02*
X14611968Y-13055531D01*
X14611968Y-13055531D02*
X14602444Y-13026960D01*
X14602444Y-13026960D02*
X14592920Y-12979341D01*
X14592920Y-12979341D02*
X14592920Y-12941246D01*
X14592920Y-12941246D02*
X14602444Y-12893627D01*
X14602444Y-12893627D02*
X14611968Y-12865055D01*
X14611968Y-12865055D02*
X14621491Y-12846008D01*
X14621491Y-12846008D02*
X14640539Y-12817436D01*
X14640539Y-12817436D02*
X14650063Y-12807912D01*
X14716729Y-12855531D02*
X14726253Y-12846008D01*
X14726253Y-12846008D02*
X14745301Y-12836484D01*
X14745301Y-12836484D02*
X14792920Y-12836484D01*
X14792920Y-12836484D02*
X14811968Y-12846008D01*
X14811968Y-12846008D02*
X14821491Y-12855531D01*
X14821491Y-12855531D02*
X14831015Y-12874579D01*
X14831015Y-12874579D02*
X14831015Y-12893627D01*
X14831015Y-12893627D02*
X14821491Y-12922198D01*
X14821491Y-12922198D02*
X14707206Y-13036484D01*
X14707206Y-13036484D02*
X14831015Y-13036484D01*
X15069110Y-13036484D02*
X15069110Y-12836484D01*
X15154825Y-13036484D02*
X15154825Y-12931722D01*
X15154825Y-12931722D02*
X15145301Y-12912674D01*
X15145301Y-12912674D02*
X15126253Y-12903150D01*
X15126253Y-12903150D02*
X15097682Y-12903150D01*
X15097682Y-12903150D02*
X15078634Y-12912674D01*
X15078634Y-12912674D02*
X15069110Y-12922198D01*
X15278634Y-13036484D02*
X15259587Y-13026960D01*
X15259587Y-13026960D02*
X15250063Y-13017436D01*
X15250063Y-13017436D02*
X15240539Y-12998388D01*
X15240539Y-12998388D02*
X15240539Y-12941246D01*
X15240539Y-12941246D02*
X15250063Y-12922198D01*
X15250063Y-12922198D02*
X15259587Y-12912674D01*
X15259587Y-12912674D02*
X15278634Y-12903150D01*
X15278634Y-12903150D02*
X15307206Y-12903150D01*
X15307206Y-12903150D02*
X15326253Y-12912674D01*
X15326253Y-12912674D02*
X15335777Y-12922198D01*
X15335777Y-12922198D02*
X15345301Y-12941246D01*
X15345301Y-12941246D02*
X15345301Y-12998388D01*
X15345301Y-12998388D02*
X15335777Y-13017436D01*
X15335777Y-13017436D02*
X15326253Y-13026960D01*
X15326253Y-13026960D02*
X15307206Y-13036484D01*
X15307206Y-13036484D02*
X15278634Y-13036484D01*
X15459587Y-13036484D02*
X15440539Y-13026960D01*
X15440539Y-13026960D02*
X15431015Y-13007912D01*
X15431015Y-13007912D02*
X15431015Y-12836484D01*
X15611968Y-13026960D02*
X15592920Y-13036484D01*
X15592920Y-13036484D02*
X15554825Y-13036484D01*
X15554825Y-13036484D02*
X15535777Y-13026960D01*
X15535777Y-13026960D02*
X15526253Y-13007912D01*
X15526253Y-13007912D02*
X15526253Y-12931722D01*
X15526253Y-12931722D02*
X15535777Y-12912674D01*
X15535777Y-12912674D02*
X15554825Y-12903150D01*
X15554825Y-12903150D02*
X15592920Y-12903150D01*
X15592920Y-12903150D02*
X15611968Y-12912674D01*
X15611968Y-12912674D02*
X15621491Y-12931722D01*
X15621491Y-12931722D02*
X15621491Y-12950769D01*
X15621491Y-12950769D02*
X15526253Y-12969817D01*
X15697682Y-13026960D02*
X15716730Y-13036484D01*
X15716730Y-13036484D02*
X15754825Y-13036484D01*
X15754825Y-13036484D02*
X15773872Y-13026960D01*
X15773872Y-13026960D02*
X15783396Y-13007912D01*
X15783396Y-13007912D02*
X15783396Y-12998388D01*
X15783396Y-12998388D02*
X15773872Y-12979341D01*
X15773872Y-12979341D02*
X15754825Y-12969817D01*
X15754825Y-12969817D02*
X15726253Y-12969817D01*
X15726253Y-12969817D02*
X15707206Y-12960293D01*
X15707206Y-12960293D02*
X15697682Y-12941246D01*
X15697682Y-12941246D02*
X15697682Y-12931722D01*
X15697682Y-12931722D02*
X15707206Y-12912674D01*
X15707206Y-12912674D02*
X15726253Y-12903150D01*
X15726253Y-12903150D02*
X15754825Y-12903150D01*
X15754825Y-12903150D02*
X15773872Y-12912674D01*
X15850063Y-13112674D02*
X15859587Y-13103150D01*
X15859587Y-13103150D02*
X15878634Y-13074579D01*
X15878634Y-13074579D02*
X15888158Y-13055531D01*
X15888158Y-13055531D02*
X15897682Y-13026960D01*
X15897682Y-13026960D02*
X15907206Y-12979341D01*
X15907206Y-12979341D02*
X15907206Y-12941246D01*
X15907206Y-12941246D02*
X15897682Y-12893627D01*
X15897682Y-12893627D02*
X15888158Y-12865055D01*
X15888158Y-12865055D02*
X15878634Y-12846008D01*
X15878634Y-12846008D02*
X15859587Y-12817436D01*
X15859587Y-12817436D02*
X15850063Y-12807912D01*
X16211968Y-13112674D02*
X16202444Y-13103150D01*
X16202444Y-13103150D02*
X16183396Y-13074579D01*
X16183396Y-13074579D02*
X16173872Y-13055531D01*
X16173872Y-13055531D02*
X16164349Y-13026960D01*
X16164349Y-13026960D02*
X16154825Y-12979341D01*
X16154825Y-12979341D02*
X16154825Y-12941246D01*
X16154825Y-12941246D02*
X16164349Y-12893627D01*
X16164349Y-12893627D02*
X16173872Y-12865055D01*
X16173872Y-12865055D02*
X16183396Y-12846008D01*
X16183396Y-12846008D02*
X16202444Y-12817436D01*
X16202444Y-12817436D02*
X16211968Y-12807912D01*
X16288158Y-12903150D02*
X16288158Y-13036484D01*
X16288158Y-12922198D02*
X16297682Y-12912674D01*
X16297682Y-12912674D02*
X16316730Y-12903150D01*
X16316730Y-12903150D02*
X16345301Y-12903150D01*
X16345301Y-12903150D02*
X16364349Y-12912674D01*
X16364349Y-12912674D02*
X16373872Y-12931722D01*
X16373872Y-12931722D02*
X16373872Y-13036484D01*
X16497682Y-13036484D02*
X16478634Y-13026960D01*
X16478634Y-13026960D02*
X16469111Y-13017436D01*
X16469111Y-13017436D02*
X16459587Y-12998388D01*
X16459587Y-12998388D02*
X16459587Y-12941246D01*
X16459587Y-12941246D02*
X16469111Y-12922198D01*
X16469111Y-12922198D02*
X16478634Y-12912674D01*
X16478634Y-12912674D02*
X16497682Y-12903150D01*
X16497682Y-12903150D02*
X16526253Y-12903150D01*
X16526253Y-12903150D02*
X16545301Y-12912674D01*
X16545301Y-12912674D02*
X16554825Y-12922198D01*
X16554825Y-12922198D02*
X16564349Y-12941246D01*
X16564349Y-12941246D02*
X16564349Y-12998388D01*
X16564349Y-12998388D02*
X16554825Y-13017436D01*
X16554825Y-13017436D02*
X16545301Y-13026960D01*
X16545301Y-13026960D02*
X16526253Y-13036484D01*
X16526253Y-13036484D02*
X16497682Y-13036484D01*
X16621492Y-12903150D02*
X16697682Y-12903150D01*
X16650063Y-12836484D02*
X16650063Y-13007912D01*
X16650063Y-13007912D02*
X16659587Y-13026960D01*
X16659587Y-13026960D02*
X16678634Y-13036484D01*
X16678634Y-13036484D02*
X16697682Y-13036484D01*
X16916730Y-12903150D02*
X16916730Y-13103150D01*
X16916730Y-12912674D02*
X16935777Y-12903150D01*
X16935777Y-12903150D02*
X16973873Y-12903150D01*
X16973873Y-12903150D02*
X16992920Y-12912674D01*
X16992920Y-12912674D02*
X17002444Y-12922198D01*
X17002444Y-12922198D02*
X17011968Y-12941246D01*
X17011968Y-12941246D02*
X17011968Y-12998388D01*
X17011968Y-12998388D02*
X17002444Y-13017436D01*
X17002444Y-13017436D02*
X16992920Y-13026960D01*
X16992920Y-13026960D02*
X16973873Y-13036484D01*
X16973873Y-13036484D02*
X16935777Y-13036484D01*
X16935777Y-13036484D02*
X16916730Y-13026960D01*
X17126254Y-13036484D02*
X17107206Y-13026960D01*
X17107206Y-13026960D02*
X17097682Y-13007912D01*
X17097682Y-13007912D02*
X17097682Y-12836484D01*
X17288158Y-13036484D02*
X17288158Y-12931722D01*
X17288158Y-12931722D02*
X17278635Y-12912674D01*
X17278635Y-12912674D02*
X17259587Y-12903150D01*
X17259587Y-12903150D02*
X17221492Y-12903150D01*
X17221492Y-12903150D02*
X17202444Y-12912674D01*
X17288158Y-13026960D02*
X17269111Y-13036484D01*
X17269111Y-13036484D02*
X17221492Y-13036484D01*
X17221492Y-13036484D02*
X17202444Y-13026960D01*
X17202444Y-13026960D02*
X17192920Y-13007912D01*
X17192920Y-13007912D02*
X17192920Y-12988865D01*
X17192920Y-12988865D02*
X17202444Y-12969817D01*
X17202444Y-12969817D02*
X17221492Y-12960293D01*
X17221492Y-12960293D02*
X17269111Y-12960293D01*
X17269111Y-12960293D02*
X17288158Y-12950769D01*
X17354825Y-12903150D02*
X17431015Y-12903150D01*
X17383396Y-12836484D02*
X17383396Y-13007912D01*
X17383396Y-13007912D02*
X17392920Y-13026960D01*
X17392920Y-13026960D02*
X17411968Y-13036484D01*
X17411968Y-13036484D02*
X17431015Y-13036484D01*
X17573873Y-13026960D02*
X17554825Y-13036484D01*
X17554825Y-13036484D02*
X17516730Y-13036484D01*
X17516730Y-13036484D02*
X17497682Y-13026960D01*
X17497682Y-13026960D02*
X17488158Y-13007912D01*
X17488158Y-13007912D02*
X17488158Y-12931722D01*
X17488158Y-12931722D02*
X17497682Y-12912674D01*
X17497682Y-12912674D02*
X17516730Y-12903150D01*
X17516730Y-12903150D02*
X17554825Y-12903150D01*
X17554825Y-12903150D02*
X17573873Y-12912674D01*
X17573873Y-12912674D02*
X17583396Y-12931722D01*
X17583396Y-12931722D02*
X17583396Y-12950769D01*
X17583396Y-12950769D02*
X17488158Y-12969817D01*
X17754825Y-13036484D02*
X17754825Y-12836484D01*
X17754825Y-13026960D02*
X17735777Y-13036484D01*
X17735777Y-13036484D02*
X17697682Y-13036484D01*
X17697682Y-13036484D02*
X17678635Y-13026960D01*
X17678635Y-13026960D02*
X17669111Y-13017436D01*
X17669111Y-13017436D02*
X17659587Y-12998388D01*
X17659587Y-12998388D02*
X17659587Y-12941246D01*
X17659587Y-12941246D02*
X17669111Y-12922198D01*
X17669111Y-12922198D02*
X17678635Y-12912674D01*
X17678635Y-12912674D02*
X17697682Y-12903150D01*
X17697682Y-12903150D02*
X17735777Y-12903150D01*
X17735777Y-12903150D02*
X17754825Y-12912674D01*
X17831016Y-13112674D02*
X17840539Y-13103150D01*
X17840539Y-13103150D02*
X17859587Y-13074579D01*
X17859587Y-13074579D02*
X17869111Y-13055531D01*
X17869111Y-13055531D02*
X17878635Y-13026960D01*
X17878635Y-13026960D02*
X17888158Y-12979341D01*
X17888158Y-12979341D02*
X17888158Y-12941246D01*
X17888158Y-12941246D02*
X17878635Y-12893627D01*
X17878635Y-12893627D02*
X17869111Y-12865055D01*
X17869111Y-12865055D02*
X17859587Y-12846008D01*
X17859587Y-12846008D02*
X17840539Y-12817436D01*
X17840539Y-12817436D02*
X17831016Y-12807912D01*
X11075000Y-13209000D02*
G75*
G02*
X10875000Y-13209000I-100000J0D01*
G01*
X10875000Y-13209000D02*
G75*
G02*
X11075000Y-13209000I100000J0D01*
G01*
X11326253Y-13119531D02*
X11335777Y-13110008D01*
X11335777Y-13110008D02*
X11354824Y-13100484D01*
X11354824Y-13100484D02*
X11402443Y-13100484D01*
X11402443Y-13100484D02*
X11421491Y-13110008D01*
X11421491Y-13110008D02*
X11431015Y-13119531D01*
X11431015Y-13119531D02*
X11440539Y-13138579D01*
X11440539Y-13138579D02*
X11440539Y-13157627D01*
X11440539Y-13157627D02*
X11431015Y-13186198D01*
X11431015Y-13186198D02*
X11316729Y-13300484D01*
X11316729Y-13300484D02*
X11440539Y-13300484D01*
X11526253Y-13281436D02*
X11535777Y-13290960D01*
X11535777Y-13290960D02*
X11526253Y-13300484D01*
X11526253Y-13300484D02*
X11516729Y-13290960D01*
X11516729Y-13290960D02*
X11526253Y-13281436D01*
X11526253Y-13281436D02*
X11526253Y-13300484D01*
X11602443Y-13100484D02*
X11735777Y-13100484D01*
X11735777Y-13100484D02*
X11650062Y-13300484D01*
X11850062Y-13100484D02*
X11869110Y-13100484D01*
X11869110Y-13100484D02*
X11888158Y-13110008D01*
X11888158Y-13110008D02*
X11897682Y-13119531D01*
X11897682Y-13119531D02*
X11907205Y-13138579D01*
X11907205Y-13138579D02*
X11916729Y-13176674D01*
X11916729Y-13176674D02*
X11916729Y-13224293D01*
X11916729Y-13224293D02*
X11907205Y-13262388D01*
X11907205Y-13262388D02*
X11897682Y-13281436D01*
X11897682Y-13281436D02*
X11888158Y-13290960D01*
X11888158Y-13290960D02*
X11869110Y-13300484D01*
X11869110Y-13300484D02*
X11850062Y-13300484D01*
X11850062Y-13300484D02*
X11831015Y-13290960D01*
X11831015Y-13290960D02*
X11821491Y-13281436D01*
X11821491Y-13281436D02*
X11811967Y-13262388D01*
X11811967Y-13262388D02*
X11802443Y-13224293D01*
X11802443Y-13224293D02*
X11802443Y-13176674D01*
X11802443Y-13176674D02*
X11811967Y-13138579D01*
X11811967Y-13138579D02*
X11821491Y-13119531D01*
X11821491Y-13119531D02*
X11831015Y-13110008D01*
X11831015Y-13110008D02*
X11850062Y-13100484D01*
X12040539Y-13100484D02*
X12059586Y-13100484D01*
X12059586Y-13100484D02*
X12078634Y-13110008D01*
X12078634Y-13110008D02*
X12088158Y-13119531D01*
X12088158Y-13119531D02*
X12097682Y-13138579D01*
X12097682Y-13138579D02*
X12107205Y-13176674D01*
X12107205Y-13176674D02*
X12107205Y-13224293D01*
X12107205Y-13224293D02*
X12097682Y-13262388D01*
X12097682Y-13262388D02*
X12088158Y-13281436D01*
X12088158Y-13281436D02*
X12078634Y-13290960D01*
X12078634Y-13290960D02*
X12059586Y-13300484D01*
X12059586Y-13300484D02*
X12040539Y-13300484D01*
X12040539Y-13300484D02*
X12021491Y-13290960D01*
X12021491Y-13290960D02*
X12011967Y-13281436D01*
X12011967Y-13281436D02*
X12002443Y-13262388D01*
X12002443Y-13262388D02*
X11992920Y-13224293D01*
X11992920Y-13224293D02*
X11992920Y-13176674D01*
X11992920Y-13176674D02*
X12002443Y-13138579D01*
X12002443Y-13138579D02*
X12011967Y-13119531D01*
X12011967Y-13119531D02*
X12021491Y-13110008D01*
X12021491Y-13110008D02*
X12040539Y-13100484D01*
X12192920Y-13300484D02*
X12192920Y-13167150D01*
X12192920Y-13186198D02*
X12202443Y-13176674D01*
X12202443Y-13176674D02*
X12221491Y-13167150D01*
X12221491Y-13167150D02*
X12250063Y-13167150D01*
X12250063Y-13167150D02*
X12269110Y-13176674D01*
X12269110Y-13176674D02*
X12278634Y-13195722D01*
X12278634Y-13195722D02*
X12278634Y-13300484D01*
X12278634Y-13195722D02*
X12288158Y-13176674D01*
X12288158Y-13176674D02*
X12307205Y-13167150D01*
X12307205Y-13167150D02*
X12335777Y-13167150D01*
X12335777Y-13167150D02*
X12354824Y-13176674D01*
X12354824Y-13176674D02*
X12364348Y-13195722D01*
X12364348Y-13195722D02*
X12364348Y-13300484D01*
X12459586Y-13300484D02*
X12459586Y-13167150D01*
X12459586Y-13186198D02*
X12469110Y-13176674D01*
X12469110Y-13176674D02*
X12488158Y-13167150D01*
X12488158Y-13167150D02*
X12516729Y-13167150D01*
X12516729Y-13167150D02*
X12535777Y-13176674D01*
X12535777Y-13176674D02*
X12545301Y-13195722D01*
X12545301Y-13195722D02*
X12545301Y-13300484D01*
X12545301Y-13195722D02*
X12554824Y-13176674D01*
X12554824Y-13176674D02*
X12573872Y-13167150D01*
X12573872Y-13167150D02*
X12602443Y-13167150D01*
X12602443Y-13167150D02*
X12621491Y-13176674D01*
X12621491Y-13176674D02*
X12631015Y-13195722D01*
X12631015Y-13195722D02*
X12631015Y-13300484D01*
X13021491Y-13090960D02*
X12850063Y-13348103D01*
X13278634Y-13100484D02*
X13297682Y-13100484D01*
X13297682Y-13100484D02*
X13316729Y-13110008D01*
X13316729Y-13110008D02*
X13326253Y-13119531D01*
X13326253Y-13119531D02*
X13335777Y-13138579D01*
X13335777Y-13138579D02*
X13345301Y-13176674D01*
X13345301Y-13176674D02*
X13345301Y-13224293D01*
X13345301Y-13224293D02*
X13335777Y-13262388D01*
X13335777Y-13262388D02*
X13326253Y-13281436D01*
X13326253Y-13281436D02*
X13316729Y-13290960D01*
X13316729Y-13290960D02*
X13297682Y-13300484D01*
X13297682Y-13300484D02*
X13278634Y-13300484D01*
X13278634Y-13300484D02*
X13259586Y-13290960D01*
X13259586Y-13290960D02*
X13250063Y-13281436D01*
X13250063Y-13281436D02*
X13240539Y-13262388D01*
X13240539Y-13262388D02*
X13231015Y-13224293D01*
X13231015Y-13224293D02*
X13231015Y-13176674D01*
X13231015Y-13176674D02*
X13240539Y-13138579D01*
X13240539Y-13138579D02*
X13250063Y-13119531D01*
X13250063Y-13119531D02*
X13259586Y-13110008D01*
X13259586Y-13110008D02*
X13278634Y-13100484D01*
X13431015Y-13281436D02*
X13440539Y-13290960D01*
X13440539Y-13290960D02*
X13431015Y-13300484D01*
X13431015Y-13300484D02*
X13421491Y-13290960D01*
X13421491Y-13290960D02*
X13431015Y-13281436D01*
X13431015Y-13281436D02*
X13431015Y-13300484D01*
X13631015Y-13300484D02*
X13516729Y-13300484D01*
X13573872Y-13300484D02*
X13573872Y-13100484D01*
X13573872Y-13100484D02*
X13554825Y-13129055D01*
X13554825Y-13129055D02*
X13535777Y-13148103D01*
X13535777Y-13148103D02*
X13516729Y-13157627D01*
X13754825Y-13100484D02*
X13773872Y-13100484D01*
X13773872Y-13100484D02*
X13792920Y-13110008D01*
X13792920Y-13110008D02*
X13802444Y-13119531D01*
X13802444Y-13119531D02*
X13811967Y-13138579D01*
X13811967Y-13138579D02*
X13821491Y-13176674D01*
X13821491Y-13176674D02*
X13821491Y-13224293D01*
X13821491Y-13224293D02*
X13811967Y-13262388D01*
X13811967Y-13262388D02*
X13802444Y-13281436D01*
X13802444Y-13281436D02*
X13792920Y-13290960D01*
X13792920Y-13290960D02*
X13773872Y-13300484D01*
X13773872Y-13300484D02*
X13754825Y-13300484D01*
X13754825Y-13300484D02*
X13735777Y-13290960D01*
X13735777Y-13290960D02*
X13726253Y-13281436D01*
X13726253Y-13281436D02*
X13716729Y-13262388D01*
X13716729Y-13262388D02*
X13707206Y-13224293D01*
X13707206Y-13224293D02*
X13707206Y-13176674D01*
X13707206Y-13176674D02*
X13716729Y-13138579D01*
X13716729Y-13138579D02*
X13726253Y-13119531D01*
X13726253Y-13119531D02*
X13735777Y-13110008D01*
X13735777Y-13110008D02*
X13754825Y-13100484D01*
X13992920Y-13100484D02*
X13954825Y-13100484D01*
X13954825Y-13100484D02*
X13935777Y-13110008D01*
X13935777Y-13110008D02*
X13926253Y-13119531D01*
X13926253Y-13119531D02*
X13907206Y-13148103D01*
X13907206Y-13148103D02*
X13897682Y-13186198D01*
X13897682Y-13186198D02*
X13897682Y-13262388D01*
X13897682Y-13262388D02*
X13907206Y-13281436D01*
X13907206Y-13281436D02*
X13916729Y-13290960D01*
X13916729Y-13290960D02*
X13935777Y-13300484D01*
X13935777Y-13300484D02*
X13973872Y-13300484D01*
X13973872Y-13300484D02*
X13992920Y-13290960D01*
X13992920Y-13290960D02*
X14002444Y-13281436D01*
X14002444Y-13281436D02*
X14011967Y-13262388D01*
X14011967Y-13262388D02*
X14011967Y-13214769D01*
X14011967Y-13214769D02*
X14002444Y-13195722D01*
X14002444Y-13195722D02*
X13992920Y-13186198D01*
X13992920Y-13186198D02*
X13973872Y-13176674D01*
X13973872Y-13176674D02*
X13935777Y-13176674D01*
X13935777Y-13176674D02*
X13916729Y-13186198D01*
X13916729Y-13186198D02*
X13907206Y-13195722D01*
X13907206Y-13195722D02*
X13897682Y-13214769D01*
X14078634Y-13100484D02*
X14202444Y-13100484D01*
X14202444Y-13100484D02*
X14135777Y-13176674D01*
X14135777Y-13176674D02*
X14164348Y-13176674D01*
X14164348Y-13176674D02*
X14183396Y-13186198D01*
X14183396Y-13186198D02*
X14192920Y-13195722D01*
X14192920Y-13195722D02*
X14202444Y-13214769D01*
X14202444Y-13214769D02*
X14202444Y-13262388D01*
X14202444Y-13262388D02*
X14192920Y-13281436D01*
X14192920Y-13281436D02*
X14183396Y-13290960D01*
X14183396Y-13290960D02*
X14164348Y-13300484D01*
X14164348Y-13300484D02*
X14107206Y-13300484D01*
X14107206Y-13300484D02*
X14088158Y-13290960D01*
X14088158Y-13290960D02*
X14078634Y-13281436D01*
X14278634Y-13100484D02*
X14278634Y-13138579D01*
X14354825Y-13100484D02*
X14354825Y-13138579D01*
X14650063Y-13376674D02*
X14640539Y-13367150D01*
X14640539Y-13367150D02*
X14621491Y-13338579D01*
X14621491Y-13338579D02*
X14611968Y-13319531D01*
X14611968Y-13319531D02*
X14602444Y-13290960D01*
X14602444Y-13290960D02*
X14592920Y-13243341D01*
X14592920Y-13243341D02*
X14592920Y-13205246D01*
X14592920Y-13205246D02*
X14602444Y-13157627D01*
X14602444Y-13157627D02*
X14611968Y-13129055D01*
X14611968Y-13129055D02*
X14621491Y-13110008D01*
X14621491Y-13110008D02*
X14640539Y-13081436D01*
X14640539Y-13081436D02*
X14650063Y-13071912D01*
X14716729Y-13119531D02*
X14726253Y-13110008D01*
X14726253Y-13110008D02*
X14745301Y-13100484D01*
X14745301Y-13100484D02*
X14792920Y-13100484D01*
X14792920Y-13100484D02*
X14811968Y-13110008D01*
X14811968Y-13110008D02*
X14821491Y-13119531D01*
X14821491Y-13119531D02*
X14831015Y-13138579D01*
X14831015Y-13138579D02*
X14831015Y-13157627D01*
X14831015Y-13157627D02*
X14821491Y-13186198D01*
X14821491Y-13186198D02*
X14707206Y-13300484D01*
X14707206Y-13300484D02*
X14831015Y-13300484D01*
X15069110Y-13300484D02*
X15069110Y-13100484D01*
X15154825Y-13300484D02*
X15154825Y-13195722D01*
X15154825Y-13195722D02*
X15145301Y-13176674D01*
X15145301Y-13176674D02*
X15126253Y-13167150D01*
X15126253Y-13167150D02*
X15097682Y-13167150D01*
X15097682Y-13167150D02*
X15078634Y-13176674D01*
X15078634Y-13176674D02*
X15069110Y-13186198D01*
X15278634Y-13300484D02*
X15259587Y-13290960D01*
X15259587Y-13290960D02*
X15250063Y-13281436D01*
X15250063Y-13281436D02*
X15240539Y-13262388D01*
X15240539Y-13262388D02*
X15240539Y-13205246D01*
X15240539Y-13205246D02*
X15250063Y-13186198D01*
X15250063Y-13186198D02*
X15259587Y-13176674D01*
X15259587Y-13176674D02*
X15278634Y-13167150D01*
X15278634Y-13167150D02*
X15307206Y-13167150D01*
X15307206Y-13167150D02*
X15326253Y-13176674D01*
X15326253Y-13176674D02*
X15335777Y-13186198D01*
X15335777Y-13186198D02*
X15345301Y-13205246D01*
X15345301Y-13205246D02*
X15345301Y-13262388D01*
X15345301Y-13262388D02*
X15335777Y-13281436D01*
X15335777Y-13281436D02*
X15326253Y-13290960D01*
X15326253Y-13290960D02*
X15307206Y-13300484D01*
X15307206Y-13300484D02*
X15278634Y-13300484D01*
X15459587Y-13300484D02*
X15440539Y-13290960D01*
X15440539Y-13290960D02*
X15431015Y-13271912D01*
X15431015Y-13271912D02*
X15431015Y-13100484D01*
X15611968Y-13290960D02*
X15592920Y-13300484D01*
X15592920Y-13300484D02*
X15554825Y-13300484D01*
X15554825Y-13300484D02*
X15535777Y-13290960D01*
X15535777Y-13290960D02*
X15526253Y-13271912D01*
X15526253Y-13271912D02*
X15526253Y-13195722D01*
X15526253Y-13195722D02*
X15535777Y-13176674D01*
X15535777Y-13176674D02*
X15554825Y-13167150D01*
X15554825Y-13167150D02*
X15592920Y-13167150D01*
X15592920Y-13167150D02*
X15611968Y-13176674D01*
X15611968Y-13176674D02*
X15621491Y-13195722D01*
X15621491Y-13195722D02*
X15621491Y-13214769D01*
X15621491Y-13214769D02*
X15526253Y-13233817D01*
X15697682Y-13290960D02*
X15716730Y-13300484D01*
X15716730Y-13300484D02*
X15754825Y-13300484D01*
X15754825Y-13300484D02*
X15773872Y-13290960D01*
X15773872Y-13290960D02*
X15783396Y-13271912D01*
X15783396Y-13271912D02*
X15783396Y-13262388D01*
X15783396Y-13262388D02*
X15773872Y-13243341D01*
X15773872Y-13243341D02*
X15754825Y-13233817D01*
X15754825Y-13233817D02*
X15726253Y-13233817D01*
X15726253Y-13233817D02*
X15707206Y-13224293D01*
X15707206Y-13224293D02*
X15697682Y-13205246D01*
X15697682Y-13205246D02*
X15697682Y-13195722D01*
X15697682Y-13195722D02*
X15707206Y-13176674D01*
X15707206Y-13176674D02*
X15726253Y-13167150D01*
X15726253Y-13167150D02*
X15754825Y-13167150D01*
X15754825Y-13167150D02*
X15773872Y-13176674D01*
X15850063Y-13376674D02*
X15859587Y-13367150D01*
X15859587Y-13367150D02*
X15878634Y-13338579D01*
X15878634Y-13338579D02*
X15888158Y-13319531D01*
X15888158Y-13319531D02*
X15897682Y-13290960D01*
X15897682Y-13290960D02*
X15907206Y-13243341D01*
X15907206Y-13243341D02*
X15907206Y-13205246D01*
X15907206Y-13205246D02*
X15897682Y-13157627D01*
X15897682Y-13157627D02*
X15888158Y-13129055D01*
X15888158Y-13129055D02*
X15878634Y-13110008D01*
X15878634Y-13110008D02*
X15859587Y-13081436D01*
X15859587Y-13081436D02*
X15850063Y-13071912D01*
X16211968Y-13376674D02*
X16202444Y-13367150D01*
X16202444Y-13367150D02*
X16183396Y-13338579D01*
X16183396Y-13338579D02*
X16173872Y-13319531D01*
X16173872Y-13319531D02*
X16164349Y-13290960D01*
X16164349Y-13290960D02*
X16154825Y-13243341D01*
X16154825Y-13243341D02*
X16154825Y-13205246D01*
X16154825Y-13205246D02*
X16164349Y-13157627D01*
X16164349Y-13157627D02*
X16173872Y-13129055D01*
X16173872Y-13129055D02*
X16183396Y-13110008D01*
X16183396Y-13110008D02*
X16202444Y-13081436D01*
X16202444Y-13081436D02*
X16211968Y-13071912D01*
X16288158Y-13167150D02*
X16288158Y-13300484D01*
X16288158Y-13186198D02*
X16297682Y-13176674D01*
X16297682Y-13176674D02*
X16316730Y-13167150D01*
X16316730Y-13167150D02*
X16345301Y-13167150D01*
X16345301Y-13167150D02*
X16364349Y-13176674D01*
X16364349Y-13176674D02*
X16373872Y-13195722D01*
X16373872Y-13195722D02*
X16373872Y-13300484D01*
X16497682Y-13300484D02*
X16478634Y-13290960D01*
X16478634Y-13290960D02*
X16469111Y-13281436D01*
X16469111Y-13281436D02*
X16459587Y-13262388D01*
X16459587Y-13262388D02*
X16459587Y-13205246D01*
X16459587Y-13205246D02*
X16469111Y-13186198D01*
X16469111Y-13186198D02*
X16478634Y-13176674D01*
X16478634Y-13176674D02*
X16497682Y-13167150D01*
X16497682Y-13167150D02*
X16526253Y-13167150D01*
X16526253Y-13167150D02*
X16545301Y-13176674D01*
X16545301Y-13176674D02*
X16554825Y-13186198D01*
X16554825Y-13186198D02*
X16564349Y-13205246D01*
X16564349Y-13205246D02*
X16564349Y-13262388D01*
X16564349Y-13262388D02*
X16554825Y-13281436D01*
X16554825Y-13281436D02*
X16545301Y-13290960D01*
X16545301Y-13290960D02*
X16526253Y-13300484D01*
X16526253Y-13300484D02*
X16497682Y-13300484D01*
X16621492Y-13167150D02*
X16697682Y-13167150D01*
X16650063Y-13100484D02*
X16650063Y-13271912D01*
X16650063Y-13271912D02*
X16659587Y-13290960D01*
X16659587Y-13290960D02*
X16678634Y-13300484D01*
X16678634Y-13300484D02*
X16697682Y-13300484D01*
X16916730Y-13167150D02*
X16916730Y-13367150D01*
X16916730Y-13176674D02*
X16935777Y-13167150D01*
X16935777Y-13167150D02*
X16973873Y-13167150D01*
X16973873Y-13167150D02*
X16992920Y-13176674D01*
X16992920Y-13176674D02*
X17002444Y-13186198D01*
X17002444Y-13186198D02*
X17011968Y-13205246D01*
X17011968Y-13205246D02*
X17011968Y-13262388D01*
X17011968Y-13262388D02*
X17002444Y-13281436D01*
X17002444Y-13281436D02*
X16992920Y-13290960D01*
X16992920Y-13290960D02*
X16973873Y-13300484D01*
X16973873Y-13300484D02*
X16935777Y-13300484D01*
X16935777Y-13300484D02*
X16916730Y-13290960D01*
X17126254Y-13300484D02*
X17107206Y-13290960D01*
X17107206Y-13290960D02*
X17097682Y-13271912D01*
X17097682Y-13271912D02*
X17097682Y-13100484D01*
X17288158Y-13300484D02*
X17288158Y-13195722D01*
X17288158Y-13195722D02*
X17278635Y-13176674D01*
X17278635Y-13176674D02*
X17259587Y-13167150D01*
X17259587Y-13167150D02*
X17221492Y-13167150D01*
X17221492Y-13167150D02*
X17202444Y-13176674D01*
X17288158Y-13290960D02*
X17269111Y-13300484D01*
X17269111Y-13300484D02*
X17221492Y-13300484D01*
X17221492Y-13300484D02*
X17202444Y-13290960D01*
X17202444Y-13290960D02*
X17192920Y-13271912D01*
X17192920Y-13271912D02*
X17192920Y-13252865D01*
X17192920Y-13252865D02*
X17202444Y-13233817D01*
X17202444Y-13233817D02*
X17221492Y-13224293D01*
X17221492Y-13224293D02*
X17269111Y-13224293D01*
X17269111Y-13224293D02*
X17288158Y-13214769D01*
X17354825Y-13167150D02*
X17431015Y-13167150D01*
X17383396Y-13100484D02*
X17383396Y-13271912D01*
X17383396Y-13271912D02*
X17392920Y-13290960D01*
X17392920Y-13290960D02*
X17411968Y-13300484D01*
X17411968Y-13300484D02*
X17431015Y-13300484D01*
X17573873Y-13290960D02*
X17554825Y-13300484D01*
X17554825Y-13300484D02*
X17516730Y-13300484D01*
X17516730Y-13300484D02*
X17497682Y-13290960D01*
X17497682Y-13290960D02*
X17488158Y-13271912D01*
X17488158Y-13271912D02*
X17488158Y-13195722D01*
X17488158Y-13195722D02*
X17497682Y-13176674D01*
X17497682Y-13176674D02*
X17516730Y-13167150D01*
X17516730Y-13167150D02*
X17554825Y-13167150D01*
X17554825Y-13167150D02*
X17573873Y-13176674D01*
X17573873Y-13176674D02*
X17583396Y-13195722D01*
X17583396Y-13195722D02*
X17583396Y-13214769D01*
X17583396Y-13214769D02*
X17488158Y-13233817D01*
X17754825Y-13300484D02*
X17754825Y-13100484D01*
X17754825Y-13290960D02*
X17735777Y-13300484D01*
X17735777Y-13300484D02*
X17697682Y-13300484D01*
X17697682Y-13300484D02*
X17678635Y-13290960D01*
X17678635Y-13290960D02*
X17669111Y-13281436D01*
X17669111Y-13281436D02*
X17659587Y-13262388D01*
X17659587Y-13262388D02*
X17659587Y-13205246D01*
X17659587Y-13205246D02*
X17669111Y-13186198D01*
X17669111Y-13186198D02*
X17678635Y-13176674D01*
X17678635Y-13176674D02*
X17697682Y-13167150D01*
X17697682Y-13167150D02*
X17735777Y-13167150D01*
X17735777Y-13167150D02*
X17754825Y-13176674D01*
X17831016Y-13376674D02*
X17840539Y-13367150D01*
X17840539Y-13367150D02*
X17859587Y-13338579D01*
X17859587Y-13338579D02*
X17869111Y-13319531D01*
X17869111Y-13319531D02*
X17878635Y-13290960D01*
X17878635Y-13290960D02*
X17888158Y-13243341D01*
X17888158Y-13243341D02*
X17888158Y-13205246D01*
X17888158Y-13205246D02*
X17878635Y-13157627D01*
X17878635Y-13157627D02*
X17869111Y-13129055D01*
X17869111Y-13129055D02*
X17859587Y-13110008D01*
X17859587Y-13110008D02*
X17840539Y-13081436D01*
X17840539Y-13081436D02*
X17831016Y-13071912D01*
M02*
