G04 #@! TF.GenerationSoftware,KiCad,Pcbnew,9.0.0*
G04 #@! TF.CreationDate,2025-04-02T18:41:46+03:00*
G04 #@! TF.ProjectId,bbq20_keyboard,62627132-305f-46b6-9579-626f6172642e,2*
G04 #@! TF.SameCoordinates,Original*
G04 #@! TF.FileFunction,Paste,Bot*
G04 #@! TF.FilePolarity,Positive*
%FSLAX46Y46*%
G04 Gerber Fmt 4.6, Leading zero omitted, Abs format (unit mm)*
G04 Created by KiCad (PCBNEW 9.0.0) date 2025-04-02 18:41:46*
%MOMM*%
%LPD*%
G01*
G04 APERTURE LIST*
G04 Aperture macros list*
%AMRoundRect*
0 Rectangle with rounded corners*
0 $1 Rounding radius*
0 $2 $3 $4 $5 $6 $7 $8 $9 X,Y pos of 4 corners*
0 Add a 4 corners polygon primitive as box body*
4,1,4,$2,$3,$4,$5,$6,$7,$8,$9,$2,$3,0*
0 Add four circle primitives for the rounded corners*
1,1,$1+$1,$2,$3*
1,1,$1+$1,$4,$5*
1,1,$1+$1,$6,$7*
1,1,$1+$1,$8,$9*
0 Add four rect primitives between the rounded corners*
20,1,$1+$1,$2,$3,$4,$5,0*
20,1,$1+$1,$4,$5,$6,$7,0*
20,1,$1+$1,$6,$7,$8,$9,0*
20,1,$1+$1,$8,$9,$2,$3,0*%
G04 Aperture macros list end*
%ADD10RoundRect,0.200000X0.275000X-0.200000X0.275000X0.200000X-0.275000X0.200000X-0.275000X-0.200000X0*%
%ADD11RoundRect,0.225000X-0.250000X0.225000X-0.250000X-0.225000X0.250000X-0.225000X0.250000X0.225000X0*%
%ADD12RoundRect,0.200000X-0.275000X0.200000X-0.275000X-0.200000X0.275000X-0.200000X0.275000X0.200000X0*%
%ADD13RoundRect,0.150000X-0.587500X-0.150000X0.587500X-0.150000X0.587500X0.150000X-0.587500X0.150000X0*%
%ADD14RoundRect,0.200000X-0.200000X-0.275000X0.200000X-0.275000X0.200000X0.275000X-0.200000X0.275000X0*%
%ADD15RoundRect,0.225000X0.250000X-0.225000X0.250000X0.225000X-0.250000X0.225000X-0.250000X-0.225000X0*%
%ADD16RoundRect,0.225000X-0.225000X-0.250000X0.225000X-0.250000X0.225000X0.250000X-0.225000X0.250000X0*%
%ADD17RoundRect,0.150000X0.712500X0.150000X-0.712500X0.150000X-0.712500X-0.150000X0.712500X-0.150000X0*%
%ADD18RoundRect,0.250000X0.315000X0.315000X-0.315000X0.315000X-0.315000X-0.315000X0.315000X-0.315000X0*%
%ADD19O,0.875000X0.200000*%
%ADD20O,0.200000X0.875000*%
%ADD21R,0.800000X0.800000*%
%ADD22RoundRect,0.200000X0.200000X0.275000X-0.200000X0.275000X-0.200000X-0.275000X0.200000X-0.275000X0*%
%ADD23RoundRect,0.150000X0.512500X0.150000X-0.512500X0.150000X-0.512500X-0.150000X0.512500X-0.150000X0*%
%ADD24RoundRect,0.150000X-0.150000X-0.625000X0.150000X-0.625000X0.150000X0.625000X-0.150000X0.625000X0*%
%ADD25RoundRect,0.250000X-0.350000X-0.650000X0.350000X-0.650000X0.350000X0.650000X-0.350000X0.650000X0*%
%ADD26R,0.600000X0.450000*%
%ADD27RoundRect,0.225000X0.225000X0.250000X-0.225000X0.250000X-0.225000X-0.250000X0.225000X-0.250000X0*%
%ADD28R,0.600000X1.450000*%
%ADD29R,0.300000X1.450000*%
%ADD30R,1.150000X1.000000*%
G04 APERTURE END LIST*
D10*
G04 #@! TO.C,R5*
X146250002Y-90325000D03*
X146250002Y-88675000D03*
G04 #@! TD*
D11*
G04 #@! TO.C,C15*
X129750000Y-86575000D03*
X129750000Y-88125000D03*
G04 #@! TD*
D12*
G04 #@! TO.C,R11*
X129737500Y-100425001D03*
X129737500Y-102075001D03*
G04 #@! TD*
G04 #@! TO.C,R21*
X165900000Y-87575000D03*
X165900000Y-89225000D03*
G04 #@! TD*
D13*
G04 #@! TO.C,Q4*
X131500000Y-95200000D03*
X131500000Y-93300000D03*
X133375000Y-94250000D03*
G04 #@! TD*
D12*
G04 #@! TO.C,R15*
X129737500Y-107225000D03*
X129737500Y-108875000D03*
G04 #@! TD*
D13*
G04 #@! TO.C,Q3*
X131500000Y-105400001D03*
X131500000Y-103500001D03*
X133375000Y-104450001D03*
G04 #@! TD*
D10*
G04 #@! TO.C,R17*
X135137500Y-112275001D03*
X135137500Y-110625001D03*
G04 #@! TD*
D14*
G04 #@! TO.C,R19*
X140975000Y-92500000D03*
X142625000Y-92500000D03*
G04 #@! TD*
D15*
G04 #@! TO.C,C8*
X150750002Y-90275000D03*
X150750002Y-88725000D03*
G04 #@! TD*
D11*
G04 #@! TO.C,C10*
X142600000Y-84925000D03*
X142600000Y-86475000D03*
G04 #@! TD*
D13*
G04 #@! TO.C,Q1*
X131500000Y-98600000D03*
X131500000Y-96700000D03*
X133375000Y-97650000D03*
G04 #@! TD*
D15*
G04 #@! TO.C,C12*
X153500000Y-104675000D03*
X153500000Y-103125000D03*
G04 #@! TD*
D16*
G04 #@! TO.C,C2*
X153825000Y-97600000D03*
X155375000Y-97600000D03*
G04 #@! TD*
D10*
G04 #@! TO.C,R16*
X129737500Y-95050001D03*
X129737500Y-93400001D03*
G04 #@! TD*
D13*
G04 #@! TO.C,Q5*
X131500000Y-108800001D03*
X131500000Y-106900001D03*
X133375000Y-107850001D03*
G04 #@! TD*
D17*
G04 #@! TO.C,U3*
X160536250Y-87590000D03*
X160536250Y-88860000D03*
X160536250Y-90130000D03*
X160536250Y-91400000D03*
X153311250Y-91400000D03*
X153311250Y-90130000D03*
X153311250Y-88860000D03*
X153311250Y-87590000D03*
G04 #@! TD*
D18*
G04 #@! TO.C,U1*
X148900000Y-97300000D03*
X148900000Y-95900000D03*
X147500000Y-97300000D03*
X147500000Y-95900000D03*
D19*
X151637500Y-94000000D03*
X151637500Y-94400000D03*
X151637500Y-94800000D03*
X151637500Y-95200000D03*
X151637500Y-95600000D03*
X151637500Y-96000000D03*
X151637500Y-96400000D03*
X151637500Y-96800000D03*
X151637500Y-97200000D03*
X151637500Y-97600000D03*
X151637500Y-98000000D03*
X151637500Y-98400000D03*
X151637500Y-98800000D03*
X151637500Y-99200000D03*
D20*
X150800000Y-100037500D03*
X150400000Y-100037500D03*
X150000000Y-100037500D03*
X149600000Y-100037500D03*
X149200000Y-100037500D03*
X148800000Y-100037500D03*
X148400000Y-100037500D03*
X148000000Y-100037500D03*
X147600000Y-100037500D03*
X147200000Y-100037500D03*
X146800000Y-100037500D03*
X146400000Y-100037500D03*
X146000000Y-100037500D03*
X145600000Y-100037500D03*
D19*
X144762500Y-99200000D03*
X144762500Y-98800000D03*
X144762500Y-98400000D03*
X144762500Y-98000000D03*
X144762500Y-97600000D03*
X144762500Y-97200000D03*
X144762500Y-96800000D03*
X144762500Y-96400000D03*
X144762500Y-96000000D03*
X144762500Y-95600000D03*
X144762500Y-95200000D03*
X144762500Y-94800000D03*
X144762500Y-94400000D03*
X144762500Y-94000000D03*
D20*
X145600000Y-93162500D03*
X146000000Y-93162500D03*
X146400000Y-93162500D03*
X146800000Y-93162500D03*
X147200000Y-93162500D03*
X147600000Y-93162500D03*
X148000000Y-93162500D03*
X148400000Y-93162500D03*
X148800000Y-93162500D03*
X149200000Y-93162500D03*
X149600000Y-93162500D03*
X150000000Y-93162500D03*
X150400000Y-93162500D03*
X150800000Y-93162500D03*
D21*
X149400000Y-97800000D03*
X149400000Y-97000000D03*
X149400000Y-96200000D03*
X149400000Y-95400000D03*
X148600000Y-97800000D03*
X148600000Y-97000000D03*
X148600000Y-96200000D03*
X148600000Y-95400000D03*
X147800000Y-97800000D03*
X147800000Y-97000000D03*
X147800000Y-96200000D03*
X147800000Y-95400000D03*
X147000000Y-97800000D03*
X147000000Y-97000000D03*
X147000000Y-96200000D03*
X147000000Y-95400000D03*
G04 #@! TD*
D11*
G04 #@! TO.C,C13*
X148500000Y-103124999D03*
X148500000Y-104674999D03*
G04 #@! TD*
D10*
G04 #@! TO.C,R8*
X135137500Y-98675000D03*
X135137500Y-97025000D03*
G04 #@! TD*
D22*
G04 #@! TO.C,R20*
X142625000Y-91000000D03*
X140975000Y-91000000D03*
G04 #@! TD*
D12*
G04 #@! TO.C,R22*
X147000000Y-103075000D03*
X147000000Y-104725000D03*
G04 #@! TD*
D11*
G04 #@! TO.C,C7*
X143324999Y-102725481D03*
X143324999Y-104275481D03*
G04 #@! TD*
D12*
G04 #@! TO.C,R18*
X129737500Y-110625001D03*
X129737500Y-112275001D03*
G04 #@! TD*
D23*
G04 #@! TO.C,U5*
X133687500Y-89850000D03*
X133687500Y-90800000D03*
X133687500Y-91750000D03*
X131412500Y-91750000D03*
X131412500Y-89850000D03*
G04 #@! TD*
D10*
G04 #@! TO.C,R12*
X135137500Y-105475001D03*
X135137500Y-103825001D03*
G04 #@! TD*
D11*
G04 #@! TO.C,C3*
X144824999Y-102725481D03*
X144824999Y-104275481D03*
G04 #@! TD*
D23*
G04 #@! TO.C,U2*
X140937500Y-84750000D03*
X140937500Y-85700000D03*
X140937500Y-86650000D03*
X138662500Y-86650000D03*
X138662500Y-84750000D03*
G04 #@! TD*
D10*
G04 #@! TO.C,R4*
X141824999Y-104325481D03*
X141824999Y-102675481D03*
G04 #@! TD*
D16*
G04 #@! TO.C,C1*
X153825000Y-93700000D03*
X155375000Y-93700000D03*
G04 #@! TD*
D24*
G04 #@! TO.C,J1*
X130700000Y-75150000D03*
X131700000Y-75150000D03*
X132700000Y-75150000D03*
X133700000Y-75150000D03*
D25*
X129400000Y-71275000D03*
X135000000Y-71275000D03*
G04 #@! TD*
D10*
G04 #@! TO.C,R6*
X147750000Y-90325000D03*
X147750000Y-88675000D03*
G04 #@! TD*
D15*
G04 #@! TO.C,C11*
X136962499Y-86475000D03*
X136962499Y-84925000D03*
G04 #@! TD*
D10*
G04 #@! TO.C,R7*
X162900000Y-89225000D03*
X162900000Y-87575000D03*
G04 #@! TD*
D26*
G04 #@! TO.C,D1*
X140850000Y-83000000D03*
X138750000Y-83000000D03*
G04 #@! TD*
D15*
G04 #@! TO.C,C6*
X149250002Y-90275000D03*
X149250002Y-88725000D03*
G04 #@! TD*
D27*
G04 #@! TO.C,C4*
X142575000Y-97600000D03*
X141025000Y-97600000D03*
G04 #@! TD*
D11*
G04 #@! TO.C,C14*
X129750000Y-90025000D03*
X129750000Y-91575000D03*
G04 #@! TD*
D10*
G04 #@! TO.C,R1*
X146500000Y-82125000D03*
X146500000Y-80475000D03*
G04 #@! TD*
D28*
G04 #@! TO.C,J3*
X144550000Y-78145000D03*
X145350000Y-78145000D03*
D29*
X146550000Y-78145000D03*
X147550000Y-78145000D03*
X148050000Y-78145000D03*
X149050000Y-78145000D03*
D28*
X150250000Y-78145000D03*
X151050000Y-78145000D03*
X151050000Y-78145000D03*
X150250000Y-78145000D03*
D29*
X149550000Y-78145000D03*
X148550000Y-78145000D03*
X147050000Y-78145000D03*
X146050000Y-78145000D03*
D28*
X145350000Y-78145000D03*
X144550000Y-78145000D03*
G04 #@! TD*
D30*
G04 #@! TO.C,Y1*
X150125000Y-103200000D03*
X151875000Y-103200000D03*
X151875000Y-104600000D03*
X150125000Y-104600000D03*
G04 #@! TD*
D13*
G04 #@! TO.C,Q2*
X131500000Y-102000001D03*
X131500000Y-100100001D03*
X133375000Y-101050001D03*
G04 #@! TD*
D12*
G04 #@! TO.C,R13*
X129737500Y-103825001D03*
X129737500Y-105475001D03*
G04 #@! TD*
D10*
G04 #@! TO.C,R14*
X135137500Y-108875000D03*
X135137500Y-107225000D03*
G04 #@! TD*
G04 #@! TO.C,R2*
X149600000Y-82125000D03*
X149600000Y-80475000D03*
G04 #@! TD*
G04 #@! TO.C,R3*
X164400000Y-89220000D03*
X164400000Y-87570000D03*
G04 #@! TD*
D27*
G04 #@! TO.C,C5*
X142575000Y-94000000D03*
X141025000Y-94000000D03*
G04 #@! TD*
D13*
G04 #@! TO.C,Q6*
X131500000Y-112200001D03*
X131500000Y-110300001D03*
X133375000Y-111250001D03*
G04 #@! TD*
D23*
G04 #@! TO.C,U6*
X133687500Y-86400000D03*
X133687500Y-87350000D03*
X133687500Y-88300000D03*
X131412500Y-88300000D03*
X131412500Y-86400000D03*
G04 #@! TD*
D15*
G04 #@! TO.C,C9*
X144750002Y-90275000D03*
X144750002Y-88725000D03*
G04 #@! TD*
D10*
G04 #@! TO.C,R10*
X135137500Y-102075001D03*
X135137500Y-100425001D03*
G04 #@! TD*
D12*
G04 #@! TO.C,R9*
X129737500Y-97025000D03*
X129737500Y-98675000D03*
G04 #@! TD*
M02*
