M48
; DRILL file {KiCad 9.0.0} date 2025-04-02T18:41:46+0300
; FORMAT={-:-/ absolute / metric / decimal}
; #@! TF.CreationDate,2025-04-02T18:41:46+03:00
; #@! TF.GenerationSoftware,Kicad,Pcbnew,9.0.0
; #@! TF.FileFunction,Plated,1,2,PTH
FMAT,2
METRIC
; #@! TA.AperFunction,Plated,PTH,ViaDrill
T1C0.300
; #@! TA.AperFunction,Plated,PTH,ViaDrill
T2C0.400
; #@! TA.AperFunction,Plated,PTH,ComponentDrill
T3C0.600
; #@! TA.AperFunction,Plated,PTH,ComponentDrill
T4C1.000
%
G90
G05
T1
X120.7Y-91.9
X120.7Y-93.5
X120.9Y-90.7
X120.961Y-85.097
X122.3Y-87.8
X122.5Y-92.2
X122.5Y-93.3
X122.5Y-95.5
X122.7Y-94.3
X124.679Y-89.775
X125.0Y-94.7
X125.181Y-87.433
X125.211Y-89.247
X125.278Y-88.501
X127.0Y-100.5
X127.0Y-103.8
X127.0Y-107.2
X127.0Y-110.6
X129.725Y-89.075
X129.75Y-99.525
X129.75Y-102.925
X129.75Y-106.344
X129.75Y-109.75
X129.75Y-113.175
X135.15Y-92.6
X135.15Y-96.15
X135.15Y-99.55
X135.15Y-102.95
X135.15Y-106.35
X135.15Y-109.75
X136.85Y-91.0
X139.9Y-91.0
X140.58Y-110.225
X140.7Y-103.0
X141.8Y-105.4
X143.12Y-110.225
X143.125Y-98.675
X145.66Y-110.225
X146.4Y-99.2
X147.15Y-99.2
X148.2Y-110.225
X149.8Y-107.9
X150.745Y-110.2
X153.28Y-110.225
X155.82Y-110.225
X156.311Y-94.666
X156.759Y-100.212
X157.019Y-94.42
X157.4Y-99.825
X157.562Y-94.936
X158.017Y-100.251
X158.105Y-94.42
X158.3Y-97.8
X158.674Y-94.923
X158.83Y-98.33
X159.229Y-94.42
X159.354Y-97.769
X159.807Y-94.897
X159.879Y-98.4
X164.4Y-90.3
X164.4Y-97.1
T2
X114.0Y-86.0
X114.0Y-97.0
X117.1Y-106.4
X119.0Y-101.0
X122.5Y-83.0
X123.3Y-109.8
X126.0Y-96.0
X126.0Y-99.0
X126.0Y-102.0
X126.0Y-105.5
X126.0Y-109.0
X128.0Y-92.5
X128.8Y-89.1
X129.1Y-75.8
X132.0Y-87.4
X132.5Y-115.0
X133.9Y-84.1
X134.7Y-84.8
X135.3Y-89.4
X137.0Y-87.7
X137.75Y-84.75
X137.8Y-96.6
X138.3Y-108.0
X139.1Y-100.0
X139.4Y-77.5
X139.9Y-93.1
X140.2Y-98.5
X140.4Y-102.0
X142.6Y-87.7
X143.325Y-105.6
X143.7Y-94.0
X143.7Y-97.6
X144.0Y-100.1
X145.078Y-91.522
X145.8Y-94.2
X148.441Y-91.541
X148.45Y-106.0
X150.1Y-85.6
X150.6Y-94.2
X150.6Y-99.0
X151.7Y-87.6
X152.7Y-94.0
X152.7Y-97.6
X154.9Y-103.1
X155.7Y-99.9
X155.8Y-92.6
X157.0Y-97.6
X160.0Y-107.5
X163.0Y-92.4
X165.0Y-102.5
X167.5Y-82.5
X167.5Y-95.0
X172.5Y-82.5
X172.5Y-91.088
T4
X157.05Y-80.475
X159.59Y-80.475
X162.13Y-80.475
X164.67Y-80.475
X167.21Y-80.475
X169.75Y-80.475
T3
G00X143.48Y-72.75
M15
G01X143.48Y-73.35
M16
G05
G00X143.48Y-76.68
M15
G01X143.48Y-77.78
M16
G05
G00X152.12Y-72.75
M15
G01X152.12Y-73.35
M16
G05
G00X152.12Y-76.68
M15
G01X152.12Y-77.78
M16
G05
M30
