G04 #@! TF.GenerationSoftware,KiCad,Pcbnew,9.0.0*
G04 #@! TF.CreationDate,2025-04-02T18:41:46+03:00*
G04 #@! TF.ProjectId,bbq20_keyboard,62627132-305f-46b6-9579-626f6172642e,2*
G04 #@! TF.SameCoordinates,Original*
G04 #@! TF.FileFunction,Legend,Top*
G04 #@! TF.FilePolarity,Positive*
%FSLAX46Y46*%
G04 Gerber Fmt 4.6, Leading zero omitted, Abs format (unit mm)*
G04 Created by KiCad (PCBNEW 9.0.0) date 2025-04-02 18:41:46*
%MOMM*%
%LPD*%
G01*
G04 APERTURE LIST*
%ADD10C,0.150000*%
%ADD11C,0.000000*%
%ADD12C,0.120000*%
%ADD13C,0.100000*%
%ADD14R,0.750000X0.300000*%
%ADD15R,0.420000X0.230000*%
%ADD16C,2.700000*%
%ADD17R,1.700000X1.700000*%
%ADD18O,1.700000X1.700000*%
%ADD19C,0.650000*%
%ADD20O,1.000000X1.600000*%
%ADD21O,1.000000X2.100000*%
G04 APERTURE END LIST*
D10*
X122319125Y-115792999D02*
G75*
G02*
X124205664Y-116094138I-25J-6060001D01*
G01*
X179454999Y-114277999D02*
X179454999Y-109934999D01*
X155700000Y-69900000D02*
X155700000Y-74300000D01*
X134291612Y-119389642D02*
G75*
G02*
X133534112Y-120147112I-757512J42D01*
G01*
X125700000Y-98000000D02*
X125700001Y-86000001D01*
X129614246Y-120157857D02*
X130472804Y-120157857D01*
X134291612Y-119389642D02*
X134291612Y-118923999D01*
X130472804Y-120157857D02*
X130744306Y-120379502D01*
X124205666Y-116094131D02*
X127813382Y-117275979D01*
X118600000Y-98800001D02*
G75*
G02*
X117799999Y-98000000I0J800001D01*
G01*
X139687132Y-117913999D02*
X155793035Y-117913999D01*
X132449217Y-120395841D02*
X132782679Y-120147142D01*
X179454999Y-114277999D02*
G75*
G02*
X177939999Y-115792999I-1514999J-1D01*
G01*
X137933678Y-118317999D02*
X139384132Y-118317999D01*
X128856746Y-118715696D02*
X128856746Y-119400357D01*
X127813381Y-117275979D02*
G75*
G02*
X128856718Y-118715696I-471681J-1439721D01*
G01*
X124900000Y-98800000D02*
X119700000Y-98800000D01*
X167160917Y-117617121D02*
G75*
G02*
X165454949Y-117913981I-1705917J4753121D01*
G01*
X135301612Y-117913999D02*
X137630678Y-117913999D01*
X131127538Y-120516067D02*
X132086921Y-120516067D01*
X125700000Y-98000000D02*
G75*
G02*
X124900001Y-98800000I-800000J0D01*
G01*
X131127537Y-120516067D02*
G75*
G02*
X130744295Y-120379515I-37J605967D01*
G01*
X117800000Y-76150000D02*
X117799999Y-98000000D01*
X117643000Y-115792999D02*
G75*
G02*
X116128001Y-114277999I0J1514999D01*
G01*
X142933178Y-74989000D02*
X142933178Y-76100000D01*
X139687132Y-118014999D02*
G75*
G02*
X139384132Y-118318032I-303032J-1D01*
G01*
X182282999Y-76100000D02*
X155255177Y-76100000D01*
X132449218Y-120395842D02*
G75*
G02*
X132086921Y-120516086I-362318J485742D01*
G01*
X117800000Y-85200000D02*
X124900001Y-85200001D01*
X155255177Y-76100000D02*
X155255177Y-74989000D01*
X157931677Y-118115999D02*
G75*
G02*
X157729677Y-118317977I-201977J-1D01*
G01*
X126593756Y-98000000D02*
G75*
G02*
X125793755Y-98799956I-799956J0D01*
G01*
X135132445Y-74989000D02*
X127153445Y-74989000D01*
X127153445Y-76100000D02*
X113300000Y-76100000D01*
X156904483Y-118317999D02*
X157729677Y-118317999D01*
X155700000Y-74300000D02*
X171100000Y-74300000D01*
X137630678Y-117913999D02*
X137630678Y-118014999D01*
X155995035Y-118317999D02*
X156904483Y-118317999D01*
X124900001Y-85200001D02*
G75*
G02*
X125699999Y-86000000I-1J-799999D01*
G01*
X173297817Y-115792999D02*
X177939999Y-115792999D01*
X113300000Y-76100000D02*
X113300000Y-109934999D01*
X132782679Y-120147142D02*
X133534112Y-120147142D01*
X117643000Y-115792999D02*
X122319125Y-115792999D01*
X139687132Y-118014999D02*
X139687132Y-117913999D01*
X126600000Y-76121929D02*
X126593756Y-98000000D01*
X142933178Y-76100000D02*
X135132445Y-76100000D01*
X127153445Y-74989000D02*
X127153445Y-76100000D01*
X179454999Y-109934999D02*
X182282999Y-109934999D01*
X125793755Y-98800001D02*
X118600000Y-98800001D01*
X157931677Y-118115999D02*
X157931677Y-117913999D01*
X171250655Y-116149252D02*
G75*
G02*
X173297817Y-115793005I2047145J-5703748D01*
G01*
X129614246Y-120157857D02*
G75*
G02*
X128856743Y-119400357I-46J757457D01*
G01*
X155995035Y-118317999D02*
G75*
G02*
X155793001Y-118115999I-35J201999D01*
G01*
X157931677Y-117913999D02*
X163736216Y-117913999D01*
X155793035Y-117913999D02*
X155793035Y-118115999D01*
X167160918Y-117617122D02*
X171250656Y-116149253D01*
X116128000Y-109934999D02*
X116128000Y-114277999D01*
X135132445Y-76100000D02*
X135132445Y-74989000D01*
X182282999Y-109934999D02*
X182282999Y-76100000D01*
X134291612Y-118923999D02*
G75*
G02*
X135301612Y-117914012I1009988J-1D01*
G01*
X155255177Y-74989000D02*
X142933178Y-74989000D01*
X137933678Y-118317999D02*
G75*
G02*
X137630701Y-118014999I22J302999D01*
G01*
X171100000Y-74300000D02*
X171100000Y-69900000D01*
X163736216Y-117913999D02*
X165454949Y-117913999D01*
X113300000Y-109934999D02*
X116128000Y-109934999D01*
D11*
G04 #@! TO.C,svg2mod*
G36*
X161560100Y-74932506D02*
G01*
X161606137Y-75038075D01*
X161560100Y-75142850D01*
X161466437Y-75177775D01*
X161266413Y-75177775D01*
X161266413Y-74896787D01*
X161464850Y-74896787D01*
X161560100Y-74932506D01*
G37*
G36*
X165146461Y-74918417D02*
G01*
X165243894Y-74983306D01*
X165311164Y-75080342D01*
X165333587Y-75198412D01*
X165310569Y-75316086D01*
X165241513Y-75411931D01*
X165143881Y-75475630D01*
X165035138Y-75496863D01*
X164881150Y-75496863D01*
X164881150Y-74896787D01*
X165033550Y-74896787D01*
X165146461Y-74918417D01*
G37*
G36*
X164028067Y-74904328D02*
G01*
X164124706Y-74969812D01*
X164175418Y-75034371D01*
X164205845Y-75111629D01*
X164215988Y-75201588D01*
X164205933Y-75291369D01*
X164175771Y-75368099D01*
X164125500Y-75431775D01*
X164029456Y-75496069D01*
X163922300Y-75517500D01*
X163814945Y-75495473D01*
X163718306Y-75429394D01*
X163667594Y-75364747D01*
X163637167Y-75288283D01*
X163627025Y-75200000D01*
X163637079Y-75111717D01*
X163667242Y-75035253D01*
X163717513Y-74970606D01*
X163813556Y-74904527D01*
X163920713Y-74882500D01*
X164028067Y-74904328D01*
G37*
G36*
X160985425Y-74469221D02*
G01*
X165614575Y-74469221D01*
X165945304Y-74469221D01*
X166383772Y-74469221D01*
X165945304Y-75930779D01*
X165614575Y-75930779D01*
X160985425Y-75930779D01*
X160654696Y-75930779D01*
X160216228Y-75930779D01*
X160568812Y-74755500D01*
X160985425Y-74755500D01*
X160985425Y-75636563D01*
X160994950Y-75719113D01*
X161037019Y-75763166D01*
X161125125Y-75777850D01*
X161206881Y-75767134D01*
X161248950Y-75734988D01*
X161264031Y-75692919D01*
X161266413Y-75638150D01*
X161266413Y-75458763D01*
X161464850Y-75458763D01*
X161557983Y-75447474D01*
X161649000Y-75413607D01*
X161737900Y-75357163D01*
X161797034Y-75299417D01*
X161844262Y-75224606D01*
X161875219Y-75136302D01*
X161885537Y-75038075D01*
X161875219Y-74939650D01*
X161844262Y-74850750D01*
X161797034Y-74775344D01*
X161776782Y-74755500D01*
X161988725Y-74755500D01*
X161988725Y-75636563D01*
X161991106Y-75693713D01*
X162006187Y-75734988D01*
X162048256Y-75767134D01*
X162126837Y-75777850D01*
X162207800Y-75767134D01*
X162250662Y-75734988D01*
X162265744Y-75694506D01*
X162268125Y-75639738D01*
X162268125Y-75104750D01*
X162297494Y-75144239D01*
X162369725Y-75243656D01*
X162447909Y-75350614D01*
X162495137Y-75412725D01*
X162507837Y-75430188D01*
X162549906Y-75462731D01*
X162614994Y-75479400D01*
X162681669Y-75461144D01*
X162720562Y-75432569D01*
X162749137Y-75395263D01*
X162783666Y-75348233D01*
X162845975Y-75261119D01*
X162913047Y-75168448D01*
X162961862Y-75104750D01*
X162961862Y-75636563D01*
X162969800Y-75719113D01*
X162992025Y-75750863D01*
X163033300Y-75769913D01*
X163106325Y-75777850D01*
X163182525Y-75768325D01*
X163227769Y-75726653D01*
X163242850Y-75639738D01*
X163242850Y-75207938D01*
X163346038Y-75207938D01*
X163356604Y-75324420D01*
X163388305Y-75432569D01*
X163441139Y-75532383D01*
X163515106Y-75623863D01*
X163604155Y-75700261D01*
X163702233Y-75754831D01*
X163809339Y-75787573D01*
X163925475Y-75798488D01*
X164041363Y-75787425D01*
X164147725Y-75754236D01*
X164244563Y-75698921D01*
X164331875Y-75621481D01*
X164404106Y-75528315D01*
X164455700Y-75425822D01*
X164486656Y-75314002D01*
X164496975Y-75192856D01*
X164486160Y-75072157D01*
X164453716Y-74961677D01*
X164399641Y-74861416D01*
X164323938Y-74771375D01*
X164302698Y-74753912D01*
X164600163Y-74753912D01*
X164600163Y-75636563D01*
X164619213Y-75738163D01*
X164661281Y-75767928D01*
X164739863Y-75777850D01*
X165030375Y-75777850D01*
X165147304Y-75767035D01*
X165255205Y-75734591D01*
X165354076Y-75680516D01*
X165443919Y-75604813D01*
X165518581Y-75513978D01*
X165571911Y-75414511D01*
X165603909Y-75306412D01*
X165614575Y-75189681D01*
X165603661Y-75073397D01*
X165570919Y-74966637D01*
X165516348Y-74869403D01*
X165439950Y-74781694D01*
X165349165Y-74709115D01*
X165251434Y-74657273D01*
X165146759Y-74626168D01*
X165035138Y-74615800D01*
X164741450Y-74614212D01*
X164659694Y-74624928D01*
X164617625Y-74657075D01*
X164602544Y-74698350D01*
X164600163Y-74753912D01*
X164302698Y-74753912D01*
X164233549Y-74697060D01*
X164135422Y-74643978D01*
X164029555Y-74612129D01*
X163915950Y-74601512D01*
X163808000Y-74612625D01*
X163703225Y-74645962D01*
X163605991Y-74698747D01*
X163520663Y-74768200D01*
X163449225Y-74855314D01*
X163393663Y-74961081D01*
X163357944Y-75080342D01*
X163346038Y-75207938D01*
X163242850Y-75207938D01*
X163242850Y-74758675D01*
X163240469Y-74703112D01*
X163225387Y-74660250D01*
X163183517Y-74628103D01*
X163102356Y-74617387D01*
X163020005Y-74628103D01*
X162974562Y-74660250D01*
X162931192Y-74715685D01*
X162873470Y-74790552D01*
X162801398Y-74884849D01*
X162714974Y-74998578D01*
X162614200Y-75131737D01*
X162253837Y-74658662D01*
X162244312Y-74649137D01*
X162203831Y-74627706D01*
X162130012Y-74617387D01*
X162049050Y-74627706D01*
X162006187Y-74658662D01*
X161991106Y-74700731D01*
X161988725Y-74755500D01*
X161776782Y-74755500D01*
X161737900Y-74717400D01*
X161649176Y-74660956D01*
X161558689Y-74627089D01*
X161466437Y-74615800D01*
X161126712Y-74615800D01*
X161044956Y-74626516D01*
X161002887Y-74658662D01*
X160987806Y-74700731D01*
X160985425Y-74755500D01*
X160568812Y-74755500D01*
X160654696Y-74469221D01*
X160985425Y-74469221D01*
G37*
G36*
X136292207Y-119556364D02*
G01*
X136435876Y-119575810D01*
X136567903Y-119608222D01*
X136746795Y-119680850D01*
X136904850Y-119782053D01*
X137036712Y-119915403D01*
X137137022Y-120084472D01*
X137183985Y-120211472D01*
X137212164Y-120343234D01*
X137221556Y-120479759D01*
X137207269Y-120672045D01*
X137164406Y-120832184D01*
X137098327Y-120961665D01*
X137014388Y-121061975D01*
X136884742Y-121159871D01*
X136746629Y-121218608D01*
X136600050Y-121238188D01*
X136455984Y-121214375D01*
X136338113Y-121142938D01*
X136259531Y-121030423D01*
X136233338Y-120883381D01*
X136238100Y-120826231D01*
X136144636Y-120890525D01*
X136021406Y-120911956D01*
X135890735Y-120882488D01*
X135774947Y-120794084D01*
X135693687Y-120664009D01*
X135666600Y-120509525D01*
X135673116Y-120459519D01*
X135971400Y-120459519D01*
X135971400Y-120476187D01*
X136009500Y-120570247D01*
X136109512Y-120609538D01*
X136220241Y-120563103D01*
X136276200Y-120459519D01*
X136276200Y-120445231D01*
X136241672Y-120348791D01*
X136140469Y-120307119D01*
X136026169Y-120353553D01*
X135971400Y-120459519D01*
X135673116Y-120459519D01*
X135684062Y-120375514D01*
X135736450Y-120256054D01*
X135823762Y-120151147D01*
X135978246Y-120041312D01*
X136127372Y-120004700D01*
X136251495Y-120028512D01*
X136330969Y-120099950D01*
X136377403Y-120027322D01*
X136491703Y-120002319D01*
X136601241Y-120027322D01*
X136631006Y-120084472D01*
X136626244Y-120154719D01*
X136545281Y-120764319D01*
X136528613Y-120890525D01*
X136546472Y-120929816D01*
X136602431Y-120940531D01*
X136676250Y-120931006D01*
X136758403Y-120891716D01*
X136840556Y-120814325D01*
X136904850Y-120680975D01*
X136926281Y-120509525D01*
X136910803Y-120335098D01*
X136864369Y-120192819D01*
X136791145Y-120079709D01*
X136695300Y-119992794D01*
X136539328Y-119910773D01*
X136363513Y-119861560D01*
X136167853Y-119845156D01*
X135975236Y-119864603D01*
X135808549Y-119922944D01*
X135667791Y-120020178D01*
X135561296Y-120150750D01*
X135497399Y-120309103D01*
X135476100Y-120495237D01*
X135492636Y-120681769D01*
X135542246Y-120841313D01*
X135624928Y-120973869D01*
X135742271Y-121073088D01*
X135895861Y-121132619D01*
X136085700Y-121152463D01*
X136130944Y-121152463D01*
X136210716Y-121179847D01*
X136233338Y-121281050D01*
X136222622Y-121387016D01*
X136185712Y-121431069D01*
X136083319Y-121450119D01*
X135884782Y-121433971D01*
X135708272Y-121385527D01*
X135553788Y-121304788D01*
X135421331Y-121191753D01*
X135315068Y-121051483D01*
X135239166Y-120889037D01*
X135193624Y-120704415D01*
X135178444Y-120497619D01*
X135193790Y-120311749D01*
X135239827Y-120141490D01*
X135316556Y-119986841D01*
X135417759Y-119852432D01*
X135537219Y-119742895D01*
X135674934Y-119658228D01*
X135824159Y-119598035D01*
X135978147Y-119561920D01*
X136136897Y-119549881D01*
X136292207Y-119556364D01*
G37*
G36*
X158642595Y-119549881D02*
G01*
X158693078Y-119588457D01*
X158711175Y-119639892D01*
X158714033Y-119706567D01*
X158714033Y-120588583D01*
X158725463Y-120675260D01*
X158775945Y-120693358D01*
X158828333Y-120696215D01*
X158860718Y-120712408D01*
X158898818Y-120847663D01*
X158889293Y-120944341D01*
X158860718Y-120994348D01*
X158776898Y-121014350D01*
X158624498Y-121005778D01*
X158503530Y-120971964D01*
X158433998Y-120908623D01*
X158393993Y-120787655D01*
X158380658Y-120611443D01*
X158380658Y-119704662D01*
X158383515Y-119638940D01*
X158399708Y-119588457D01*
X158450190Y-119549881D01*
X158548298Y-119537022D01*
X158642595Y-119549881D01*
G37*
G36*
X161849663Y-120004700D02*
G01*
X161916338Y-120020892D01*
X161976346Y-120059945D01*
X162000158Y-120148527D01*
X161963963Y-120281877D01*
X161859188Y-120354267D01*
X161793466Y-120339027D01*
X161710598Y-120323787D01*
X161614395Y-120359982D01*
X161569628Y-120447612D01*
X161569628Y-120847663D01*
X161566770Y-120913385D01*
X161548673Y-120963868D01*
X161497238Y-121001015D01*
X161400083Y-121013397D01*
X161268638Y-120981013D01*
X161234348Y-120899098D01*
X161234348Y-120843853D01*
X161234348Y-120175197D01*
X161237205Y-120109475D01*
X161253398Y-120060897D01*
X161303880Y-120022321D01*
X161401988Y-120009462D01*
X161494857Y-120020416D01*
X161544863Y-120053277D01*
X161565818Y-120116142D01*
X161593440Y-120083757D01*
X161670593Y-120032322D01*
X161774416Y-119999938D01*
X161849663Y-120004700D01*
G37*
G36*
X164964338Y-120004700D02*
G01*
X165031013Y-120020892D01*
X165091021Y-120059945D01*
X165114833Y-120148527D01*
X165078638Y-120281877D01*
X164973863Y-120354267D01*
X164908141Y-120339027D01*
X164825273Y-120323787D01*
X164729071Y-120359982D01*
X164684303Y-120447612D01*
X164684303Y-120847663D01*
X164681446Y-120913385D01*
X164663348Y-120963868D01*
X164611913Y-121001015D01*
X164514758Y-121013397D01*
X164383313Y-120981013D01*
X164349023Y-120899098D01*
X164349023Y-120843853D01*
X164349023Y-120175197D01*
X164351881Y-120109475D01*
X164368073Y-120060897D01*
X164418556Y-120022321D01*
X164516663Y-120009462D01*
X164609532Y-120020416D01*
X164659538Y-120053277D01*
X164680493Y-120116142D01*
X164708116Y-120083757D01*
X164785268Y-120032322D01*
X164889091Y-119999938D01*
X164964338Y-120004700D01*
G37*
G36*
X166290218Y-120003747D02*
G01*
X166323556Y-120035180D01*
X166354988Y-120087567D01*
X166428331Y-120212345D01*
X166490243Y-120317226D01*
X166550251Y-120417238D01*
X166608353Y-120512383D01*
X166638833Y-120438326D01*
X166711223Y-120277115D01*
X166782899Y-120120191D01*
X166811236Y-120058992D01*
X166833143Y-120026607D01*
X166902676Y-119994222D01*
X167008403Y-120020892D01*
X167092699Y-120075661D01*
X167120798Y-120140907D01*
X167105558Y-120205677D01*
X167090318Y-120238062D01*
X166591208Y-121354393D01*
X166565491Y-121409638D01*
X166532153Y-121445833D01*
X166475003Y-121462978D01*
X166374038Y-121434403D01*
X166289742Y-121380110D01*
X166261643Y-121316293D01*
X166273073Y-121271882D01*
X166307363Y-121184371D01*
X166364513Y-121053760D01*
X166444523Y-120880048D01*
X166065428Y-120241872D01*
X166027328Y-120148527D01*
X166053046Y-120087567D01*
X166130198Y-120026607D01*
X166231163Y-119988507D01*
X166290218Y-120003747D01*
G37*
G36*
X157866731Y-120003007D02*
G01*
X157988016Y-120052219D01*
X158098718Y-120134240D01*
X158186560Y-120241661D01*
X158239265Y-120367073D01*
X158256833Y-120510478D01*
X158236354Y-120659782D01*
X158174918Y-120791465D01*
X158084192Y-120898145D01*
X157975845Y-120972440D01*
X157856545Y-121016017D01*
X157732958Y-121030543D01*
X157609133Y-121015064D01*
X157489118Y-120968630D01*
X157380295Y-120891954D01*
X157290045Y-120785750D01*
X157229324Y-120656924D01*
X157209083Y-120512383D01*
X157209437Y-120509525D01*
X157546268Y-120509525D01*
X157561508Y-120590488D01*
X157607228Y-120648590D01*
X157731053Y-120695263D01*
X157856783Y-120647638D01*
X157903932Y-120588583D01*
X157919648Y-120506668D01*
X157904884Y-120425229D01*
X157860593Y-120367602D01*
X157732958Y-120321882D01*
X157605323Y-120369507D01*
X157561032Y-120428324D01*
X157546268Y-120509525D01*
X157209437Y-120509525D01*
X157226863Y-120368872D01*
X157280203Y-120243142D01*
X157369103Y-120135192D01*
X157480863Y-120052642D01*
X157602783Y-120003112D01*
X157734863Y-119986603D01*
X157866731Y-120003007D01*
G37*
G36*
X164126138Y-120020892D02*
G01*
X164176621Y-120060897D01*
X164193766Y-120111380D01*
X164196623Y-120177102D01*
X164196623Y-120843853D01*
X164193766Y-120909575D01*
X164177573Y-120960058D01*
X164131615Y-120997205D01*
X164047081Y-121009588D01*
X163908016Y-120983870D01*
X163867058Y-120908623D01*
X163772999Y-120984346D01*
X163631791Y-121009588D01*
X163524581Y-120992866D01*
X163422664Y-120942701D01*
X163326038Y-120859093D01*
X163247721Y-120753365D01*
X163200731Y-120636843D01*
X163185420Y-120512383D01*
X163518443Y-120512383D01*
X163567973Y-120625730D01*
X163687988Y-120676213D01*
X163805146Y-120624778D01*
X163851818Y-120511430D01*
X163807051Y-120396177D01*
X163687036Y-120342837D01*
X163565116Y-120396177D01*
X163518443Y-120512383D01*
X163185420Y-120512383D01*
X163185068Y-120509525D01*
X163200837Y-120382313D01*
X163248145Y-120266108D01*
X163326991Y-120160910D01*
X163424675Y-120077831D01*
X163528497Y-120027983D01*
X163638458Y-120011367D01*
X163756568Y-120034227D01*
X163830863Y-120077090D01*
X163865153Y-120116142D01*
X163908492Y-120036132D01*
X164015648Y-120009462D01*
X164126138Y-120020892D01*
G37*
G36*
X159919898Y-119552262D02*
G01*
X159970380Y-119592267D01*
X159987525Y-119642750D01*
X159990383Y-119708472D01*
X159990383Y-120845758D01*
X159987525Y-120911480D01*
X159969428Y-120960058D01*
X159914897Y-120998634D01*
X159808455Y-121011493D01*
X159705347Y-120988156D01*
X159660818Y-120918148D01*
X159565092Y-120986728D01*
X159437933Y-121009588D01*
X159327020Y-120992972D01*
X159222880Y-120943124D01*
X159125513Y-120860045D01*
X159047196Y-120754847D01*
X159000206Y-120638642D01*
X158984660Y-120512383D01*
X159317918Y-120512383D01*
X159367448Y-120626683D01*
X159487463Y-120678118D01*
X159604620Y-120626683D01*
X159651293Y-120513335D01*
X159606525Y-120398082D01*
X159485558Y-120344742D01*
X159363638Y-120397130D01*
X159317918Y-120512383D01*
X158984660Y-120512383D01*
X158984543Y-120511430D01*
X159000312Y-120384112D01*
X159047620Y-120267590D01*
X159126465Y-120161862D01*
X159224150Y-120078254D01*
X159327972Y-120028089D01*
X159437933Y-120011367D01*
X159563187Y-120035180D01*
X159657008Y-120106617D01*
X159657008Y-119706567D01*
X159659866Y-119640845D01*
X159677010Y-119591315D01*
X159727493Y-119552262D01*
X159823695Y-119540832D01*
X159919898Y-119552262D01*
G37*
G36*
X162387826Y-120035180D02*
G01*
X162428783Y-120110427D01*
X162521890Y-120036132D01*
X162656431Y-120011367D01*
X162758136Y-120027666D01*
X162856244Y-120076561D01*
X162950753Y-120158052D01*
X163028011Y-120261134D01*
X163074366Y-120374799D01*
X163089818Y-120499047D01*
X163074472Y-120623296D01*
X163028435Y-120736961D01*
X162951706Y-120840043D01*
X162857620Y-120921534D01*
X162759512Y-120970429D01*
X162657383Y-120986728D01*
X162522604Y-120964820D01*
X162430688Y-120899098D01*
X162430688Y-121283908D01*
X162427831Y-121348678D01*
X162410686Y-121397255D01*
X162362108Y-121436308D01*
X162268763Y-121447738D01*
X162174466Y-121436308D01*
X162124936Y-121398208D01*
X162107791Y-121350583D01*
X162104933Y-121285813D01*
X162104933Y-120500953D01*
X162438308Y-120500953D01*
X162483076Y-120612395D01*
X162597376Y-120662878D01*
X162715486Y-120613348D01*
X162764063Y-120500953D01*
X162718343Y-120387605D01*
X162599281Y-120337122D01*
X162482123Y-120388557D01*
X162438308Y-120500953D01*
X162104933Y-120500953D01*
X162104933Y-120173292D01*
X162107791Y-120108522D01*
X162123983Y-120060897D01*
X162169227Y-120022321D01*
X162251618Y-120009462D01*
X162387826Y-120035180D01*
G37*
G36*
X160780720Y-120000176D02*
G01*
X160886685Y-120035180D01*
X160975030Y-120093521D01*
X161045753Y-120175197D01*
X161094330Y-120278782D01*
X161110523Y-120391415D01*
X161095997Y-120493332D01*
X161052420Y-120564770D01*
X160923833Y-120620968D01*
X160472348Y-120620968D01*
X160535213Y-120710503D01*
X160660943Y-120746698D01*
X160759527Y-120740983D01*
X160834298Y-120723838D01*
X160855253Y-120716218D01*
X160931453Y-120695263D01*
X161036228Y-120780988D01*
X161060993Y-120868618D01*
X161035633Y-120942793D01*
X160959552Y-120995776D01*
X160832750Y-121027566D01*
X160655228Y-121038163D01*
X160522116Y-121026018D01*
X160404720Y-120989585D01*
X160307327Y-120933149D01*
X160234223Y-120860998D01*
X160167548Y-120754106D01*
X160127543Y-120639171D01*
X160114208Y-120516192D01*
X160122131Y-120447612D01*
X160468538Y-120447612D01*
X160708568Y-120447612D01*
X160780958Y-120386652D01*
X160747620Y-120316167D01*
X160652370Y-120289497D01*
X160529498Y-120339980D01*
X160468538Y-120447612D01*
X160122131Y-120447612D01*
X160131459Y-120366862D01*
X160183211Y-120238909D01*
X160269465Y-120132335D01*
X160381543Y-120052431D01*
X160510765Y-120004488D01*
X160657133Y-119988507D01*
X160780720Y-120000176D01*
G37*
G36*
X165618229Y-119684184D02*
G01*
X165669188Y-119737047D01*
X165678713Y-119834202D01*
X165678713Y-120020892D01*
X165805396Y-120013272D01*
X165870166Y-120016130D01*
X165920648Y-120034227D01*
X165957796Y-120083281D01*
X165970178Y-120180912D01*
X165957319Y-120277591D01*
X165918743Y-120327597D01*
X165868260Y-120343790D01*
X165802538Y-120346647D01*
X165678713Y-120339027D01*
X165678713Y-120601918D01*
X165694906Y-120676213D01*
X165755866Y-120699073D01*
X165824446Y-120701930D01*
X165874928Y-120720028D01*
X165918743Y-120847663D01*
X165905408Y-120944341D01*
X165865403Y-120994348D01*
X165814921Y-121010540D01*
X165751103Y-121013397D01*
X165629606Y-121003449D01*
X165529276Y-120973604D01*
X165450113Y-120923863D01*
X165392963Y-120850414D01*
X165358673Y-120749449D01*
X165347243Y-120620968D01*
X165347243Y-120339027D01*
X165269138Y-120344742D01*
X165199606Y-120312357D01*
X165171983Y-120201867D01*
X165181508Y-120088520D01*
X165208178Y-120038037D01*
X165284378Y-120013272D01*
X165347243Y-120020892D01*
X165347243Y-119824677D01*
X165350101Y-119759907D01*
X165368198Y-119714187D01*
X165417252Y-119678469D01*
X165514883Y-119666562D01*
X165618229Y-119684184D01*
G37*
G36*
X156862373Y-120006605D02*
G01*
X157003343Y-120055182D01*
X157070018Y-120131382D01*
X157028108Y-120243777D01*
X156942383Y-120310452D01*
X156857610Y-120281877D01*
X156723308Y-120253302D01*
X156610913Y-120295212D01*
X156643298Y-120342361D01*
X156740453Y-120369507D01*
X156864278Y-120394272D01*
X156984293Y-120441897D01*
X157076685Y-120534290D01*
X157104546Y-120608347D01*
X157113833Y-120699073D01*
X157104546Y-120790751D01*
X157076685Y-120867665D01*
X156972863Y-120971488D01*
X156884704Y-121004296D01*
X156782786Y-121023981D01*
X156667110Y-121030543D01*
X156546143Y-121018689D01*
X156428350Y-120983129D01*
X156313733Y-120923863D01*
X156277538Y-120851473D01*
X156295635Y-120789084D01*
X156349928Y-120700978D01*
X156417555Y-120668593D01*
X156544238Y-120715265D01*
X156689018Y-120761938D01*
X156776172Y-120750508D01*
X156805223Y-120716218D01*
X156773314Y-120684785D01*
X156677588Y-120662878D01*
X156558049Y-120631921D01*
X156439463Y-120573343D01*
X156348023Y-120465710D01*
X156320877Y-120385462D01*
X156311828Y-120291402D01*
X156328363Y-120183046D01*
X156377970Y-120098769D01*
X156460647Y-120038571D01*
X156576394Y-120002452D01*
X156725213Y-119990412D01*
X156862373Y-120006605D01*
G37*
G36*
X162653478Y-70525994D02*
G01*
X162702294Y-70595050D01*
X162729281Y-70679981D01*
X162714994Y-70730781D01*
X162684831Y-70759356D01*
X162637206Y-70783962D01*
X162465756Y-70866512D01*
X162465756Y-71306250D01*
X162637206Y-71388800D01*
X162683244Y-71413406D01*
X162712613Y-71441981D01*
X162727694Y-71492781D01*
X162700706Y-71577712D01*
X162653081Y-71646769D01*
X162599106Y-71669787D01*
X162518144Y-71642800D01*
X161630731Y-71214175D01*
X161571994Y-71160994D01*
X161550237Y-71087175D01*
X162013319Y-71087175D01*
X162230806Y-71191950D01*
X162230806Y-70980812D01*
X162013319Y-71087175D01*
X161550237Y-71087175D01*
X161549769Y-71085588D01*
X161570406Y-71010975D01*
X161632319Y-70958587D01*
X162518144Y-70529962D01*
X162599106Y-70502975D01*
X162653478Y-70525994D01*
G37*
G36*
X162240381Y-71743954D02*
G01*
X162348480Y-71775952D01*
X162447946Y-71829282D01*
X162538781Y-71903944D01*
X162614485Y-71993786D01*
X162668559Y-72092658D01*
X162701004Y-72200558D01*
X162711819Y-72317488D01*
X162711819Y-72608000D01*
X162701897Y-72686581D01*
X162672131Y-72728650D01*
X162570531Y-72747700D01*
X161687881Y-72747700D01*
X161632319Y-72745319D01*
X161591044Y-72730238D01*
X161558897Y-72688169D01*
X161548181Y-72606413D01*
X161549760Y-72314313D01*
X161830756Y-72314313D01*
X161830756Y-72466713D01*
X162430831Y-72466713D01*
X162430831Y-72312725D01*
X162409598Y-72203981D01*
X162345900Y-72106350D01*
X162250055Y-72037294D01*
X162132381Y-72014275D01*
X162014311Y-72036698D01*
X161917275Y-72103969D01*
X161852386Y-72201402D01*
X161830756Y-72314313D01*
X161549760Y-72314313D01*
X161549769Y-72312725D01*
X161560137Y-72201104D01*
X161591242Y-72096428D01*
X161643084Y-71998698D01*
X161715662Y-71907912D01*
X161803372Y-71831514D01*
X161900606Y-71776944D01*
X162007366Y-71744202D01*
X162123650Y-71733287D01*
X162240381Y-71743954D01*
G37*
G36*
X162438967Y-72861206D02*
G01*
X162523700Y-72892163D01*
X162593352Y-72939788D01*
X162645144Y-73000113D01*
X162691887Y-73087778D01*
X162719933Y-73179324D01*
X162729281Y-73274750D01*
X162724717Y-73347378D01*
X162711025Y-73416038D01*
X162665781Y-73523988D01*
X162615775Y-73595425D01*
X162567356Y-73641463D01*
X162549894Y-73655750D01*
X162458613Y-73697025D01*
X162411583Y-73679959D01*
X162351456Y-73628763D01*
X162313356Y-73544625D01*
X162333200Y-73491444D01*
X162392731Y-73420800D01*
X162444325Y-73357300D01*
X162468931Y-73281100D01*
X162455526Y-73199079D01*
X162415309Y-73149867D01*
X162348281Y-73133463D01*
X162287163Y-73173944D01*
X162251444Y-73274750D01*
X162236958Y-73337456D01*
X162215725Y-73404925D01*
X162188936Y-73472394D01*
X162157781Y-73535100D01*
X162114720Y-73590464D01*
X162052212Y-73635906D01*
X161972639Y-73666267D01*
X161878381Y-73676388D01*
X161789217Y-73664834D01*
X161707990Y-73630174D01*
X161634700Y-73572406D01*
X161576933Y-73494707D01*
X161542272Y-73400251D01*
X161530719Y-73289038D01*
X161536870Y-73197955D01*
X161555325Y-73115206D01*
X161605331Y-73006463D01*
X161635494Y-72966775D01*
X161713281Y-72917563D01*
X161800594Y-72955663D01*
X161860125Y-73010431D01*
X161879969Y-73066788D01*
X161848219Y-73149338D01*
X161832344Y-73167594D01*
X161811706Y-73192200D01*
X161791069Y-73277131D01*
X161815675Y-73362856D01*
X161883937Y-73396988D01*
X161954581Y-73356506D01*
X161991094Y-73255700D01*
X162003198Y-73192597D01*
X162020462Y-73123938D01*
X162042489Y-73055278D01*
X162068881Y-72992175D01*
X162107973Y-72936811D01*
X162168100Y-72891369D01*
X162246880Y-72861008D01*
X162341931Y-72850888D01*
X162438967Y-72861206D01*
G37*
G36*
X155192207Y-119556364D02*
G01*
X155335876Y-119575810D01*
X155467903Y-119608222D01*
X155646795Y-119680850D01*
X155804850Y-119782053D01*
X155936712Y-119915403D01*
X156037022Y-120084472D01*
X156083985Y-120211472D01*
X156112164Y-120343234D01*
X156121556Y-120479759D01*
X156107269Y-120672045D01*
X156064406Y-120832184D01*
X155998327Y-120961665D01*
X155914388Y-121061975D01*
X155784742Y-121159871D01*
X155646629Y-121218608D01*
X155500050Y-121238188D01*
X155355984Y-121214375D01*
X155238113Y-121142938D01*
X155159531Y-121030423D01*
X155133338Y-120883381D01*
X155138100Y-120826231D01*
X155044636Y-120890525D01*
X154921406Y-120911956D01*
X154790735Y-120882488D01*
X154674947Y-120794084D01*
X154593687Y-120664009D01*
X154566600Y-120509525D01*
X154573116Y-120459519D01*
X154871400Y-120459519D01*
X154871400Y-120476187D01*
X154909500Y-120570247D01*
X155009512Y-120609538D01*
X155120241Y-120563103D01*
X155176200Y-120459519D01*
X155176200Y-120445231D01*
X155141672Y-120348791D01*
X155040469Y-120307119D01*
X154926169Y-120353553D01*
X154871400Y-120459519D01*
X154573116Y-120459519D01*
X154584062Y-120375514D01*
X154636450Y-120256054D01*
X154723762Y-120151147D01*
X154878246Y-120041312D01*
X155027372Y-120004700D01*
X155151495Y-120028512D01*
X155230969Y-120099950D01*
X155277403Y-120027322D01*
X155391703Y-120002319D01*
X155501241Y-120027322D01*
X155531006Y-120084472D01*
X155526244Y-120154719D01*
X155445281Y-120764319D01*
X155428613Y-120890525D01*
X155446472Y-120929816D01*
X155502431Y-120940531D01*
X155576250Y-120931006D01*
X155658403Y-120891716D01*
X155740556Y-120814325D01*
X155804850Y-120680975D01*
X155826281Y-120509525D01*
X155810803Y-120335098D01*
X155764369Y-120192819D01*
X155691145Y-120079709D01*
X155595300Y-119992794D01*
X155439328Y-119910773D01*
X155263513Y-119861560D01*
X155067853Y-119845156D01*
X154875236Y-119864603D01*
X154708549Y-119922944D01*
X154567791Y-120020178D01*
X154461296Y-120150750D01*
X154397399Y-120309103D01*
X154376100Y-120495237D01*
X154392636Y-120681769D01*
X154442246Y-120841313D01*
X154524928Y-120973869D01*
X154642271Y-121073088D01*
X154795861Y-121132619D01*
X154985700Y-121152463D01*
X155030944Y-121152463D01*
X155110716Y-121179847D01*
X155133338Y-121281050D01*
X155122622Y-121387016D01*
X155085712Y-121431069D01*
X154983319Y-121450119D01*
X154784782Y-121433971D01*
X154608272Y-121385527D01*
X154453788Y-121304788D01*
X154321331Y-121191753D01*
X154215068Y-121051483D01*
X154139166Y-120889037D01*
X154093624Y-120704415D01*
X154078444Y-120497619D01*
X154093790Y-120311749D01*
X154139827Y-120141490D01*
X154216556Y-119986841D01*
X154317759Y-119852432D01*
X154437219Y-119742895D01*
X154574934Y-119658228D01*
X154724159Y-119598035D01*
X154878147Y-119561920D01*
X155036897Y-119549881D01*
X155192207Y-119556364D01*
G37*
G36*
X143996452Y-119610390D02*
G01*
X144045983Y-119632297D01*
X144072653Y-119673255D01*
X144082178Y-119774220D01*
X144082178Y-120835305D01*
X144079320Y-120901028D01*
X144061223Y-120951510D01*
X144010740Y-120990086D01*
X143912633Y-121002945D01*
X143816906Y-120990563D01*
X143765948Y-120953415D01*
X143747850Y-120901028D01*
X143744993Y-120831495D01*
X143744993Y-120151410D01*
X143720228Y-120174270D01*
X143586878Y-120233325D01*
X143471625Y-120166650D01*
X143411618Y-120048540D01*
X143480198Y-119936145D01*
X143792618Y-119654205D01*
X143798333Y-119650395D01*
X143905965Y-119600865D01*
X143996452Y-119610390D01*
G37*
G36*
X139180612Y-119990437D02*
G01*
X139247287Y-120006630D01*
X139307295Y-120045683D01*
X139331107Y-120134265D01*
X139294912Y-120267615D01*
X139190137Y-120340005D01*
X139124415Y-120324765D01*
X139041547Y-120309525D01*
X138945345Y-120345720D01*
X138900577Y-120433350D01*
X138900577Y-120833400D01*
X138897720Y-120899123D01*
X138879622Y-120949605D01*
X138828187Y-120986753D01*
X138731032Y-120999135D01*
X138599587Y-120966750D01*
X138565297Y-120884835D01*
X138565297Y-120829590D01*
X138565297Y-120160935D01*
X138568155Y-120095212D01*
X138584347Y-120046635D01*
X138634830Y-120008059D01*
X138732937Y-119995200D01*
X138825806Y-120006154D01*
X138875812Y-120039015D01*
X138896767Y-120101880D01*
X138924390Y-120069495D01*
X139001542Y-120018060D01*
X139105365Y-119985675D01*
X139180612Y-119990437D01*
G37*
G36*
X142060973Y-119990437D02*
G01*
X142127648Y-120006630D01*
X142187655Y-120045683D01*
X142211468Y-120134265D01*
X142175273Y-120267615D01*
X142070498Y-120340005D01*
X142004775Y-120324765D01*
X141921908Y-120309525D01*
X141825705Y-120345720D01*
X141780937Y-120433350D01*
X141780937Y-120833400D01*
X141778080Y-120899123D01*
X141759982Y-120949605D01*
X141708547Y-120986753D01*
X141611392Y-120999135D01*
X141479947Y-120966750D01*
X141445657Y-120884835D01*
X141445657Y-120829590D01*
X141445657Y-120160935D01*
X141448515Y-120095212D01*
X141464707Y-120046635D01*
X141515190Y-120008059D01*
X141613297Y-119995200D01*
X141706166Y-120006154D01*
X141756172Y-120039015D01*
X141777127Y-120101880D01*
X141804750Y-120069495D01*
X141881902Y-120018060D01*
X141985725Y-119985675D01*
X142060973Y-119990437D01*
G37*
G36*
X142945316Y-119988744D02*
G01*
X143066601Y-120037957D01*
X143177303Y-120119977D01*
X143265144Y-120227398D01*
X143317849Y-120352811D01*
X143335418Y-120496215D01*
X143314939Y-120645519D01*
X143253503Y-120777203D01*
X143162777Y-120883883D01*
X143054430Y-120958178D01*
X142935129Y-121001754D01*
X142811543Y-121016280D01*
X142687718Y-121000802D01*
X142567703Y-120954368D01*
X142458879Y-120877691D01*
X142368630Y-120771488D01*
X142307908Y-120642662D01*
X142287668Y-120498120D01*
X142288022Y-120495263D01*
X142624853Y-120495263D01*
X142640093Y-120576225D01*
X142685813Y-120634328D01*
X142809638Y-120681000D01*
X142935368Y-120633375D01*
X142982516Y-120574320D01*
X142998233Y-120492405D01*
X142983469Y-120410966D01*
X142939178Y-120353340D01*
X142811543Y-120307620D01*
X142683908Y-120355245D01*
X142639616Y-120414062D01*
X142624853Y-120495263D01*
X142288022Y-120495263D01*
X142305448Y-120354610D01*
X142358788Y-120228880D01*
X142447688Y-120120930D01*
X142559448Y-120038380D01*
X142681368Y-119988850D01*
X142813448Y-119972340D01*
X142945316Y-119988744D01*
G37*
G36*
X141224201Y-120006154D02*
G01*
X141274207Y-120044730D01*
X141290400Y-120095212D01*
X141293257Y-120160935D01*
X141293257Y-120835305D01*
X141290400Y-120899123D01*
X141272302Y-120947700D01*
X141221344Y-120984848D01*
X141125617Y-120997230D01*
X141031796Y-120985800D01*
X140982742Y-120951510D01*
X140963692Y-120873405D01*
X140929402Y-120911505D01*
X140877968Y-120953415D01*
X140736997Y-120995325D01*
X140616030Y-120979133D01*
X140509667Y-120930555D01*
X140417910Y-120849593D01*
X140347531Y-120745347D01*
X140305303Y-120626919D01*
X140291227Y-120494310D01*
X140291227Y-120160935D01*
X140294085Y-120094260D01*
X140310277Y-120044730D01*
X140360760Y-120006154D01*
X140458867Y-119993295D01*
X140564595Y-120011392D01*
X140615077Y-120065685D01*
X140626507Y-120162840D01*
X140626507Y-120496215D01*
X140671275Y-120618135D01*
X140791290Y-120661950D01*
X140913210Y-120616230D01*
X140959882Y-120496215D01*
X140959882Y-120159030D01*
X140962740Y-120093307D01*
X140980837Y-120042825D01*
X141029891Y-120005677D01*
X141127522Y-119993295D01*
X141224201Y-120006154D01*
G37*
G36*
X138342412Y-120006630D02*
G01*
X138392895Y-120046635D01*
X138410040Y-120097117D01*
X138412897Y-120162840D01*
X138412897Y-120829590D01*
X138410040Y-120895313D01*
X138393847Y-120945795D01*
X138347889Y-120982943D01*
X138263355Y-120995325D01*
X138124290Y-120969608D01*
X138083332Y-120894360D01*
X137989273Y-120970084D01*
X137848065Y-120995325D01*
X137740856Y-120978603D01*
X137638938Y-120928438D01*
X137542312Y-120844830D01*
X137463996Y-120739103D01*
X137417006Y-120622580D01*
X137401694Y-120498120D01*
X137734717Y-120498120D01*
X137784247Y-120611468D01*
X137904262Y-120661950D01*
X138021420Y-120610515D01*
X138068092Y-120497168D01*
X138023325Y-120381915D01*
X137903310Y-120328575D01*
X137781390Y-120381915D01*
X137734717Y-120498120D01*
X137401694Y-120498120D01*
X137401342Y-120495263D01*
X137417112Y-120368051D01*
X137464419Y-120251846D01*
X137543265Y-120146647D01*
X137640949Y-120063568D01*
X137744772Y-120013721D01*
X137854733Y-119997105D01*
X137972842Y-120019965D01*
X138047137Y-120062827D01*
X138081427Y-120101880D01*
X138124766Y-120021870D01*
X138231922Y-119995200D01*
X138342412Y-120006630D01*
G37*
G36*
X139834504Y-119669921D02*
G01*
X139885463Y-119722785D01*
X139894988Y-119819940D01*
X139894988Y-120006630D01*
X140021670Y-119999010D01*
X140086440Y-120001867D01*
X140136922Y-120019965D01*
X140174070Y-120069019D01*
X140186452Y-120166650D01*
X140173594Y-120263329D01*
X140135017Y-120313335D01*
X140084535Y-120329528D01*
X140018812Y-120332385D01*
X139894988Y-120324765D01*
X139894988Y-120587655D01*
X139911180Y-120661950D01*
X139972140Y-120684810D01*
X140040720Y-120687668D01*
X140091202Y-120705765D01*
X140135017Y-120833400D01*
X140121682Y-120930079D01*
X140081677Y-120980085D01*
X140031195Y-120996278D01*
X139967377Y-120999135D01*
X139845881Y-120989187D01*
X139745551Y-120959342D01*
X139666387Y-120909600D01*
X139609237Y-120836152D01*
X139574947Y-120735187D01*
X139563517Y-120606705D01*
X139563517Y-120324765D01*
X139485412Y-120330480D01*
X139415880Y-120298095D01*
X139388257Y-120187605D01*
X139397782Y-120074257D01*
X139424452Y-120023775D01*
X139500652Y-119999010D01*
X139563517Y-120006630D01*
X139563517Y-119810415D01*
X139566375Y-119745645D01*
X139584472Y-119699925D01*
X139633526Y-119664206D01*
X139731157Y-119652300D01*
X139834504Y-119669921D01*
G37*
G36*
X145971514Y-119599489D02*
G01*
X146095657Y-119652512D01*
X146200538Y-119740882D01*
X146279913Y-119851902D01*
X146327538Y-119972869D01*
X146343413Y-120103785D01*
X146331506Y-120209512D01*
X146295788Y-120309525D01*
X146243400Y-120397155D01*
X146181488Y-120465735D01*
X146048138Y-120570986D01*
X145930028Y-120635280D01*
X145882403Y-120654330D01*
X145882403Y-120663855D01*
X146231018Y-120663855D01*
X146342460Y-120681953D01*
X146387228Y-120737198D01*
X146398658Y-120834353D01*
X146386275Y-120930555D01*
X146345318Y-120980085D01*
X146227208Y-121002945D01*
X145482353Y-121002945D01*
X145364243Y-120951510D01*
X145314713Y-120831495D01*
X145332572Y-120732673D01*
X145386150Y-120641948D01*
X145464969Y-120561461D01*
X145558553Y-120493358D01*
X145659518Y-120431921D01*
X145760483Y-120371438D01*
X145854066Y-120307382D01*
X145932885Y-120235230D01*
X145986463Y-120156649D01*
X146004323Y-120073305D01*
X145990988Y-120024727D01*
X145961460Y-119973292D01*
X145910978Y-119936145D01*
X145815728Y-119919000D01*
X145710000Y-119963767D01*
X145659518Y-120052350D01*
X145651898Y-120096165D01*
X145651898Y-120107595D01*
X145649040Y-120170460D01*
X145630943Y-120218085D01*
X145579508Y-120252375D01*
X145482353Y-120263805D01*
X145376149Y-120245707D01*
X145324238Y-120191415D01*
X145314713Y-120094260D01*
X145330482Y-119966731D01*
X145377789Y-119848303D01*
X145456635Y-119738977D01*
X145560987Y-119651665D01*
X145684812Y-119599277D01*
X145828110Y-119581815D01*
X145971514Y-119599489D01*
G37*
G36*
X144835499Y-119587953D02*
G01*
X144943449Y-119629228D01*
X145040393Y-119698020D01*
X145116593Y-119788190D01*
X145162313Y-119893600D01*
X145177553Y-120014250D01*
X145149930Y-120130455D01*
X145093733Y-120219990D01*
X145065158Y-120250470D01*
X145108020Y-120289522D01*
X145176600Y-120393345D01*
X145208747Y-120471926D01*
X145219463Y-120551460D01*
X145202212Y-120684493D01*
X145150459Y-120799110D01*
X145064205Y-120895313D01*
X144956149Y-120967808D01*
X144838992Y-121011306D01*
X144712733Y-121025805D01*
X144586473Y-121011412D01*
X144469316Y-120968232D01*
X144361260Y-120896265D01*
X144275006Y-120800380D01*
X144223253Y-120685445D01*
X144206984Y-120559080D01*
X144543188Y-120559080D01*
X144587003Y-120658140D01*
X144714638Y-120703860D01*
X144840368Y-120658140D01*
X144882278Y-120560033D01*
X144839415Y-120461925D01*
X144713685Y-120416205D01*
X144587003Y-120460973D01*
X144543188Y-120559080D01*
X144206984Y-120559080D01*
X144206003Y-120551460D01*
X144215766Y-120472641D01*
X144245055Y-120396203D01*
X144322208Y-120286665D01*
X144362213Y-120250470D01*
X144329828Y-120219990D01*
X144279345Y-120137122D01*
X144247913Y-120004725D01*
X144248295Y-120001867D01*
X144587003Y-120001867D01*
X144620340Y-120075210D01*
X144715590Y-120109500D01*
X144808935Y-120075210D01*
X144840368Y-120002820D01*
X144807983Y-119931382D01*
X144711780Y-119898045D01*
X144617483Y-119930430D01*
X144587003Y-120001867D01*
X144248295Y-120001867D01*
X144263576Y-119887462D01*
X144310566Y-119784592D01*
X144388883Y-119696115D01*
X144487943Y-119628382D01*
X144597163Y-119587742D01*
X144716543Y-119574195D01*
X144835499Y-119587953D01*
G37*
G36*
X157542125Y-72583394D02*
G01*
X157585781Y-72600062D01*
X157620309Y-72641933D01*
X157631819Y-72719919D01*
X157624278Y-72799691D01*
X157601656Y-72846919D01*
X157487356Y-72877875D01*
X157481006Y-72877875D01*
X157425444Y-72875494D01*
X157382581Y-72860413D01*
X157346863Y-72818542D01*
X157334956Y-72740556D01*
X157343291Y-72659395D01*
X157368294Y-72608000D01*
X157479419Y-72581013D01*
X157485769Y-72581013D01*
X157542125Y-72583394D01*
G37*
G36*
X156661856Y-70380737D02*
G01*
X157550856Y-70818887D01*
X157607213Y-70872069D01*
X157628644Y-70945887D01*
X157628644Y-70961762D01*
X157607213Y-71037169D01*
X157550856Y-71090350D01*
X156661856Y-71528500D01*
X156585656Y-71552312D01*
X156532475Y-71528897D01*
X156484056Y-71458650D01*
X156457069Y-71378481D01*
X156463419Y-71336412D01*
X156485644Y-71309425D01*
X156527712Y-71283231D01*
X156572162Y-71261998D01*
X156659475Y-71222112D01*
X156771592Y-71171114D01*
X156890456Y-71116544D01*
X157009320Y-71061775D01*
X157121438Y-71010181D01*
X157206170Y-70971089D01*
X157242881Y-70953825D01*
X156547556Y-70636325D01*
X156499931Y-70614100D01*
X156457069Y-70544250D01*
X156484056Y-70450587D01*
X156532475Y-70380341D01*
X156585656Y-70356925D01*
X156661856Y-70380737D01*
G37*
G36*
X157366971Y-71629924D02*
G01*
X157460369Y-71672257D01*
X157540538Y-71742812D01*
X157601833Y-71834711D01*
X157638610Y-71941074D01*
X157650869Y-72061900D01*
X157638522Y-72181844D01*
X157601480Y-72287678D01*
X157539744Y-72379400D01*
X157490134Y-72424247D01*
X157427031Y-72463538D01*
X157385756Y-72481000D01*
X157369881Y-72484175D01*
X157284156Y-72501638D01*
X157215100Y-72462744D01*
X157192081Y-72346063D01*
X157207956Y-72261925D01*
X157290506Y-72214300D01*
X157366706Y-72126988D01*
X157376231Y-72060312D01*
X157367698Y-71987287D01*
X157342100Y-71936487D01*
X157265106Y-71896800D01*
X157189700Y-71935694D01*
X157157156Y-72027769D01*
X157153981Y-72100000D01*
X157138106Y-72141275D01*
X157097228Y-72173422D01*
X157015869Y-72184138D01*
X156927366Y-72169453D01*
X156884106Y-72125400D01*
X156876169Y-72042850D01*
X156860691Y-71952362D01*
X156814256Y-71922200D01*
X156750756Y-71953950D01*
X156720594Y-72042056D01*
X156739644Y-72131750D01*
X156777744Y-72173025D01*
X156796794Y-72182550D01*
X156856325Y-72227000D01*
X156876169Y-72287325D01*
X156847594Y-72374638D01*
X156797984Y-72434169D01*
X156741231Y-72454013D01*
X156633281Y-72417500D01*
X156583275Y-72382575D01*
X156520569Y-72316694D01*
X156471356Y-72211919D01*
X156454687Y-72140680D01*
X156449131Y-72061900D01*
X156461478Y-71940897D01*
X156498520Y-71838239D01*
X156560256Y-71753925D01*
X156637426Y-71691307D01*
X156720770Y-71653736D01*
X156810287Y-71641212D01*
X156894337Y-71654971D01*
X156961276Y-71696246D01*
X157011106Y-71765037D01*
X157022219Y-71765037D01*
X157056350Y-71718206D01*
X157107944Y-71668200D01*
X157179381Y-71628909D01*
X157260344Y-71615812D01*
X157366971Y-71629924D01*
G37*
G36*
X157366971Y-72971361D02*
G01*
X157460369Y-73013694D01*
X157540538Y-73084250D01*
X157601833Y-73176149D01*
X157638610Y-73282511D01*
X157650869Y-73403338D01*
X157638522Y-73523282D01*
X157601480Y-73629115D01*
X157539744Y-73720838D01*
X157490134Y-73765684D01*
X157427031Y-73804975D01*
X157385756Y-73822438D01*
X157369881Y-73825613D01*
X157284156Y-73843075D01*
X157215100Y-73804181D01*
X157192081Y-73687500D01*
X157207956Y-73603363D01*
X157290506Y-73555738D01*
X157366706Y-73468425D01*
X157376231Y-73401750D01*
X157367698Y-73328725D01*
X157342100Y-73277925D01*
X157265106Y-73238238D01*
X157189700Y-73277131D01*
X157157156Y-73369206D01*
X157153981Y-73441438D01*
X157138106Y-73482713D01*
X157097228Y-73514859D01*
X157015869Y-73525575D01*
X156927366Y-73510891D01*
X156884106Y-73466838D01*
X156876169Y-73384288D01*
X156860691Y-73293800D01*
X156814256Y-73263638D01*
X156750756Y-73295388D01*
X156720594Y-73383494D01*
X156739644Y-73473188D01*
X156777744Y-73514463D01*
X156796794Y-73523988D01*
X156856325Y-73568438D01*
X156876169Y-73628763D01*
X156847594Y-73716075D01*
X156797984Y-73775606D01*
X156741231Y-73795450D01*
X156633281Y-73758938D01*
X156583275Y-73724013D01*
X156520569Y-73658131D01*
X156471356Y-73553356D01*
X156454687Y-73482117D01*
X156449131Y-73403338D01*
X156461478Y-73282335D01*
X156498520Y-73179676D01*
X156560256Y-73095363D01*
X156637426Y-73032744D01*
X156720770Y-72995174D01*
X156810287Y-72982650D01*
X156894337Y-72996408D01*
X156961276Y-73037683D01*
X157011106Y-73106475D01*
X157022219Y-73106475D01*
X157056350Y-73059644D01*
X157107944Y-73009638D01*
X157179381Y-72970347D01*
X157260344Y-72957250D01*
X157366971Y-72971361D01*
G37*
G36*
X148959669Y-72763456D02*
G01*
X148985863Y-72819019D01*
X148981100Y-72876169D01*
X148904900Y-72909506D01*
X148807269Y-72931731D01*
X148777900Y-73023012D01*
X148806475Y-73114294D01*
X148892200Y-73136519D01*
X148981100Y-73149219D01*
X149010469Y-73180969D01*
X149019200Y-73241294D01*
X148994197Y-73322256D01*
X148919188Y-73349244D01*
X148658838Y-73349244D01*
X148658838Y-72747581D01*
X148881088Y-72747581D01*
X148959669Y-72763456D01*
G37*
G36*
X146299812Y-72316840D02*
G01*
X149300188Y-72316840D01*
X149630917Y-72316840D01*
X150070813Y-72316840D01*
X149630917Y-73783160D01*
X149300188Y-73783160D01*
X146299812Y-73783160D01*
X145969083Y-73783160D01*
X145529187Y-73783160D01*
X145881771Y-72607881D01*
X146299812Y-72607881D01*
X146299812Y-73085719D01*
X146307849Y-73189303D01*
X146331959Y-73287331D01*
X146372143Y-73379803D01*
X146428400Y-73466719D01*
X146499639Y-73541331D01*
X146589531Y-73600069D01*
X146694306Y-73638169D01*
X146810194Y-73650869D01*
X146926280Y-73638367D01*
X147031650Y-73600863D01*
X147122534Y-73543117D01*
X147195162Y-73469894D01*
X147252114Y-73381788D01*
X147254200Y-73377025D01*
X147428525Y-73377025D01*
X147469800Y-73468306D01*
X147484087Y-73485769D01*
X147530125Y-73534188D01*
X147601562Y-73584194D01*
X147709512Y-73629438D01*
X147778172Y-73643130D01*
X147850800Y-73647694D01*
X147946226Y-73638345D01*
X148037772Y-73610299D01*
X148125438Y-73563556D01*
X148185763Y-73511764D01*
X148233388Y-73442113D01*
X148264344Y-73357380D01*
X148274663Y-73260344D01*
X148264542Y-73165292D01*
X148234181Y-73086513D01*
X148188739Y-73026386D01*
X148133375Y-72987294D01*
X148070272Y-72960902D01*
X148001613Y-72938875D01*
X147932953Y-72921611D01*
X147869850Y-72909506D01*
X147769044Y-72872994D01*
X147728562Y-72802350D01*
X147762694Y-72734087D01*
X147848419Y-72709481D01*
X147933350Y-72730119D01*
X147957956Y-72750756D01*
X147976213Y-72766631D01*
X148058763Y-72798381D01*
X148115119Y-72778537D01*
X148169888Y-72719006D01*
X148207988Y-72631694D01*
X148191919Y-72606294D01*
X148377850Y-72606294D01*
X148377850Y-73487356D01*
X148387375Y-73569906D01*
X148429444Y-73615150D01*
X148517550Y-73630231D01*
X148935063Y-73630231D01*
X149030577Y-73618325D01*
X149116038Y-73582606D01*
X149191444Y-73523075D01*
X149250446Y-73445905D01*
X149286694Y-73357269D01*
X149300188Y-73257169D01*
X149289781Y-73168092D01*
X149258560Y-73085013D01*
X149206525Y-73007931D01*
X149251769Y-72916253D01*
X149266850Y-72815844D01*
X149255385Y-72724122D01*
X149220989Y-72641572D01*
X149163663Y-72568194D01*
X149092754Y-72511749D01*
X149011263Y-72477883D01*
X148919188Y-72466594D01*
X148519138Y-72466594D01*
X148437381Y-72477309D01*
X148395313Y-72509456D01*
X148380231Y-72550731D01*
X148377850Y-72606294D01*
X148191919Y-72606294D01*
X148158775Y-72553906D01*
X148119088Y-72523744D01*
X148010344Y-72473737D01*
X147927595Y-72455283D01*
X147836513Y-72449131D01*
X147725299Y-72460685D01*
X147630843Y-72495345D01*
X147553144Y-72553112D01*
X147495376Y-72626402D01*
X147460716Y-72707629D01*
X147449162Y-72796794D01*
X147459283Y-72891052D01*
X147489644Y-72970625D01*
X147535086Y-73033133D01*
X147590450Y-73076194D01*
X147653156Y-73107348D01*
X147720625Y-73134138D01*
X147788094Y-73155370D01*
X147850800Y-73169856D01*
X147951606Y-73205575D01*
X147992088Y-73266694D01*
X147975683Y-73333722D01*
X147926471Y-73373938D01*
X147844450Y-73387344D01*
X147768250Y-73362738D01*
X147704750Y-73311144D01*
X147634106Y-73251613D01*
X147580925Y-73231769D01*
X147496787Y-73269869D01*
X147445591Y-73329995D01*
X147428525Y-73377025D01*
X147254200Y-73377025D01*
X147292794Y-73288919D01*
X147317202Y-73191288D01*
X147325337Y-73088894D01*
X147325337Y-72609469D01*
X147315812Y-72526919D01*
X147295175Y-72493581D01*
X147253900Y-72474531D01*
X147181669Y-72466594D01*
X147106262Y-72476119D01*
X147060225Y-72511044D01*
X147044350Y-72598356D01*
X147044350Y-73084131D01*
X147030062Y-73190097D01*
X146987200Y-73282569D01*
X146915366Y-73346863D01*
X146814162Y-73368294D01*
X146701450Y-73341306D01*
X146630012Y-73269869D01*
X146594294Y-73180175D01*
X146582387Y-73085719D01*
X146582387Y-72609469D01*
X146563337Y-72509456D01*
X146522062Y-72476119D01*
X146441100Y-72466594D01*
X146360137Y-72476119D01*
X146317275Y-72509456D01*
X146302194Y-72551525D01*
X146299812Y-72607881D01*
X145881771Y-72607881D01*
X145969083Y-72316840D01*
X146299812Y-72316840D01*
G37*
G04 #@! TO.C,G\u002A\u002A\u002A*
G36*
X172410407Y-116698290D02*
G01*
X172517147Y-116712691D01*
X172619741Y-116740586D01*
X172719938Y-116782454D01*
X172819484Y-116838776D01*
X172823966Y-116841652D01*
X172852948Y-116860981D01*
X172869270Y-116873389D01*
X172872830Y-116878750D01*
X172863527Y-116876934D01*
X172846471Y-116870105D01*
X172798676Y-116849758D01*
X172760378Y-116834471D01*
X172727561Y-116822780D01*
X172696212Y-116813220D01*
X172674698Y-116807450D01*
X172561127Y-116785110D01*
X172450824Y-116777347D01*
X172343561Y-116784149D01*
X172314848Y-116788523D01*
X172201011Y-116814928D01*
X172087658Y-116855069D01*
X171974333Y-116909188D01*
X171860578Y-116977528D01*
X171745937Y-117060329D01*
X171649903Y-117140105D01*
X171573636Y-117216461D01*
X171510585Y-117299912D01*
X171460693Y-117390559D01*
X171423904Y-117488507D01*
X171400161Y-117593858D01*
X171399441Y-117598494D01*
X171391534Y-117690867D01*
X171396693Y-117776351D01*
X171414453Y-117854541D01*
X171444351Y-117925032D01*
X171485922Y-117987418D01*
X171538703Y-118041294D01*
X171602230Y-118086255D01*
X171676038Y-118121896D01*
X171759664Y-118147811D01*
X171852643Y-118163596D01*
X171954512Y-118168844D01*
X172047785Y-118164715D01*
X172092406Y-118160357D01*
X172136310Y-118154739D01*
X172181815Y-118147398D01*
X172231242Y-118137871D01*
X172286909Y-118125694D01*
X172351134Y-118110402D01*
X172426237Y-118091532D01*
X172469521Y-118080370D01*
X172551813Y-118059445D01*
X172622504Y-118042603D01*
X172684309Y-118029433D01*
X172739942Y-118019524D01*
X172792116Y-118012465D01*
X172843547Y-118007845D01*
X172896947Y-118005252D01*
X172955030Y-118004276D01*
X172972120Y-118004237D01*
X173025020Y-118004426D01*
X173066300Y-118005171D01*
X173099342Y-118006763D01*
X173127525Y-118009494D01*
X173154231Y-118013657D01*
X173182841Y-118019543D01*
X173203023Y-118024187D01*
X173306615Y-118054463D01*
X173401487Y-118094128D01*
X173486813Y-118142506D01*
X173561765Y-118198921D01*
X173625518Y-118262697D01*
X173677245Y-118333157D01*
X173716121Y-118409626D01*
X173732825Y-118457733D01*
X173751455Y-118548144D01*
X173755553Y-118639613D01*
X173745494Y-118731494D01*
X173721651Y-118823144D01*
X173684399Y-118913920D01*
X173634113Y-119003176D01*
X173571165Y-119090270D01*
X173495931Y-119174557D01*
X173408785Y-119255393D01*
X173310101Y-119332135D01*
X173200253Y-119404137D01*
X173173708Y-119419809D01*
X173078357Y-119470911D01*
X172969199Y-119521899D01*
X172847423Y-119572234D01*
X172780833Y-119597484D01*
X172683947Y-119634796D01*
X172600079Y-119670743D01*
X172527429Y-119706330D01*
X172464199Y-119742565D01*
X172408593Y-119780453D01*
X172358812Y-119820999D01*
X172326129Y-119851841D01*
X172271899Y-119915461D01*
X172231972Y-119983421D01*
X172206383Y-120055413D01*
X172195169Y-120131134D01*
X172198366Y-120210278D01*
X172216010Y-120292539D01*
X172248137Y-120377613D01*
X172260707Y-120403840D01*
X172303902Y-120479987D01*
X172354749Y-120550717D01*
X172414829Y-120617698D01*
X172485724Y-120682595D01*
X172569015Y-120747074D01*
X172620567Y-120782885D01*
X172700251Y-120837318D01*
X172769340Y-120886733D01*
X172830435Y-120933255D01*
X172886135Y-120979010D01*
X172939041Y-121026122D01*
X172991751Y-121076715D01*
X173039634Y-121125383D01*
X173116050Y-121210633D01*
X173181961Y-121296440D01*
X173236681Y-121381611D01*
X173279521Y-121464953D01*
X173309796Y-121545275D01*
X173326818Y-121621382D01*
X173327291Y-121624912D01*
X173329134Y-121646681D01*
X173328302Y-121659173D01*
X173325250Y-121660398D01*
X173321273Y-121651167D01*
X173317355Y-121638370D01*
X173311234Y-121618083D01*
X173309346Y-121611784D01*
X173287926Y-121557694D01*
X173254927Y-121498063D01*
X173211751Y-121434875D01*
X173159801Y-121370111D01*
X173100478Y-121305754D01*
X173075408Y-121280964D01*
X172989666Y-121203895D01*
X172895690Y-121130240D01*
X172791711Y-121058769D01*
X172675958Y-120988246D01*
X172574542Y-120932138D01*
X172531561Y-120908832D01*
X172487402Y-120884146D01*
X172446355Y-120860527D01*
X172412708Y-120840419D01*
X172402720Y-120834185D01*
X172357979Y-120802401D01*
X172308214Y-120761416D01*
X172256820Y-120714442D01*
X172207195Y-120664695D01*
X172162736Y-120615386D01*
X172135182Y-120581099D01*
X172101575Y-120532079D01*
X172068142Y-120475423D01*
X172037187Y-120415642D01*
X172011014Y-120357244D01*
X171991928Y-120304741D01*
X171989145Y-120295275D01*
X171979125Y-120248259D01*
X171972228Y-120192786D01*
X171968663Y-120133811D01*
X171968639Y-120076287D01*
X171972365Y-120025169D01*
X171976654Y-119998843D01*
X172004903Y-119902148D01*
X172047259Y-119810388D01*
X172103597Y-119723751D01*
X172173793Y-119642426D01*
X172257721Y-119566600D01*
X172270732Y-119556299D01*
X172314214Y-119523543D01*
X172356635Y-119494226D01*
X172400364Y-119467067D01*
X172447771Y-119440784D01*
X172501226Y-119414095D01*
X172563097Y-119385718D01*
X172635756Y-119354371D01*
X172672061Y-119339179D01*
X172812766Y-119276817D01*
X172938883Y-119212636D01*
X173050739Y-119146420D01*
X173148662Y-119077953D01*
X173232981Y-119007020D01*
X173304024Y-118933405D01*
X173321141Y-118912832D01*
X173372948Y-118840234D01*
X173410317Y-118769752D01*
X173433430Y-118701997D01*
X173442469Y-118637574D01*
X173437617Y-118577094D01*
X173419057Y-118521163D01*
X173386971Y-118470390D01*
X173341541Y-118425384D01*
X173282950Y-118386753D01*
X173211380Y-118355104D01*
X173148102Y-118336016D01*
X173119527Y-118329434D01*
X173092507Y-118324798D01*
X173063431Y-118321800D01*
X173028685Y-118320133D01*
X172984658Y-118319491D01*
X172953367Y-118319467D01*
X172900858Y-118320081D01*
X172853822Y-118321944D01*
X172809396Y-118325482D01*
X172764719Y-118331116D01*
X172716928Y-118339270D01*
X172663159Y-118350368D01*
X172600550Y-118364833D01*
X172530720Y-118381968D01*
X172430776Y-118405833D01*
X172341672Y-118424575D01*
X172260317Y-118438635D01*
X172183619Y-118448454D01*
X172108483Y-118454472D01*
X172031819Y-118457131D01*
X172001642Y-118457351D01*
X171883660Y-118452779D01*
X171775243Y-118438583D01*
X171674047Y-118414264D01*
X171577728Y-118379322D01*
X171528086Y-118356440D01*
X171440494Y-118305632D01*
X171364612Y-118245585D01*
X171300155Y-118175956D01*
X171246837Y-118096404D01*
X171204372Y-118006585D01*
X171182406Y-117942369D01*
X171169807Y-117886726D01*
X171161391Y-117821518D01*
X171157365Y-117751649D01*
X171157939Y-117682022D01*
X171163320Y-117617539D01*
X171167460Y-117590992D01*
X171193088Y-117482931D01*
X171228988Y-117382634D01*
X171275847Y-117289166D01*
X171334355Y-117201593D01*
X171405203Y-117118980D01*
X171489080Y-117040391D01*
X171586676Y-116964893D01*
X171670630Y-116908891D01*
X171764605Y-116854824D01*
X171865538Y-116805884D01*
X171969073Y-116763888D01*
X172070857Y-116730649D01*
X172139456Y-116713409D01*
X172169222Y-116708365D01*
X172208851Y-116703580D01*
X172253206Y-116699589D01*
X172297149Y-116696927D01*
X172297774Y-116696901D01*
X172410407Y-116698290D01*
G37*
G36*
X176780400Y-116256958D02*
G01*
X176844466Y-116261489D01*
X176900776Y-116268281D01*
X176929149Y-116273401D01*
X177039737Y-116301727D01*
X177156207Y-116340710D01*
X177275387Y-116389047D01*
X177394104Y-116445434D01*
X177509188Y-116508566D01*
X177527080Y-116519223D01*
X177652213Y-116601838D01*
X177763883Y-116690760D01*
X177862037Y-116785919D01*
X177946622Y-116887248D01*
X178017587Y-116994678D01*
X178074877Y-117108142D01*
X178118442Y-117227570D01*
X178140957Y-117315696D01*
X178150104Y-117370718D01*
X178156812Y-117435667D01*
X178160881Y-117505635D01*
X178162112Y-117575713D01*
X178160305Y-117640993D01*
X178156182Y-117689441D01*
X178132006Y-117827332D01*
X178093701Y-117964109D01*
X178042116Y-118097745D01*
X177978097Y-118226215D01*
X177902493Y-118347493D01*
X177852658Y-118415028D01*
X177813522Y-118461756D01*
X177768142Y-118510875D01*
X177720032Y-118558908D01*
X177672703Y-118602381D01*
X177629668Y-118637818D01*
X177620917Y-118644342D01*
X177584961Y-118669209D01*
X177540136Y-118698209D01*
X177489951Y-118729255D01*
X177437915Y-118760259D01*
X177387536Y-118789131D01*
X177342322Y-118813783D01*
X177305783Y-118832128D01*
X177304223Y-118832853D01*
X177207629Y-118872054D01*
X177108104Y-118901342D01*
X177004659Y-118920699D01*
X176896305Y-118930109D01*
X176782051Y-118929555D01*
X176660908Y-118919019D01*
X176531886Y-118898484D01*
X176393996Y-118867933D01*
X176246247Y-118827348D01*
X176201506Y-118813728D01*
X176167807Y-118802942D01*
X176127195Y-118789436D01*
X176081867Y-118773996D01*
X176034021Y-118757403D01*
X175985854Y-118740441D01*
X175939564Y-118723894D01*
X175897348Y-118708544D01*
X175861405Y-118695175D01*
X175833931Y-118684570D01*
X175817125Y-118677513D01*
X175813044Y-118675279D01*
X175814171Y-118667478D01*
X175819669Y-118648470D01*
X175828539Y-118621055D01*
X175839780Y-118588035D01*
X175852394Y-118552211D01*
X175865382Y-118516385D01*
X175877744Y-118483358D01*
X175888481Y-118455931D01*
X175896593Y-118436906D01*
X175900785Y-118429320D01*
X175908172Y-118431090D01*
X175927407Y-118437348D01*
X175956283Y-118447329D01*
X175992595Y-118460271D01*
X176034136Y-118475410D01*
X176036572Y-118476308D01*
X176173568Y-118524928D01*
X176300379Y-118565942D01*
X176419333Y-118600026D01*
X176532754Y-118627856D01*
X176621589Y-118646168D01*
X176680012Y-118654933D01*
X176744649Y-118660813D01*
X176812016Y-118663803D01*
X176878628Y-118663900D01*
X176941004Y-118661098D01*
X176995657Y-118655393D01*
X177039105Y-118646781D01*
X177039407Y-118646698D01*
X177122584Y-118619580D01*
X177207323Y-118583418D01*
X177295584Y-118537233D01*
X177389327Y-118480047D01*
X177436549Y-118448606D01*
X177520711Y-118382622D01*
X177598702Y-118304562D01*
X177669644Y-118216312D01*
X177732662Y-118119758D01*
X177786876Y-118016788D01*
X177831409Y-117909287D01*
X177865384Y-117799143D01*
X177887924Y-117688242D01*
X177898150Y-117578471D01*
X177895185Y-117471716D01*
X177894439Y-117464195D01*
X177877253Y-117356710D01*
X177848448Y-117256780D01*
X177807146Y-117162341D01*
X177752469Y-117071325D01*
X177695103Y-116995453D01*
X177636701Y-116932945D01*
X177565621Y-116870430D01*
X177484130Y-116809181D01*
X177394500Y-116750473D01*
X177298999Y-116695577D01*
X177199896Y-116645767D01*
X177099461Y-116602316D01*
X176999963Y-116566496D01*
X176903672Y-116539582D01*
X176869137Y-116532101D01*
X176813215Y-116523872D01*
X176749485Y-116519171D01*
X176682383Y-116517957D01*
X176616344Y-116520190D01*
X176555805Y-116525830D01*
X176505201Y-116534834D01*
X176502643Y-116535464D01*
X176407614Y-116565075D01*
X176321283Y-116604619D01*
X176240792Y-116655692D01*
X176163282Y-116719890D01*
X176149947Y-116732463D01*
X176124455Y-116757379D01*
X176103874Y-116778375D01*
X176090126Y-116793426D01*
X176085130Y-116800507D01*
X176085233Y-116800743D01*
X176093275Y-116805139D01*
X176111183Y-116814434D01*
X176135415Y-116826796D01*
X176140941Y-116829593D01*
X176192899Y-116855848D01*
X176224381Y-116939746D01*
X176255864Y-117023644D01*
X176068630Y-117434843D01*
X175881397Y-117846043D01*
X175906315Y-117921057D01*
X175662547Y-118601530D01*
X175418779Y-119282002D01*
X175416162Y-119464200D01*
X175413545Y-119646397D01*
X175339206Y-119807679D01*
X175317976Y-119853533D01*
X175298589Y-119895016D01*
X175282000Y-119930121D01*
X175269159Y-119956840D01*
X175261022Y-119973164D01*
X175258760Y-119977180D01*
X175249665Y-119982868D01*
X175229434Y-119992262D01*
X175201070Y-120004052D01*
X175167935Y-120016794D01*
X175083216Y-120048189D01*
X174993484Y-120007095D01*
X174953416Y-119989316D01*
X174925161Y-119978202D01*
X174907331Y-119973288D01*
X174898536Y-119974107D01*
X174897695Y-119974982D01*
X174893846Y-119982873D01*
X174884194Y-120003546D01*
X174869142Y-120036123D01*
X174849089Y-120079727D01*
X174824439Y-120133479D01*
X174795591Y-120196502D01*
X174762949Y-120267917D01*
X174726913Y-120346846D01*
X174687884Y-120432412D01*
X174646265Y-120523738D01*
X174602456Y-120619943D01*
X174556860Y-120720152D01*
X174544010Y-120748406D01*
X174196381Y-121512848D01*
X174118731Y-121542214D01*
X174085331Y-121554431D01*
X174055532Y-121564578D01*
X174033070Y-121571427D01*
X174023099Y-121573682D01*
X174016439Y-121575907D01*
X174009351Y-121582104D01*
X174000897Y-121593928D01*
X173990139Y-121613033D01*
X173976138Y-121641075D01*
X173957956Y-121679707D01*
X173936832Y-121725798D01*
X173916236Y-121770651D01*
X173897081Y-121811627D01*
X173880443Y-121846485D01*
X173867397Y-121872983D01*
X173859017Y-121888880D01*
X173857295Y-121891654D01*
X173847117Y-121900928D01*
X173826520Y-121915997D01*
X173798055Y-121935117D01*
X173764274Y-121956547D01*
X173745816Y-121967806D01*
X173698960Y-121995109D01*
X173662197Y-122014075D01*
X173633494Y-122025203D01*
X173610819Y-122028991D01*
X173592140Y-122025939D01*
X173575424Y-122016545D01*
X173568961Y-122011238D01*
X173559437Y-121997979D01*
X173546653Y-121973497D01*
X173531817Y-121940889D01*
X173516136Y-121903252D01*
X173500818Y-121863686D01*
X173487071Y-121825287D01*
X173476103Y-121791155D01*
X173469121Y-121764387D01*
X173467764Y-121754312D01*
X173632292Y-121754312D01*
X173645340Y-121789944D01*
X173654153Y-121810246D01*
X173662361Y-121823030D01*
X173665948Y-121825327D01*
X173676152Y-121821202D01*
X173693475Y-121811015D01*
X173703346Y-121804449D01*
X173714397Y-121795876D01*
X173724530Y-121785250D01*
X173734970Y-121770494D01*
X173746938Y-121749533D01*
X173761661Y-121720290D01*
X173780360Y-121680690D01*
X173794937Y-121649043D01*
X173813903Y-121607389D01*
X173830541Y-121570350D01*
X173843894Y-121540096D01*
X173853004Y-121518803D01*
X173856914Y-121508643D01*
X173856992Y-121508226D01*
X173850930Y-121502753D01*
X173835397Y-121493783D01*
X173814828Y-121483454D01*
X173793655Y-121473906D01*
X173776313Y-121467276D01*
X173768427Y-121465505D01*
X173763727Y-121472033D01*
X173753949Y-121490282D01*
X173740078Y-121518250D01*
X173723101Y-121553933D01*
X173704001Y-121595330D01*
X173697398Y-121609909D01*
X173632292Y-121754312D01*
X173467764Y-121754312D01*
X173467218Y-121750266D01*
X173470285Y-121737111D01*
X173478957Y-121712358D01*
X173492441Y-121677977D01*
X173509945Y-121635941D01*
X173530676Y-121588223D01*
X173547125Y-121551520D01*
X173627032Y-121375430D01*
X173599628Y-121301550D01*
X173572223Y-121227669D01*
X173576666Y-121217967D01*
X173877391Y-121217967D01*
X173886336Y-121223152D01*
X173904955Y-121232419D01*
X173929378Y-121243993D01*
X173955737Y-121256096D01*
X173980163Y-121266951D01*
X173998787Y-121274781D01*
X174007704Y-121277809D01*
X174011309Y-121271149D01*
X174020698Y-121251723D01*
X174035459Y-121220426D01*
X174055177Y-121178155D01*
X174079441Y-121125806D01*
X174107837Y-121064277D01*
X174139952Y-120994463D01*
X174175373Y-120917260D01*
X174213686Y-120833566D01*
X174254479Y-120744276D01*
X174297339Y-120650288D01*
X174335163Y-120567203D01*
X174658492Y-119856438D01*
X174590665Y-119824351D01*
X174562005Y-119811063D01*
X174538967Y-119800895D01*
X174524504Y-119795121D01*
X174521082Y-119794345D01*
X174516514Y-119802849D01*
X174506384Y-119823790D01*
X174491188Y-119856071D01*
X174471420Y-119898596D01*
X174447575Y-119950271D01*
X174420150Y-120010000D01*
X174389640Y-120076686D01*
X174356540Y-120149234D01*
X174321345Y-120226549D01*
X174284551Y-120307535D01*
X174246653Y-120391097D01*
X174208147Y-120476138D01*
X174169528Y-120561563D01*
X174131291Y-120646276D01*
X174093933Y-120729182D01*
X174057947Y-120809186D01*
X174023830Y-120885190D01*
X173992077Y-120956101D01*
X173963184Y-121020822D01*
X173937645Y-121078257D01*
X173915956Y-121127311D01*
X173898613Y-121166889D01*
X173886111Y-121195894D01*
X173878945Y-121213231D01*
X173877391Y-121217967D01*
X173576666Y-121217967D01*
X173925276Y-120456888D01*
X173971654Y-120355524D01*
X174016183Y-120257986D01*
X174058474Y-120165137D01*
X174098136Y-120077842D01*
X174134781Y-119996965D01*
X174168020Y-119923369D01*
X174197463Y-119857920D01*
X174222722Y-119801480D01*
X174243406Y-119754914D01*
X174259126Y-119719086D01*
X174269494Y-119694860D01*
X174274121Y-119683100D01*
X174274312Y-119682090D01*
X174266239Y-119677532D01*
X174247424Y-119668250D01*
X174220811Y-119655663D01*
X174194195Y-119643400D01*
X174118095Y-119608726D01*
X174085518Y-119521108D01*
X174052940Y-119433489D01*
X174058186Y-119421704D01*
X174355504Y-119421704D01*
X174355629Y-119423340D01*
X174363724Y-119427797D01*
X174383849Y-119437583D01*
X174414442Y-119451992D01*
X174453941Y-119470320D01*
X174500782Y-119491861D01*
X174553404Y-119515912D01*
X174610243Y-119541766D01*
X174669737Y-119568720D01*
X174730324Y-119596069D01*
X174790441Y-119623108D01*
X174848525Y-119649131D01*
X174903014Y-119673435D01*
X174952344Y-119695314D01*
X174994954Y-119714063D01*
X175029282Y-119728978D01*
X175053763Y-119739355D01*
X175066836Y-119744487D01*
X175068558Y-119744907D01*
X175074283Y-119737650D01*
X175084645Y-119719353D01*
X175098222Y-119692701D01*
X175113591Y-119660378D01*
X175115098Y-119657099D01*
X175154361Y-119571382D01*
X175154705Y-119461670D01*
X175155050Y-119351958D01*
X174984391Y-119274830D01*
X174929065Y-119249819D01*
X174870625Y-119223389D01*
X174812917Y-119197282D01*
X174759787Y-119173235D01*
X174715080Y-119152991D01*
X174701624Y-119146893D01*
X174589514Y-119096085D01*
X174516957Y-119162983D01*
X174489165Y-119188775D01*
X174464993Y-119211518D01*
X174446804Y-119228970D01*
X174436959Y-119238884D01*
X174436333Y-119239601D01*
X174429304Y-119251099D01*
X174418669Y-119272026D01*
X174405792Y-119299276D01*
X174392036Y-119329746D01*
X174378765Y-119360328D01*
X174367343Y-119387919D01*
X174359135Y-119409413D01*
X174355504Y-119421704D01*
X174058186Y-119421704D01*
X174198612Y-119106291D01*
X174433780Y-118874546D01*
X174743291Y-118874546D01*
X174969800Y-118977069D01*
X175024233Y-119001547D01*
X175074399Y-119023801D01*
X175118648Y-119043121D01*
X175155324Y-119058798D01*
X175182777Y-119070124D01*
X175199353Y-119076387D01*
X175203555Y-119077398D01*
X175207168Y-119070160D01*
X175215423Y-119049861D01*
X175227926Y-119017570D01*
X175244279Y-118974358D01*
X175264086Y-118921293D01*
X175286949Y-118859445D01*
X175312474Y-118789885D01*
X175340262Y-118713682D01*
X175369917Y-118631906D01*
X175401043Y-118545625D01*
X175411376Y-118516884D01*
X175442809Y-118429214D01*
X175472692Y-118345530D01*
X175500643Y-118266920D01*
X175526282Y-118194470D01*
X175549229Y-118129267D01*
X175569102Y-118072398D01*
X175585521Y-118024949D01*
X175598105Y-117988007D01*
X175606473Y-117962658D01*
X175610245Y-117949990D01*
X175610420Y-117948798D01*
X175603448Y-117942820D01*
X175585165Y-117932238D01*
X175557964Y-117918142D01*
X175524239Y-117901620D01*
X175486383Y-117883762D01*
X175446788Y-117865655D01*
X175407847Y-117848389D01*
X175371954Y-117833052D01*
X175341501Y-117820732D01*
X175318882Y-117812519D01*
X175306489Y-117809501D01*
X175305021Y-117809862D01*
X175300684Y-117817377D01*
X175289970Y-117837110D01*
X175273448Y-117867983D01*
X175251690Y-117908917D01*
X175225265Y-117958833D01*
X175194744Y-118016654D01*
X175160698Y-118081299D01*
X175123696Y-118151691D01*
X175084309Y-118226751D01*
X175053851Y-118284879D01*
X175012162Y-118364466D01*
X174971772Y-118441526D01*
X174933338Y-118514809D01*
X174897517Y-118583067D01*
X174864963Y-118645050D01*
X174836335Y-118699508D01*
X174812288Y-118745193D01*
X174793478Y-118780855D01*
X174780561Y-118805245D01*
X174775814Y-118814134D01*
X174743291Y-118874546D01*
X174433780Y-118874546D01*
X174457430Y-118851241D01*
X174793624Y-118209864D01*
X175112979Y-117600612D01*
X175510923Y-117600612D01*
X175520184Y-117606263D01*
X175539551Y-117616060D01*
X175565347Y-117628331D01*
X175593896Y-117641406D01*
X175621521Y-117653612D01*
X175644546Y-117663278D01*
X175659295Y-117668732D01*
X175662122Y-117669363D01*
X175666810Y-117662829D01*
X175677003Y-117643958D01*
X175692054Y-117614095D01*
X175711312Y-117574586D01*
X175734129Y-117526776D01*
X175759856Y-117472012D01*
X175787844Y-117411637D01*
X175814357Y-117353775D01*
X175843584Y-117289500D01*
X175870730Y-117229525D01*
X175895189Y-117175201D01*
X175916360Y-117127883D01*
X175933639Y-117088924D01*
X175946422Y-117059677D01*
X175954106Y-117041495D01*
X175956162Y-117035710D01*
X175945806Y-117029449D01*
X175925823Y-117019917D01*
X175899581Y-117008469D01*
X175870447Y-116996462D01*
X175841786Y-116985250D01*
X175816968Y-116976188D01*
X175799358Y-116970632D01*
X175792405Y-116969795D01*
X175787151Y-116978867D01*
X175776802Y-116999711D01*
X175762097Y-117030669D01*
X175743776Y-117070085D01*
X175722577Y-117116301D01*
X175699240Y-117167661D01*
X175674505Y-117222506D01*
X175649111Y-117279180D01*
X175623797Y-117336026D01*
X175599304Y-117391386D01*
X175576370Y-117443604D01*
X175555735Y-117491022D01*
X175538138Y-117531983D01*
X175524320Y-117564830D01*
X175515018Y-117587906D01*
X175510973Y-117599554D01*
X175510923Y-117600612D01*
X175112979Y-117600612D01*
X175129818Y-117568488D01*
X175183081Y-117549721D01*
X175209644Y-117539870D01*
X175230630Y-117531181D01*
X175241994Y-117525343D01*
X175242581Y-117524855D01*
X175246756Y-117517089D01*
X175256567Y-117496892D01*
X175271443Y-117465491D01*
X175290812Y-117424115D01*
X175314104Y-117373992D01*
X175340747Y-117316350D01*
X175370171Y-117252415D01*
X175401806Y-117183417D01*
X175428854Y-117124230D01*
X175608889Y-116729702D01*
X175695156Y-116696920D01*
X175731325Y-116683301D01*
X175756510Y-116674503D01*
X175773735Y-116669975D01*
X175786025Y-116669167D01*
X175796402Y-116671525D01*
X175807679Y-116676401D01*
X175833934Y-116688663D01*
X175856098Y-116659733D01*
X175869480Y-116643910D01*
X175890947Y-116620398D01*
X175917868Y-116592005D01*
X175947609Y-116561540D01*
X175957368Y-116551735D01*
X176050396Y-116468252D01*
X176148939Y-116398544D01*
X176253942Y-116342096D01*
X176366348Y-116298393D01*
X176475310Y-116269386D01*
X176521765Y-116262112D01*
X176579261Y-116257265D01*
X176644038Y-116254813D01*
X176712338Y-116254722D01*
X176780400Y-116256958D01*
G37*
G04 #@! TO.C,svg2mod*
G36*
X170248475Y-73133463D02*
G01*
X170289750Y-73148544D01*
X170321897Y-73190613D01*
X170332613Y-73272369D01*
X170317531Y-73360475D01*
X170272288Y-73402544D01*
X170191325Y-73412069D01*
X169308675Y-73412069D01*
X169253906Y-73409688D01*
X169211837Y-73394606D01*
X169179691Y-73352538D01*
X169168975Y-73270781D01*
X169183659Y-73182278D01*
X169227712Y-73139019D01*
X169310262Y-73131081D01*
X170192913Y-73131081D01*
X170248475Y-73133463D01*
G37*
G36*
X169349156Y-70795869D02*
G01*
X169383287Y-70822856D01*
X169397575Y-70903819D01*
X169397575Y-71207031D01*
X170196088Y-71207031D01*
X170250062Y-71209412D01*
X170290544Y-71223700D01*
X170323088Y-71265769D01*
X170332613Y-71345144D01*
X170323088Y-71423725D01*
X170290544Y-71465000D01*
X170249269Y-71479287D01*
X170194500Y-71481669D01*
X169397575Y-71481669D01*
X169397575Y-71786469D01*
X169385669Y-71861081D01*
X169348362Y-71892831D01*
X169281687Y-71900769D01*
X169215806Y-71892831D01*
X169181675Y-71865844D01*
X169167387Y-71784881D01*
X169167387Y-70902231D01*
X169179294Y-70827619D01*
X169216600Y-70795869D01*
X169283275Y-70787931D01*
X169349156Y-70795869D01*
G37*
G36*
X170248475Y-71990462D02*
G01*
X170289750Y-72005544D01*
X170321897Y-72047612D01*
X170332613Y-72129369D01*
X170323088Y-72215094D01*
X170292925Y-72254781D01*
X170143347Y-72367053D01*
X170012114Y-72465742D01*
X169899225Y-72550850D01*
X169804681Y-72622376D01*
X169728481Y-72680319D01*
X169670625Y-72724681D01*
X170192913Y-72724681D01*
X170248475Y-72727063D01*
X170289750Y-72742144D01*
X170321897Y-72784213D01*
X170332613Y-72865969D01*
X170321897Y-72945344D01*
X170289750Y-72986619D01*
X170246888Y-73001700D01*
X170191325Y-73004081D01*
X169305500Y-73004081D01*
X169217394Y-72989000D01*
X169180087Y-72943756D01*
X169170562Y-72865969D01*
X169179294Y-72790563D01*
X169199137Y-72751669D01*
X169240412Y-72715156D01*
X169383684Y-72609676D01*
X169509758Y-72516542D01*
X169618634Y-72435756D01*
X169710312Y-72367317D01*
X169784793Y-72311226D01*
X169842075Y-72267481D01*
X169305500Y-72267481D01*
X169217394Y-72252400D01*
X169180087Y-72207156D01*
X169170562Y-72131750D01*
X169178500Y-72058725D01*
X169197550Y-72017450D01*
X169230887Y-71997606D01*
X169311850Y-71988081D01*
X170192913Y-71988081D01*
X170248475Y-71990462D01*
G37*
G36*
X159701175Y-70453316D02*
G01*
X159809273Y-70485314D01*
X159908740Y-70538644D01*
X159999575Y-70613306D01*
X160075279Y-70703149D01*
X160129353Y-70802020D01*
X160161798Y-70909921D01*
X160172613Y-71026850D01*
X160172613Y-71317362D01*
X160162691Y-71395944D01*
X160132925Y-71438012D01*
X160031325Y-71457062D01*
X159148675Y-71457062D01*
X159093112Y-71454681D01*
X159051837Y-71439600D01*
X159019691Y-71397531D01*
X159008975Y-71315775D01*
X159010553Y-71023675D01*
X159291550Y-71023675D01*
X159291550Y-71176075D01*
X159891625Y-71176075D01*
X159891625Y-71022087D01*
X159870392Y-70913344D01*
X159806694Y-70815712D01*
X159710848Y-70746656D01*
X159593175Y-70723637D01*
X159475105Y-70746061D01*
X159378069Y-70813331D01*
X159313180Y-70910764D01*
X159291550Y-71023675D01*
X159010553Y-71023675D01*
X159010562Y-71022087D01*
X159020931Y-70910466D01*
X159052036Y-70805791D01*
X159103878Y-70708060D01*
X159176456Y-70617275D01*
X159264166Y-70540877D01*
X159361400Y-70486306D01*
X159468159Y-70453564D01*
X159584444Y-70442650D01*
X159701175Y-70453316D01*
G37*
G36*
X160090062Y-71586444D02*
G01*
X160131338Y-71601525D01*
X160163484Y-71643594D01*
X160174200Y-71725350D01*
X160164675Y-71811075D01*
X160134513Y-71850762D01*
X159984935Y-71963034D01*
X159853701Y-72061724D01*
X159740813Y-72146831D01*
X159646268Y-72218357D01*
X159570068Y-72276301D01*
X159512212Y-72320663D01*
X160034500Y-72320663D01*
X160090062Y-72323044D01*
X160131338Y-72338125D01*
X160163484Y-72380194D01*
X160174200Y-72461950D01*
X160163484Y-72541325D01*
X160131338Y-72582600D01*
X160088475Y-72597681D01*
X160032913Y-72600062D01*
X159147087Y-72600062D01*
X159058981Y-72584981D01*
X159021675Y-72539738D01*
X159012150Y-72461950D01*
X159020881Y-72386544D01*
X159040725Y-72347650D01*
X159082000Y-72311138D01*
X159225272Y-72205657D01*
X159351346Y-72112524D01*
X159460222Y-72031737D01*
X159551900Y-71963299D01*
X159626380Y-71907207D01*
X159683663Y-71863462D01*
X159147087Y-71863462D01*
X159058981Y-71848381D01*
X159021675Y-71803137D01*
X159012150Y-71727731D01*
X159020087Y-71654706D01*
X159039137Y-71613431D01*
X159072475Y-71593587D01*
X159153437Y-71584062D01*
X160034500Y-71584062D01*
X160090062Y-71586444D01*
G37*
G36*
X160051963Y-72771513D02*
G01*
X160112387Y-72846522D01*
X160155547Y-72938200D01*
X160181443Y-73046547D01*
X160190075Y-73171563D01*
X160178913Y-73285962D01*
X160145427Y-73392622D01*
X160089616Y-73491543D01*
X160011481Y-73582725D01*
X159917571Y-73659123D01*
X159814433Y-73713694D01*
X159702068Y-73746436D01*
X159580475Y-73757350D01*
X159459478Y-73746238D01*
X159348898Y-73712900D01*
X159248737Y-73657338D01*
X159158994Y-73579550D01*
X159085026Y-73486681D01*
X159032192Y-73385875D01*
X159000492Y-73277131D01*
X158989925Y-73160450D01*
X159003683Y-73037860D01*
X159044958Y-72919856D01*
X159113750Y-72806438D01*
X159184394Y-72763575D01*
X159274087Y-72800088D01*
X159337191Y-72859222D01*
X159358225Y-72912800D01*
X159314569Y-73009638D01*
X159281827Y-73082663D01*
X159270912Y-73168388D01*
X159292145Y-73282291D01*
X159355844Y-73382700D01*
X159453872Y-73452947D01*
X159578094Y-73476363D01*
X159665053Y-73465779D01*
X159742841Y-73434029D01*
X159811456Y-73381113D01*
X159883489Y-73279513D01*
X159907500Y-73165213D01*
X159900356Y-73082266D01*
X159878925Y-73008050D01*
X159705888Y-73008050D01*
X159705888Y-73133463D01*
X159693188Y-73203313D01*
X159655881Y-73230300D01*
X159589206Y-73236650D01*
X159521737Y-73229506D01*
X159486812Y-73203313D01*
X159472525Y-73127113D01*
X159472525Y-72847713D01*
X159516975Y-72742938D01*
X159605875Y-72727063D01*
X159955125Y-72727063D01*
X160051963Y-72771513D01*
G37*
D12*
G04 #@! TO.C,U4*
X121000000Y-96000000D02*
X121000000Y-96500000D01*
X121492500Y-96250000D02*
X121000000Y-96000000D01*
X121492500Y-96250000D02*
X121000000Y-96500000D01*
D13*
X121642500Y-86860000D02*
X123942500Y-86860000D01*
X121642500Y-88090000D02*
X121642500Y-87340000D01*
X121642500Y-96860000D02*
X121642500Y-96120000D01*
X121642500Y-97340000D02*
X123942500Y-97340000D01*
X123942500Y-88090000D02*
X123942500Y-87340000D01*
X123942500Y-96860000D02*
X123942500Y-96120000D01*
D11*
G04 #@! TO.C,svg2mod*
G36*
X130818280Y-71428934D02*
G01*
X130914919Y-71494419D01*
X130965631Y-71558977D01*
X130996058Y-71636235D01*
X131006200Y-71726194D01*
X130996146Y-71815976D01*
X130965983Y-71892705D01*
X130915712Y-71956381D01*
X130819669Y-72020675D01*
X130712512Y-72042106D01*
X130605158Y-72020080D01*
X130508519Y-71954000D01*
X130457807Y-71889353D01*
X130427380Y-71812889D01*
X130417237Y-71724606D01*
X130427292Y-71636324D01*
X130457454Y-71559859D01*
X130507725Y-71495212D01*
X130603769Y-71429133D01*
X130710925Y-71407106D01*
X130818280Y-71428934D01*
G37*
G36*
X130136250Y-70944615D02*
G01*
X134263750Y-70944615D01*
X134594479Y-70944615D01*
X135047710Y-70944615D01*
X134594479Y-72455385D01*
X134263750Y-72455385D01*
X130136250Y-72455385D01*
X129805521Y-72455385D01*
X129352290Y-72455385D01*
X129569142Y-71732544D01*
X130136250Y-71732544D01*
X130146817Y-71849027D01*
X130178517Y-71957175D01*
X130231351Y-72056989D01*
X130305319Y-72148469D01*
X130394665Y-72224867D01*
X130493636Y-72279438D01*
X130602231Y-72312180D01*
X130720450Y-72323094D01*
X130839160Y-72310394D01*
X130949756Y-72272294D01*
X131052237Y-72208794D01*
X131109387Y-72246894D01*
X131153837Y-72277056D01*
X131245912Y-72319919D01*
X131294728Y-72302456D01*
X131342750Y-72250069D01*
X131390375Y-72141325D01*
X131333225Y-72059569D01*
X131228450Y-71988131D01*
X131261082Y-71901172D01*
X131280661Y-71813859D01*
X131287187Y-71726194D01*
X131276373Y-71601674D01*
X131269747Y-71578556D01*
X131438000Y-71578556D01*
X131453875Y-71640469D01*
X131693587Y-72224669D01*
X131738037Y-72281025D01*
X131820587Y-72308806D01*
X131907900Y-72270706D01*
X131933300Y-72237369D01*
X131946794Y-72211175D01*
X131957906Y-72182600D01*
X131997594Y-72074650D01*
X132024780Y-72000236D01*
X132044425Y-71950031D01*
X132090815Y-72073503D01*
X132122036Y-72156053D01*
X132138087Y-72197681D01*
X132150787Y-72224669D01*
X132196031Y-72281025D01*
X132266675Y-72308806D01*
X132327000Y-72297694D01*
X132374625Y-72258800D01*
X132406375Y-72199269D01*
X132581000Y-71773819D01*
X132623863Y-71669837D01*
X132642272Y-71607131D01*
X132736575Y-71607131D01*
X132736575Y-72164344D01*
X132738956Y-72219906D01*
X132752450Y-72261181D01*
X132794122Y-72293328D01*
X132874688Y-72304044D01*
X132956047Y-72293725D01*
X132996925Y-72262769D01*
X133012006Y-72220700D01*
X133014388Y-72165931D01*
X133014388Y-71610306D01*
X133014278Y-71607131D01*
X133141388Y-71607131D01*
X133141388Y-72164344D01*
X133143769Y-72219906D01*
X133157263Y-72261181D01*
X133198934Y-72293328D01*
X133279500Y-72304044D01*
X133360859Y-72293725D01*
X133401738Y-72262769D01*
X133416819Y-72220700D01*
X133419200Y-72165931D01*
X133419200Y-71882563D01*
X133522388Y-71882563D01*
X133532706Y-71980591D01*
X133563663Y-72069888D01*
X133610891Y-72146286D01*
X133670025Y-72205619D01*
X133762276Y-72264709D01*
X133856997Y-72300163D01*
X133954188Y-72311981D01*
X134075631Y-72296106D01*
X134176438Y-72248481D01*
X134241922Y-72194109D01*
X134263750Y-72135769D01*
X134227238Y-72053219D01*
X134164134Y-71990116D01*
X134111350Y-71969081D01*
X134040706Y-71998450D01*
X133947044Y-72027819D01*
X133852588Y-71990513D01*
X133808138Y-71885738D01*
X133854175Y-71780169D01*
X133953394Y-71742069D01*
X134035150Y-71769056D01*
X134120875Y-71803981D01*
X134174453Y-71782153D01*
X134230413Y-71716669D01*
X134263750Y-71625387D01*
X134222475Y-71553156D01*
X134178025Y-71522994D01*
X134152625Y-71507119D01*
X134068488Y-71474575D01*
X133951013Y-71457906D01*
X133853469Y-71469548D01*
X133759807Y-71504473D01*
X133670025Y-71562681D01*
X133610891Y-71621617D01*
X133563663Y-71696825D01*
X133532706Y-71784931D01*
X133522388Y-71882563D01*
X133419200Y-71882563D01*
X133419200Y-71610306D01*
X133417613Y-71564269D01*
X133389038Y-71496006D01*
X133281088Y-71469019D01*
X133199331Y-71479337D01*
X133157263Y-71510294D01*
X133143769Y-71552362D01*
X133141388Y-71607131D01*
X133014278Y-71607131D01*
X133012800Y-71564269D01*
X132984225Y-71496006D01*
X132876275Y-71469019D01*
X132794519Y-71479337D01*
X132752450Y-71510294D01*
X132738956Y-71552362D01*
X132736575Y-71607131D01*
X132642272Y-71607131D01*
X132649263Y-71583319D01*
X132623863Y-71523391D01*
X132547663Y-71473781D01*
X132484163Y-71457906D01*
X132417488Y-71483306D01*
X132369863Y-71559506D01*
X132273025Y-71823031D01*
X132256268Y-71780698D01*
X132225047Y-71696031D01*
X132179362Y-71569031D01*
X132166662Y-71542044D01*
X132119831Y-71491244D01*
X132038075Y-71465844D01*
X131944412Y-71511881D01*
X131909487Y-71567444D01*
X131815825Y-71824619D01*
X131765201Y-71687035D01*
X131727631Y-71587552D01*
X131703112Y-71526169D01*
X131690412Y-71498387D01*
X131662631Y-71471400D01*
X131611037Y-71457906D01*
X131528487Y-71478544D01*
X131460622Y-71521803D01*
X131438000Y-71578556D01*
X131269747Y-71578556D01*
X131243928Y-71488466D01*
X131189854Y-71386568D01*
X131114150Y-71295981D01*
X131023762Y-71221666D01*
X131011474Y-71215019D01*
X132736575Y-71215019D01*
X132738956Y-71269787D01*
X132753244Y-71311856D01*
X132795313Y-71345194D01*
X132875481Y-71354719D01*
X132955650Y-71345194D01*
X132997719Y-71312650D01*
X133012006Y-71271375D01*
X133014388Y-71216606D01*
X133014319Y-71215019D01*
X133141388Y-71215019D01*
X133143769Y-71269787D01*
X133158056Y-71311856D01*
X133200125Y-71345194D01*
X133280294Y-71354719D01*
X133360463Y-71345194D01*
X133402531Y-71312650D01*
X133416819Y-71271375D01*
X133419200Y-71216606D01*
X133416819Y-71161837D01*
X133401738Y-71119769D01*
X133361256Y-71087622D01*
X133281088Y-71076906D01*
X133199331Y-71087622D01*
X133157263Y-71119769D01*
X133143769Y-71160250D01*
X133141388Y-71215019D01*
X133014319Y-71215019D01*
X133012006Y-71161837D01*
X132996925Y-71119769D01*
X132956444Y-71087622D01*
X132876275Y-71076906D01*
X132794519Y-71087622D01*
X132752450Y-71119769D01*
X132738956Y-71160250D01*
X132736575Y-71215019D01*
X131011474Y-71215019D01*
X130925634Y-71168584D01*
X130819768Y-71136735D01*
X130706162Y-71126119D01*
X130598212Y-71137231D01*
X130493437Y-71170569D01*
X130396203Y-71223353D01*
X130310875Y-71292806D01*
X130239437Y-71379920D01*
X130183875Y-71485687D01*
X130148156Y-71604948D01*
X130136250Y-71732544D01*
X129569142Y-71732544D01*
X129805521Y-70944615D01*
X130136250Y-70944615D01*
G37*
G36*
X165202606Y-70679981D02*
G01*
X165237531Y-70706969D01*
X165253406Y-70789519D01*
X165253406Y-71361019D01*
X165238325Y-71449125D01*
X165193081Y-71491194D01*
X165112119Y-71500719D01*
X164229469Y-71500719D01*
X164174700Y-71498337D01*
X164132631Y-71483256D01*
X164100484Y-71441187D01*
X164089769Y-71359431D01*
X164104453Y-71270928D01*
X164148506Y-71227669D01*
X164231056Y-71219731D01*
X165018456Y-71219731D01*
X165018456Y-70787931D01*
X165030363Y-70711731D01*
X165067669Y-70679981D01*
X165135138Y-70672044D01*
X165202606Y-70679981D01*
G37*
G36*
X164362819Y-71637244D02*
G01*
X164427112Y-71695981D01*
X164448544Y-71748369D01*
X164413619Y-71829331D01*
X164373137Y-71907119D01*
X164359644Y-72007131D01*
X164377503Y-72109525D01*
X164431081Y-72210331D01*
X164529506Y-72289706D01*
X164597173Y-72313519D01*
X164673175Y-72321456D01*
X164749177Y-72313519D01*
X164816844Y-72289706D01*
X164916856Y-72208744D01*
X164969244Y-72109922D01*
X164986706Y-72007131D01*
X164974006Y-71914262D01*
X164948606Y-71851556D01*
X164927969Y-71822981D01*
X164896219Y-71746781D01*
X164918444Y-71695584D01*
X164985119Y-71640419D01*
X165074019Y-71605494D01*
X165129581Y-71626925D01*
X165169269Y-71676931D01*
X165202606Y-71731700D01*
X165243881Y-71838856D01*
X165262931Y-71918430D01*
X165269281Y-71995225D01*
X165264320Y-72071028D01*
X165249438Y-72147625D01*
X165222847Y-72225809D01*
X165182763Y-72306375D01*
X165130772Y-72383964D01*
X165068463Y-72453219D01*
X164991469Y-72512552D01*
X164895425Y-72560375D01*
X164785292Y-72591927D01*
X164666031Y-72602444D01*
X164547961Y-72592125D01*
X164441400Y-72561169D01*
X164349325Y-72514139D01*
X164274712Y-72455600D01*
X164214189Y-72386742D01*
X164164381Y-72308756D01*
X164116756Y-72204863D01*
X164088181Y-72100617D01*
X164078656Y-71996019D01*
X164084411Y-71920811D01*
X164101675Y-71844412D01*
X164148506Y-71727731D01*
X164170731Y-71689631D01*
X164199306Y-71645181D01*
X164274712Y-71603906D01*
X164362819Y-71637244D01*
G37*
G36*
X164978967Y-72692138D02*
G01*
X165063700Y-72723094D01*
X165133352Y-72770719D01*
X165185144Y-72831044D01*
X165231887Y-72918709D01*
X165259933Y-73010255D01*
X165269281Y-73105681D01*
X165264717Y-73178309D01*
X165251025Y-73246969D01*
X165205781Y-73354919D01*
X165155775Y-73426356D01*
X165107356Y-73472394D01*
X165089894Y-73486681D01*
X164998613Y-73527956D01*
X164951583Y-73510891D01*
X164891456Y-73459694D01*
X164853356Y-73375556D01*
X164873200Y-73322375D01*
X164932731Y-73251731D01*
X164984325Y-73188231D01*
X165008931Y-73112031D01*
X164995526Y-73030010D01*
X164955309Y-72980798D01*
X164888281Y-72964394D01*
X164827163Y-73004875D01*
X164791444Y-73105681D01*
X164776958Y-73168388D01*
X164755725Y-73235856D01*
X164728936Y-73303325D01*
X164697781Y-73366031D01*
X164654720Y-73421395D01*
X164592212Y-73466838D01*
X164512639Y-73497198D01*
X164418381Y-73507319D01*
X164329217Y-73495765D01*
X164247990Y-73461105D01*
X164174700Y-73403338D01*
X164116933Y-73325638D01*
X164082272Y-73231182D01*
X164070719Y-73119969D01*
X164076870Y-73028886D01*
X164095325Y-72946138D01*
X164145331Y-72837394D01*
X164175494Y-72797706D01*
X164253281Y-72748494D01*
X164340594Y-72786594D01*
X164400125Y-72841363D01*
X164419969Y-72897719D01*
X164388219Y-72980269D01*
X164372344Y-72998525D01*
X164351706Y-73023131D01*
X164331069Y-73108063D01*
X164355675Y-73193788D01*
X164423937Y-73227919D01*
X164494581Y-73187438D01*
X164531094Y-73086631D01*
X164543198Y-73023528D01*
X164560462Y-72954869D01*
X164582489Y-72886209D01*
X164608881Y-72823106D01*
X164647973Y-72767742D01*
X164708100Y-72722300D01*
X164786880Y-72691939D01*
X164881931Y-72681819D01*
X164978967Y-72692138D01*
G37*
G36*
X129860025Y-73200000D02*
G01*
X129887806Y-73258738D01*
X129827481Y-73309538D01*
X129627456Y-73309538D01*
X129678256Y-73219844D01*
X129780650Y-73177775D01*
X129860025Y-73200000D01*
G37*
G36*
X133462063Y-73266675D02*
G01*
X133499369Y-73362719D01*
X133460475Y-73457175D01*
X133362844Y-73500038D01*
X133262831Y-73457969D01*
X133221556Y-73363513D01*
X133260450Y-73266675D01*
X133362050Y-73222225D01*
X133462063Y-73266675D01*
G37*
G36*
X134973561Y-72905916D02*
G01*
X135070200Y-72971400D01*
X135120912Y-73035958D01*
X135151339Y-73113217D01*
X135161481Y-73203175D01*
X135151427Y-73292957D01*
X135121265Y-73369686D01*
X135070994Y-73433363D01*
X134974950Y-73497656D01*
X134867794Y-73519088D01*
X134760439Y-73497061D01*
X134663800Y-73430981D01*
X134613088Y-73366335D01*
X134582661Y-73289870D01*
X134572519Y-73201588D01*
X134582573Y-73113305D01*
X134612735Y-73036840D01*
X134663006Y-72972194D01*
X134759050Y-72906114D01*
X134866206Y-72884087D01*
X134973561Y-72905916D01*
G37*
G36*
X127693881Y-72466046D02*
G01*
X136706119Y-72466046D01*
X137036848Y-72466046D01*
X137477220Y-72466046D01*
X137036848Y-73933954D01*
X136706119Y-73933954D01*
X127693881Y-73933954D01*
X127363152Y-73933954D01*
X126922780Y-73933954D01*
X127045097Y-73526231D01*
X127693881Y-73526231D01*
X127735156Y-73617513D01*
X127749444Y-73634975D01*
X127795481Y-73683394D01*
X127866919Y-73733400D01*
X127974869Y-73778644D01*
X128043528Y-73792336D01*
X128116156Y-73796900D01*
X128211583Y-73787551D01*
X128303128Y-73759506D01*
X128390794Y-73712763D01*
X128451119Y-73660970D01*
X128498744Y-73591319D01*
X128529700Y-73506586D01*
X128540019Y-73409550D01*
X128529898Y-73314498D01*
X128499537Y-73235719D01*
X128454095Y-73175592D01*
X128398731Y-73136500D01*
X128335628Y-73110108D01*
X128318927Y-73104750D01*
X128603519Y-73104750D01*
X128626537Y-73196825D01*
X128684481Y-73223813D01*
X128749569Y-73219050D01*
X128749569Y-73454000D01*
X128759094Y-73561068D01*
X128787669Y-73645206D01*
X128835294Y-73706413D01*
X128901263Y-73747864D01*
X128984872Y-73772735D01*
X129086119Y-73781025D01*
X129139300Y-73778644D01*
X129181369Y-73765150D01*
X129214706Y-73723478D01*
X129225819Y-73642913D01*
X129189306Y-73536550D01*
X129147237Y-73521469D01*
X129090087Y-73519088D01*
X129039287Y-73500038D01*
X129025794Y-73438125D01*
X129025794Y-73366688D01*
X129332181Y-73366688D01*
X129343294Y-73469169D01*
X129376631Y-73564949D01*
X129432194Y-73654025D01*
X129493114Y-73714152D01*
X129574275Y-73761181D01*
X129672105Y-73791542D01*
X129783031Y-73801663D01*
X129930966Y-73792832D01*
X130036634Y-73766341D01*
X130100035Y-73722188D01*
X130121169Y-73660375D01*
X130115785Y-73641325D01*
X130265631Y-73641325D01*
X130268012Y-73696888D01*
X130281506Y-73738163D01*
X130323178Y-73770309D01*
X130403744Y-73781025D01*
X130484706Y-73770706D01*
X130527569Y-73739750D01*
X130542650Y-73697681D01*
X130545031Y-73642913D01*
X130545031Y-73361925D01*
X130568844Y-73258341D01*
X130640281Y-73223813D01*
X130714100Y-73258341D01*
X130738706Y-73361925D01*
X130738706Y-73639738D01*
X130741087Y-73694506D01*
X130754581Y-73736575D01*
X130796253Y-73769913D01*
X130876819Y-73781025D01*
X130958575Y-73770309D01*
X131000644Y-73738163D01*
X131015725Y-73696888D01*
X131018106Y-73641325D01*
X131018106Y-73363513D01*
X131037950Y-73260325D01*
X131113356Y-73223813D01*
X131187175Y-73258341D01*
X131211781Y-73361925D01*
X131211781Y-73639738D01*
X131214162Y-73694506D01*
X131227656Y-73736575D01*
X131269328Y-73769913D01*
X131349894Y-73781025D01*
X131431253Y-73770309D01*
X131472131Y-73738163D01*
X131487212Y-73696094D01*
X131489594Y-73641325D01*
X131489594Y-73363513D01*
X131480069Y-73227428D01*
X131451494Y-73119743D01*
X131429138Y-73082525D01*
X131616594Y-73082525D01*
X131616594Y-73641325D01*
X131618975Y-73696888D01*
X131632469Y-73738163D01*
X131674141Y-73770309D01*
X131754706Y-73781025D01*
X131835669Y-73770706D01*
X131878531Y-73739750D01*
X131893612Y-73697681D01*
X131895994Y-73642913D01*
X131895994Y-73361925D01*
X131919806Y-73258341D01*
X131991244Y-73223813D01*
X132065062Y-73258341D01*
X132089669Y-73361925D01*
X132089669Y-73639738D01*
X132092050Y-73694506D01*
X132105544Y-73736575D01*
X132147216Y-73769913D01*
X132227781Y-73781025D01*
X132309538Y-73770309D01*
X132351606Y-73738163D01*
X132366688Y-73696888D01*
X132369069Y-73641325D01*
X132369069Y-73363513D01*
X132388913Y-73260325D01*
X132464319Y-73223813D01*
X132538138Y-73258341D01*
X132562744Y-73361925D01*
X132562744Y-73639738D01*
X132565125Y-73694506D01*
X132578619Y-73736575D01*
X132620291Y-73769913D01*
X132700856Y-73781025D01*
X132782216Y-73770309D01*
X132823094Y-73738163D01*
X132838175Y-73696094D01*
X132840556Y-73641325D01*
X132840556Y-73363513D01*
X132840389Y-73361131D01*
X132943744Y-73361131D01*
X132956797Y-73467229D01*
X132995955Y-73564331D01*
X133061219Y-73652438D01*
X133141740Y-73722111D01*
X133226672Y-73763915D01*
X133316013Y-73777850D01*
X133433686Y-73756816D01*
X133512069Y-73693713D01*
X133546200Y-73756419D01*
X133662088Y-73777850D01*
X133732533Y-73767531D01*
X133770831Y-73736575D01*
X133784325Y-73694506D01*
X133786706Y-73639738D01*
X133786706Y-73209525D01*
X134291531Y-73209525D01*
X134302098Y-73326008D01*
X134333798Y-73434156D01*
X134386632Y-73533970D01*
X134460600Y-73625450D01*
X134549946Y-73701848D01*
X134648917Y-73756419D01*
X134757512Y-73789161D01*
X134875731Y-73800075D01*
X134994441Y-73787375D01*
X135105037Y-73749275D01*
X135207519Y-73685775D01*
X135264669Y-73723875D01*
X135309119Y-73754038D01*
X135401194Y-73796900D01*
X135450009Y-73779438D01*
X135498031Y-73727050D01*
X135545656Y-73618306D01*
X135488506Y-73536550D01*
X135383731Y-73465113D01*
X135416363Y-73378153D01*
X135435942Y-73290840D01*
X135442469Y-73203175D01*
X135431654Y-73078655D01*
X135399209Y-72965447D01*
X135345135Y-72863549D01*
X135269431Y-72772962D01*
X135217298Y-72730100D01*
X135593281Y-72730100D01*
X135601219Y-72796775D01*
X135632969Y-72834081D01*
X135707581Y-72845987D01*
X136012381Y-72845987D01*
X136012381Y-73642913D01*
X136014763Y-73697681D01*
X136029050Y-73738956D01*
X136070325Y-73771500D01*
X136148906Y-73781025D01*
X136228281Y-73771500D01*
X136270350Y-73738956D01*
X136284638Y-73698475D01*
X136287019Y-73644500D01*
X136287019Y-72845987D01*
X136590231Y-72845987D01*
X136671194Y-72831700D01*
X136698181Y-72797569D01*
X136706119Y-72731687D01*
X136698181Y-72665012D01*
X136666431Y-72627706D01*
X136591819Y-72615800D01*
X135709169Y-72615800D01*
X135628206Y-72630087D01*
X135601219Y-72664219D01*
X135593281Y-72730100D01*
X135217298Y-72730100D01*
X135179043Y-72698648D01*
X135080916Y-72645566D01*
X134975049Y-72613716D01*
X134861444Y-72603100D01*
X134753494Y-72614212D01*
X134648719Y-72647550D01*
X134551484Y-72700334D01*
X134466156Y-72769787D01*
X134394719Y-72856902D01*
X134339156Y-72962669D01*
X134303438Y-73081930D01*
X134291531Y-73209525D01*
X133786706Y-73209525D01*
X133786706Y-73084112D01*
X133784325Y-73029344D01*
X133770038Y-72987275D01*
X133727969Y-72953937D01*
X133635894Y-72944412D01*
X133546597Y-72966637D01*
X133510481Y-73033312D01*
X133481906Y-73000769D01*
X133419994Y-72965050D01*
X133321569Y-72946000D01*
X133229935Y-72959847D01*
X133143416Y-73001386D01*
X133062013Y-73070619D01*
X132996308Y-73158284D01*
X132956885Y-73255122D01*
X132943744Y-73361131D01*
X132840389Y-73361131D01*
X132831031Y-73227428D01*
X132802456Y-73119743D01*
X132754831Y-73040456D01*
X132658788Y-72967233D01*
X132542106Y-72942825D01*
X132430981Y-72973781D01*
X132352400Y-73030931D01*
X132310331Y-73080937D01*
X132248242Y-73004208D01*
X132167809Y-72958171D01*
X132069031Y-72942825D01*
X131971797Y-72971003D01*
X131889644Y-73055537D01*
X131862656Y-72972987D01*
X131746769Y-72944412D01*
X131674141Y-72955128D01*
X131634056Y-72987275D01*
X131618975Y-73027756D01*
X131616594Y-73082525D01*
X131429138Y-73082525D01*
X131403869Y-73040456D01*
X131307825Y-72967233D01*
X131191144Y-72942825D01*
X131080019Y-72973781D01*
X131001437Y-73030931D01*
X130959369Y-73080937D01*
X130897280Y-73004208D01*
X130816847Y-72958171D01*
X130718069Y-72942825D01*
X130620834Y-72971003D01*
X130538681Y-73055537D01*
X130511694Y-72972987D01*
X130395806Y-72944412D01*
X130323178Y-72955128D01*
X130283094Y-72987275D01*
X130268012Y-73027756D01*
X130265631Y-73082525D01*
X130265631Y-73641325D01*
X130115785Y-73641325D01*
X130100531Y-73587350D01*
X130013219Y-73515913D01*
X129949719Y-73533375D01*
X129932256Y-73539725D01*
X129869947Y-73554013D01*
X129787794Y-73558775D01*
X129683019Y-73528613D01*
X129630631Y-73454000D01*
X130006869Y-73454000D01*
X130114025Y-73407169D01*
X130150339Y-73347638D01*
X130162444Y-73262706D01*
X130148950Y-73168845D01*
X130108469Y-73082525D01*
X130049533Y-73014461D01*
X129975912Y-72965844D01*
X129887608Y-72936673D01*
X129784619Y-72926950D01*
X129662646Y-72940267D01*
X129554960Y-72980219D01*
X129461562Y-73046806D01*
X129389684Y-73135618D01*
X129346557Y-73242245D01*
X129332181Y-73366688D01*
X129025794Y-73366688D01*
X129025794Y-73219050D01*
X129128981Y-73225400D01*
X129183750Y-73223019D01*
X129225819Y-73209525D01*
X129257966Y-73167853D01*
X129268681Y-73087287D01*
X129258362Y-73005928D01*
X129227406Y-72965050D01*
X129185337Y-72949969D01*
X129131362Y-72947588D01*
X129025794Y-72953937D01*
X129025794Y-72798362D01*
X129017856Y-72717400D01*
X128975391Y-72673347D01*
X128889269Y-72658662D01*
X128807909Y-72668584D01*
X128767031Y-72698350D01*
X128751950Y-72736450D01*
X128749569Y-72790425D01*
X128749569Y-72953937D01*
X128697181Y-72947588D01*
X128633681Y-72968225D01*
X128611456Y-73010294D01*
X128603519Y-73104750D01*
X128318927Y-73104750D01*
X128266969Y-73088081D01*
X128198309Y-73070817D01*
X128135206Y-73058712D01*
X128034400Y-73022200D01*
X127993919Y-72951556D01*
X128028050Y-72883294D01*
X128113775Y-72858687D01*
X128198706Y-72879325D01*
X128223312Y-72899962D01*
X128241569Y-72915837D01*
X128324119Y-72947588D01*
X128380475Y-72927744D01*
X128435244Y-72868212D01*
X128473344Y-72780900D01*
X128424131Y-72703112D01*
X128384444Y-72672950D01*
X128275700Y-72622944D01*
X128192952Y-72604489D01*
X128101869Y-72598337D01*
X127990656Y-72609891D01*
X127896199Y-72644551D01*
X127818500Y-72702319D01*
X127760733Y-72775608D01*
X127726072Y-72856835D01*
X127714519Y-72946000D01*
X127724639Y-73040258D01*
X127755000Y-73119831D01*
X127800442Y-73182339D01*
X127855806Y-73225400D01*
X127918512Y-73256555D01*
X127985981Y-73283344D01*
X128053450Y-73304577D01*
X128116156Y-73319063D01*
X128216962Y-73354781D01*
X128257444Y-73415900D01*
X128241040Y-73482928D01*
X128191827Y-73523144D01*
X128109806Y-73536550D01*
X128033606Y-73511944D01*
X127970106Y-73460350D01*
X127899462Y-73400819D01*
X127846281Y-73380975D01*
X127762144Y-73419075D01*
X127710947Y-73479202D01*
X127693881Y-73526231D01*
X127045097Y-73526231D01*
X127363152Y-72466046D01*
X127693881Y-72466046D01*
G37*
G04 #@! TD*
%LPC*%
D14*
G04 #@! TO.C,U4*
X121875000Y-97110000D03*
X123725000Y-97110000D03*
X121875000Y-87090000D03*
X123725000Y-87090000D03*
D15*
X121700000Y-95900000D03*
X121700000Y-95500000D03*
X121700000Y-95100000D03*
X121700000Y-94700000D03*
X121700000Y-94300000D03*
X121700000Y-93900000D03*
X121700000Y-93500000D03*
X121700000Y-93100000D03*
X121700000Y-92700000D03*
X121700000Y-92300000D03*
X121700000Y-91900000D03*
X121700000Y-91500000D03*
X121700000Y-91100000D03*
X121700000Y-90700000D03*
X121700000Y-90300000D03*
X121700000Y-89900000D03*
X121700000Y-89500000D03*
X121700000Y-89100000D03*
X121700000Y-88700000D03*
X121700000Y-88300000D03*
X123885000Y-88300000D03*
X123885000Y-88700000D03*
X123885000Y-89100000D03*
X123885000Y-89500000D03*
X123885000Y-89900000D03*
X123885000Y-90300000D03*
X123885000Y-90700000D03*
X123885000Y-91100000D03*
X123885000Y-91500000D03*
X123885000Y-91900000D03*
X123885000Y-92300000D03*
X123885000Y-92700000D03*
X123885000Y-93100000D03*
X123885000Y-93500000D03*
X123885000Y-93900000D03*
X123885000Y-94300000D03*
X123885000Y-94700000D03*
X123885000Y-95100000D03*
X123885000Y-95500000D03*
X123885000Y-95900000D03*
G04 #@! TD*
D16*
G04 #@! TO.C,H2*
X122200000Y-119200000D03*
G04 #@! TD*
G04 #@! TO.C,H1*
X181700000Y-73000000D03*
G04 #@! TD*
D17*
G04 #@! TO.C,J2*
X157050000Y-80475000D03*
D18*
X159590000Y-80475000D03*
X162130000Y-80475000D03*
X164670000Y-80475000D03*
X167210000Y-80475000D03*
X169750000Y-80475000D03*
G04 #@! TD*
D19*
G04 #@! TO.C,J3*
X144910000Y-76700000D03*
X150690000Y-76700000D03*
D20*
X143480000Y-73050000D03*
D21*
X143480000Y-77230000D03*
D20*
X152120000Y-73050000D03*
D21*
X152120000Y-77230000D03*
G04 #@! TD*
%LPD*%
M02*
