G04 #@! TF.GenerationSoftware,KiCad,Pcbnew,9.0.0*
G04 #@! TF.CreationDate,2025-04-02T18:41:46+03:00*
G04 #@! TF.ProjectId,bbq20_keyboard,62627132-305f-46b6-9579-626f6172642e,2*
G04 #@! TF.SameCoordinates,Original*
G04 #@! TF.FileFunction,Profile,NP*
%FSLAX46Y46*%
G04 Gerber Fmt 4.6, Leading zero omitted, Abs format (unit mm)*
G04 Created by KiCad (PCBNEW 9.0.0) date 2025-04-02 18:41:46*
%MOMM*%
%LPD*%
G01*
G04 APERTURE LIST*
G04 #@! TA.AperFunction,Profile*
%ADD10C,0.100000*%
G04 #@! TD*
G04 APERTURE END LIST*
D10*
X119600000Y-99300000D02*
X116699999Y-99300000D01*
X181700000Y-69900000D02*
G75*
G02*
X184800000Y-73000000I0J-3100000D01*
G01*
X127400000Y-77400000D02*
X117000000Y-77400000D01*
X116600000Y-77800000D02*
G75*
G02*
X117000000Y-77400000I400000J0D01*
G01*
X116999999Y-81400000D02*
X127400000Y-81400000D01*
X181700000Y-69900000D02*
X113900000Y-69900000D01*
X119600001Y-84600000D02*
X116700001Y-84600000D01*
X119600001Y-84600000D02*
G75*
G02*
X120000000Y-85000001I-1J-400000D01*
G01*
X116300000Y-84999999D02*
X116300000Y-98900000D01*
X120000000Y-98900001D02*
G75*
G02*
X119599999Y-99300000I-400000J1D01*
G01*
X116600000Y-77800000D02*
X116600000Y-81000000D01*
X116999999Y-81400000D02*
G75*
G02*
X116600000Y-80999999I1J400000D01*
G01*
X116699999Y-99300000D02*
G75*
G02*
X116300000Y-98899999I1J400000D01*
G01*
X110800000Y-73000000D02*
G75*
G02*
X113900000Y-69900000I3100000J0D01*
G01*
X184800000Y-109000000D02*
G75*
G02*
X170800000Y-123000000I-14000000J0D01*
G01*
X127800000Y-77800000D02*
X127800000Y-81000000D01*
X184800000Y-73000000D02*
X184800000Y-109000000D01*
X120000000Y-85000000D02*
X120000000Y-98900001D01*
X124800000Y-123000000D02*
G75*
G02*
X110800000Y-109000000I0J14000000D01*
G01*
X127400000Y-77400000D02*
G75*
G02*
X127800000Y-77800000I0J-400000D01*
G01*
X116300000Y-84999999D02*
G75*
G02*
X116700001Y-84600000I400000J-1D01*
G01*
X170800000Y-123000000D02*
X124800000Y-123000000D01*
X132000000Y-118000000D02*
G75*
G02*
X130000000Y-118000000I-1000000J0D01*
G01*
X130000000Y-118000000D02*
G75*
G02*
X132000000Y-118000000I1000000J0D01*
G01*
X127800000Y-81000000D02*
G75*
G02*
X127400000Y-81400000I-400000J0D01*
G01*
X110800000Y-109000000D02*
X110800000Y-73000000D01*
M02*
